<svg width="240" height="240" viewBox="0 0 240 240" xmlns="http://www.w3.org/2000/svg">
  <defs>
    <linearGradient id="myondGradient" x1="0%" y1="0%" x2="100%" y2="100%">
      <stop offset="0%" style="stop-color:#3B82F6;stop-opacity:1" />
      <stop offset="50%" style="stop-color:#8B5CF6;stop-opacity:1" />
      <stop offset="100%" style="stop-color:#06B6D4;stop-opacity:1" />
    </linearGradient>
    <linearGradient id="nodeGradient" x1="0%" y1="0%" x2="100%" y2="100%">
      <stop offset="0%" style="stop-color:#FFFFFF;stop-opacity:0.9" />
      <stop offset="100%" style="stop-color:#F8FAFC;stop-opacity:0.8" />
    </linearGradient>
  </defs>
  
  <!-- Background -->
  <rect width="240" height="240" rx="24" fill="url(#myondGradient)" />
  
  <!-- Central Brain/AI Core -->
  <circle cx="120" cy="120" r="32" fill="url(#nodeGradient)" stroke="#FFFFFF" stroke-width="2" opacity="0.95"/>
  <circle cx="120" cy="120" r="20" fill="none" stroke="#3B82F6" stroke-width="2" opacity="0.6"/>
  <circle cx="120" cy="120" r="12" fill="#3B82F6" opacity="0.8"/>
  
  <!-- Neural Network Connections -->
  <!-- Top nodes -->
  <circle cx="80" cy="60" r="12" fill="url(#nodeGradient)" opacity="0.9"/>
  <circle cx="160" cy="60" r="12" fill="url(#nodeGradient)" opacity="0.9"/>
  
  <!-- Side nodes -->
  <circle cx="60" cy="120" r="12" fill="url(#nodeGradient)" opacity="0.9"/>
  <circle cx="180" cy="120" r="12" fill="url(#nodeGradient)" opacity="0.9"/>
  
  <!-- Bottom nodes -->
  <circle cx="80" cy="180" r="12" fill="url(#nodeGradient)" opacity="0.9"/>
  <circle cx="160" cy="180" r="12" fill="url(#nodeGradient)" opacity="0.9"/>
  
  <!-- Corner nodes -->
  <circle cx="60" cy="80" r="8" fill="url(#nodeGradient)" opacity="0.8"/>
  <circle cx="180" cy="80" r="8" fill="url(#nodeGradient)" opacity="0.8"/>
  <circle cx="60" cy="160" r="8" fill="url(#nodeGradient)" opacity="0.8"/>
  <circle cx="180" cy="160" r="8" fill="url(#nodeGradient)" opacity="0.8"/>
  
  <!-- Connection lines -->
  <line x1="120" y1="120" x2="80" y2="60" stroke="#FFFFFF" stroke-width="2" opacity="0.7"/>
  <line x1="120" y1="120" x2="160" y2="60" stroke="#FFFFFF" stroke-width="2" opacity="0.7"/>
  <line x1="120" y1="120" x2="60" y2="120" stroke="#FFFFFF" stroke-width="2" opacity="0.7"/>
  <line x1="120" y1="120" x2="180" y2="120" stroke="#FFFFFF" stroke-width="2" opacity="0.7"/>
  <line x1="120" y1="120" x2="80" y2="180" stroke="#FFFFFF" stroke-width="2" opacity="0.7"/>
  <line x1="120" y1="120" x2="160" y2="180" stroke="#FFFFFF" stroke-width="2" opacity="0.7"/>
  
  <!-- Additional neural connections -->
  <line x1="80" y1="60" x2="60" y2="80" stroke="#FFFFFF" stroke-width="1.5" opacity="0.5"/>
  <line x1="160" y1="60" x2="180" y2="80" stroke="#FFFFFF" stroke-width="1.5" opacity="0.5"/>
  <line x1="80" y1="180" x2="60" y2="160" stroke="#FFFFFF" stroke-width="1.5" opacity="0.5"/>
  <line x1="160" y1="180" x2="180" y2="160" stroke="#FFFFFF" stroke-width="1.5" opacity="0.5"/>
  
  <!-- AI Sparkles -->
  <circle cx="140" cy="100" r="3" fill="#FFFFFF" opacity="0.9">
    <animate attributeName="opacity" values="0.3;1;0.3" dur="2s" repeatCount="indefinite"/>
  </circle>
  <circle cx="100" cy="140" r="2" fill="#FFFFFF" opacity="0.8">
    <animate attributeName="opacity" values="0.2;0.9;0.2" dur="1.5s" repeatCount="indefinite"/>
  </circle>
  <circle cx="150" cy="140" r="2.5" fill="#FFFFFF" opacity="0.7">
    <animate attributeName="opacity" values="0.4;1;0.4" dur="1.8s" repeatCount="indefinite"/>
  </circle>
</svg> 