<svg width="240" height="240" viewBox="0 0 240 240" xmlns="http://www.w3.org/2000/svg">
  <defs>
    <linearGradient id="techGradient" x1="0%" y1="0%" x2="100%" y2="100%">
      <stop offset="0%" style="stop-color:#3B82F6;stop-opacity:1" />
      <stop offset="50%" style="stop-color:#10B981;stop-opacity:1" />
      <stop offset="100%" style="stop-color:#059669;stop-opacity:1" />
    </linearGradient>
    <linearGradient id="screenGradient" x1="0%" y1="0%" x2="100%" y2="100%">
      <stop offset="0%" style="stop-color:#FFFFFF;stop-opacity:0.95" />
      <stop offset="100%" style="stop-color:#F8FAFC;stop-opacity:0.9" />
    </linearGradient>
    <linearGradient id="dataGradient" x1="0%" y1="0%" x2="100%" y2="100%">
      <stop offset="0%" style="stop-color:#06B6D4;stop-opacity:1" />
      <stop offset="100%" style="stop-color:#0891B2;stop-opacity:1" />
    </linearGradient>
  </defs>
  
  <!-- Background -->
  <rect width="240" height="240" rx="24" fill="url(#techGradient)" />
  
  <!-- Main monitor/dashboard -->
  <rect x="70" y="70" width="100" height="70" rx="8" fill="url(#screenGradient)" stroke="#FFFFFF" stroke-width="2"/>
  
  <!-- Monitor base -->
  <rect x="110" y="140" width="20" height="15" rx="2" fill="url(#screenGradient)" stroke="#FFFFFF" stroke-width="1.5"/>
  <rect x="100" y="155" width="40" height="5" rx="2" fill="url(#screenGradient)" stroke="#FFFFFF" stroke-width="1"/>
  
  <!-- Dashboard content - charts and graphs -->
  <!-- Bar chart -->
  <rect x="80" y="110" width="6" height="20" fill="#3B82F6"/>
  <rect x="88" y="105" width="6" height="25" fill="#10B981"/>
  <rect x="96" y="100" width="6" height="30" fill="#06B6D4"/>
  <rect x="104" y="95" width="6" height="35" fill="#8B5CF6"/>
  
  <!-- Line chart area -->
  <polyline points="120,120 130,110 140,115 150,100 160,105" 
            stroke="#10B981" stroke-width="2" fill="none"/>
  <circle cx="120" cy="120" r="2" fill="#10B981"/>
  <circle cx="130" cy="110" r="2" fill="#10B981"/>
  <circle cx="140" cy="115" r="2" fill="#10B981"/>
  <circle cx="150" cy="100" r="2" fill="#10B981"/>
  <circle cx="160" cy="105" r="2" fill="#10B981"/>
  
  <!-- Data indicators around screen -->
  <circle cx="80" cy="85" r="3" fill="#FFFFFF"/>
  <circle cx="90" cy="85" r="3" fill="#FFFFFF"/>
  <circle cx="100" cy="85" r="3" fill="#FFFFFF"/>
  
  <!-- Side panels - representing enterprise systems -->
  <!-- Left panel -->
  <rect x="30" y="90" width="25" height="50" rx="4" fill="url(#screenGradient)" stroke="#FFFFFF" stroke-width="1.5"/>
  <rect x="35" y="95" width="15" height="3" fill="#3B82F6"/>
  <rect x="35" y="100" width="12" height="3" fill="#10B981"/>
  <rect x="35" y="105" width="18" height="3" fill="#06B6D4"/>
  <rect x="35" y="115" width="15" height="3" fill="#3B82F6"/>
  <rect x="35" y="120" width="10" height="3" fill="#10B981"/>
  <rect x="35" y="125" width="16" height="3" fill="#06B6D4"/>
  
  <!-- Right panel -->
  <rect x="185" y="90" width="25" height="50" rx="4" fill="url(#screenGradient)" stroke="#FFFFFF" stroke-width="1.5"/>
  <circle cx="192" cy="100" r="4" fill="#10B981"/>
  <circle cx="203" cy="100" r="4" fill="#3B82F6"/>
  <circle cx="192" cy="115" r="4" fill="#06B6D4"/>
  <circle cx="203" cy="115" r="4" fill="#8B5CF6"/>
  <circle cx="197" cy="130" r="4" fill="#F59E0B"/>
  
  <!-- Connection lines -->
  <line x1="55" y1="115" x2="70" y2="115" stroke="#FFFFFF" stroke-width="2" opacity="0.7"/>
  <line x1="170" y1="115" x2="185" y2="115" stroke="#FFFFFF" stroke-width="2" opacity="0.7"/>
  
  <!-- Data flow indicators -->
  <path d="M 60 115 L 65 112 L 65 118 Z" fill="#FFFFFF" opacity="0.8">
    <animate attributeName="opacity" values="0.4;1;0.4" dur="2s" repeatCount="indefinite"/>
  </path>
  <path d="M 180 115 L 175 112 L 175 118 Z" fill="#FFFFFF" opacity="0.8">
    <animate attributeName="opacity" values="0.4;1;0.4" dur="2.5s" repeatCount="indefinite"/>
  </path>
  
  <!-- Gear/settings icons -->
  <g transform="translate(120,50)">
    <circle r="8" fill="url(#screenGradient)" stroke="#FFFFFF" stroke-width="1.5"/>
    <circle r="5" fill="none" stroke="#3B82F6" stroke-width="1.5"/>
    <circle r="2" fill="#3B82F6"/>
    <animateTransform attributeName="transform" attributeType="XML" type="rotate" 
                      values="0 120 50;360 120 50" dur="8s" repeatCount="indefinite"/>
  </g>
  
  <g transform="translate(120,180)">
    <circle r="6" fill="url(#screenGradient)" stroke="#FFFFFF" stroke-width="1.5"/>
    <circle r="3" fill="none" stroke="#10B981" stroke-width="1.5"/>
    <circle r="1.5" fill="#10B981"/>
    <animateTransform attributeName="transform" attributeType="XML" type="rotate" 
                      values="360 120 180;0 120 180" dur="6s" repeatCount="indefinite"/>
  </g>
  
  <!-- Cloud/digital transformation elements -->
  <ellipse cx="60" cy="50" rx="12" ry="8" fill="#FFFFFF" opacity="0.8"/>
  <ellipse cx="55" cy="55" rx="8" ry="5" fill="#FFFFFF" opacity="0.7"/>
  <ellipse cx="65" cy="55" rx="8" ry="5" fill="#FFFFFF" opacity="0.7"/>
  
  <ellipse cx="180" cy="50" rx="12" ry="8" fill="#FFFFFF" opacity="0.8"/>
  <ellipse cx="175" cy="55" rx="8" ry="5" fill="#FFFFFF" opacity="0.7"/>
  <ellipse cx="185" cy="55" rx="8" ry="5" fill="#FFFFFF" opacity="0.7"/>
  
  <!-- Analytics indicators -->
  <circle cx="50" cy="180" r="4" fill="#FFFFFF" opacity="0.8">
    <animate attributeName="opacity" values="0.3;1;0.3" dur="2.5s" repeatCount="indefinite"/>
  </circle>
  <circle cx="190" cy="180" r="4" fill="#FFFFFF" opacity="0.8">
    <animate attributeName="opacity" values="0.3;1;0.3" dur="2.2s" repeatCount="indefinite"/>
  </circle>
  
  <!-- Network/integration lines -->
  <line x1="72" y1="55" x2="90" y2="70" stroke="#FFFFFF" stroke-width="1.5" opacity="0.6"/>
  <line x1="168" y1="55" x2="150" y2="70" stroke="#FFFFFF" stroke-width="1.5" opacity="0.6"/>
  
  <!-- Data points moving -->
  <circle cx="75" cy="62" r="2" fill="#06B6D4" opacity="0.9">
    <animateMotion dur="3s" repeatCount="indefinite">
      <path d="M 0,0 L 15,8 L 0,0"/>
    </animateMotion>
  </circle>
  <circle cx="165" cy="62" r="2" fill="#10B981" opacity="0.9">
    <animateMotion dur="3.5s" repeatCount="indefinite">
      <path d="M 0,0 L -15,8 L 0,0"/>
    </animateMotion>
  </circle>
</svg> 