<svg xmlns="http://www.w3.org/2000/svg" width="1920" height="1080" version="1.2" viewBox="0 0 1440 810"><defs><clipPath id="a"><path d="M298.2 444.848h243.238v84.836H298.198Zm0 0"/></clipPath><clipPath id="b"><path d="M336.45 444.848h166.5a38.253 38.253 0 0 1 38.25 38.25v8.336a38.253 38.253 0 0 1-38.25 38.25h-166.5a38.253 38.253 0 0 1-38.25-38.25v-8.336a38.253 38.253 0 0 1 38.25-38.25m0 0"/></clipPath><clipPath id="c"><path d="M898.8 444.848H1142v84.836H898.8Zm0 0"/></clipPath><clipPath id="d"><path d="M937.05 444.848h166.5a38.253 38.253 0 0 1 38.25 38.25v8.336a38.253 38.253 0 0 1-38.25 38.25h-166.5a38.253 38.253 0 0 1-38.25-38.25v-8.336a38.253 38.253 0 0 1 38.25-38.25m0 0"/></clipPath><clipPath id="e"><path d="M874.574 484.64h21.602v5.25h-21.602Zm-330.75 0h31.5v5.25h-31.5Zm36.75 0h31.5v5.25h-31.5Zm36.75 0h31.5v5.25h-31.5Zm36.75 0h31.5v5.25h-31.5Zm36.75 0h31.5v5.25h-31.5Zm36.75 0h31.5v5.25h-31.5Zm36.75 0h31.5v5.25h-31.5Zm36.75 0h31.5v5.25h-31.5Zm36.75 0h31.5v5.25h-31.5Zm0 0"/></clipPath><linearGradient id="f" x1="3.5" x2="473.306" y1="3.5" y2="3.5" gradientTransform="matrix(.75 0 0 .75 541.198 484.64)" gradientUnits="userSpaceOnUse"><stop offset="0" style="stop-color:#5270ff;stop-opacity:1"/><stop offset=".004" style="stop-color:#5370fe;stop-opacity:1"/><stop offset=".008" style="stop-color:#5470fe;stop-opacity:1"/><stop offset=".012" style="stop-color:#5470fe;stop-opacity:1"/><stop offset=".016" style="stop-color:#5570fe;stop-opacity:1"/><stop offset=".02" style="stop-color:#5670fd;stop-opacity:1"/><stop offset=".023" style="stop-color:#5670fd;stop-opacity:1"/><stop offset=".027" style="stop-color:#5770fd;stop-opacity:1"/><stop offset=".031" style="stop-color:#5870fd;stop-opacity:1"/><stop offset=".035" style="stop-color:#5870fd;stop-opacity:1"/><stop offset=".039" style="stop-color:#596ffc;stop-opacity:1"/><stop offset=".043" style="stop-color:#5a6ffc;stop-opacity:1"/><stop offset=".047" style="stop-color:#5a6ffc;stop-opacity:1"/><stop offset=".051" style="stop-color:#5b6ffc;stop-opacity:1"/><stop offset=".055" style="stop-color:#5c6ffb;stop-opacity:1"/><stop offset=".059" style="stop-color:#5c6ffb;stop-opacity:1"/><stop offset=".063" style="stop-color:#5d6ffb;stop-opacity:1"/><stop offset=".066" style="stop-color:#5e6ffb;stop-opacity:1"/><stop offset=".07" style="stop-color:#5e6ffa;stop-opacity:1"/><stop offset=".074" style="stop-color:#5f6ffa;stop-opacity:1"/><stop offset=".078" style="stop-color:#606ffa;stop-opacity:1"/><stop offset=".082" style="stop-color:#606ffa;stop-opacity:1"/><stop offset=".086" style="stop-color:#616ffa;stop-opacity:1"/><stop offset=".09" style="stop-color:#626ff9;stop-opacity:1"/><stop offset=".094" style="stop-color:#626ff9;stop-opacity:1"/><stop offset=".098" style="stop-color:#636ff9;stop-opacity:1"/><stop offset=".102" style="stop-color:#646ff9;stop-opacity:1"/><stop offset=".105" style="stop-color:#646ff8;stop-opacity:1"/><stop offset=".109" style="stop-color:#656ff8;stop-opacity:1"/><stop offset=".113" style="stop-color:#666ff8;stop-opacity:1"/><stop offset=".117" style="stop-color:#666ff8;stop-opacity:1"/><stop offset=".121" style="stop-color:#676ff8;stop-opacity:1"/><stop offset=".125" style="stop-color:#686ff7;stop-opacity:1"/><stop offset=".129" style="stop-color:#686ff7;stop-opacity:1"/><stop offset=".133" style="stop-color:#696ff7;stop-opacity:1"/><stop offset=".137" style="stop-color:#6a6ff7;stop-opacity:1"/><stop offset=".141" style="stop-color:#6a6ef6;stop-opacity:1"/><stop offset=".145" style="stop-color:#6b6ef6;stop-opacity:1"/><stop offset=".148" style="stop-color:#6c6ef6;stop-opacity:1"/><stop offset=".152" style="stop-color:#6c6ef6;stop-opacity:1"/><stop offset=".156" style="stop-color:#6d6ef5;stop-opacity:1"/><stop offset=".16" style="stop-color:#6e6ef5;stop-opacity:1"/><stop offset=".164" style="stop-color:#6e6ef5;stop-opacity:1"/><stop offset=".168" style="stop-color:#6f6ef5;stop-opacity:1"/><stop offset=".172" style="stop-color:#706ef5;stop-opacity:1"/><stop offset=".176" style="stop-color:#706ef4;stop-opacity:1"/><stop offset=".18" style="stop-color:#716ef4;stop-opacity:1"/><stop offset=".184" style="stop-color:#726ef4;stop-opacity:1"/><stop offset=".188" style="stop-color:#726ef4;stop-opacity:1"/><stop offset=".191" style="stop-color:#736ef3;stop-opacity:1"/><stop offset=".195" style="stop-color:#746ef3;stop-opacity:1"/><stop offset=".199" style="stop-color:#756ef3;stop-opacity:1"/><stop offset=".203" style="stop-color:#756ef3;stop-opacity:1"/><stop offset=".207" style="stop-color:#766ef3;stop-opacity:1"/><stop offset=".211" style="stop-color:#776ef2;stop-opacity:1"/><stop offset=".215" style="stop-color:#776ef2;stop-opacity:1"/><stop offset=".219" style="stop-color:#786ef2;stop-opacity:1"/><stop offset=".223" style="stop-color:#796ef2;stop-opacity:1"/><stop offset=".227" style="stop-color:#796ef1;stop-opacity:1"/><stop offset=".23" style="stop-color:#7a6ef1;stop-opacity:1"/><stop offset=".234" style="stop-color:#7b6ef1;stop-opacity:1"/><stop offset=".238" style="stop-color:#7b6ef1;stop-opacity:1"/><stop offset=".242" style="stop-color:#7c6df1;stop-opacity:1"/><stop offset=".246" style="stop-color:#7d6df0;stop-opacity:1"/><stop offset=".25" style="stop-color:#7d6df0;stop-opacity:1"/><stop offset=".254" style="stop-color:#7e6df0;stop-opacity:1"/><stop offset=".258" style="stop-color:#7f6df0;stop-opacity:1"/><stop offset=".262" style="stop-color:#7f6def;stop-opacity:1"/><stop offset=".266" style="stop-color:#806def;stop-opacity:1"/><stop offset=".27" style="stop-color:#816def;stop-opacity:1"/><stop offset=".273" style="stop-color:#816def;stop-opacity:1"/><stop offset=".277" style="stop-color:#826dee;stop-opacity:1"/><stop offset=".281" style="stop-color:#836dee;stop-opacity:1"/><stop offset=".285" style="stop-color:#836dee;stop-opacity:1"/><stop offset=".289" style="stop-color:#846dee;stop-opacity:1"/><stop offset=".293" style="stop-color:#856dee;stop-opacity:1"/><stop offset=".297" style="stop-color:#856ded;stop-opacity:1"/><stop offset=".301" style="stop-color:#866ded;stop-opacity:1"/><stop offset=".305" style="stop-color:#876ded;stop-opacity:1"/><stop offset=".309" style="stop-color:#876ded;stop-opacity:1"/><stop offset=".313" style="stop-color:#886dec;stop-opacity:1"/><stop offset=".316" style="stop-color:#896dec;stop-opacity:1"/><stop offset=".32" style="stop-color:#896dec;stop-opacity:1"/><stop offset=".324" style="stop-color:#8a6dec;stop-opacity:1"/><stop offset=".328" style="stop-color:#8b6dec;stop-opacity:1"/><stop offset=".332" style="stop-color:#8b6deb;stop-opacity:1"/><stop offset=".336" style="stop-color:#8c6deb;stop-opacity:1"/><stop offset=".34" style="stop-color:#8d6deb;stop-opacity:1"/><stop offset=".344" style="stop-color:#8d6deb;stop-opacity:1"/><stop offset=".348" style="stop-color:#8e6cea;stop-opacity:1"/><stop offset=".352" style="stop-color:#8f6cea;stop-opacity:1"/><stop offset=".355" style="stop-color:#8f6cea;stop-opacity:1"/><stop offset=".359" style="stop-color:#906cea;stop-opacity:1"/><stop offset=".363" style="stop-color:#916ce9;stop-opacity:1"/><stop offset=".367" style="stop-color:#916ce9;stop-opacity:1"/><stop offset=".371" style="stop-color:#926ce9;stop-opacity:1"/><stop offset=".375" style="stop-color:#936ce9;stop-opacity:1"/><stop offset=".379" style="stop-color:#936ce9;stop-opacity:1"/><stop offset=".383" style="stop-color:#946ce8;stop-opacity:1"/><stop offset=".387" style="stop-color:#956ce8;stop-opacity:1"/><stop offset=".391" style="stop-color:#956ce8;stop-opacity:1"/><stop offset=".395" style="stop-color:#966ce8;stop-opacity:1"/><stop offset=".398" style="stop-color:#976ce7;stop-opacity:1"/><stop offset=".402" style="stop-color:#976ce7;stop-opacity:1"/><stop offset=".406" style="stop-color:#986ce7;stop-opacity:1"/><stop offset=".41" style="stop-color:#996ce7;stop-opacity:1"/><stop offset=".414" style="stop-color:#996ce7;stop-opacity:1"/><stop offset=".418" style="stop-color:#9a6ce6;stop-opacity:1"/><stop offset=".422" style="stop-color:#9b6ce6;stop-opacity:1"/><stop offset=".426" style="stop-color:#9b6ce6;stop-opacity:1"/><stop offset=".43" style="stop-color:#9c6ce6;stop-opacity:1"/><stop offset=".434" style="stop-color:#9d6ce5;stop-opacity:1"/><stop offset=".438" style="stop-color:#9d6ce5;stop-opacity:1"/><stop offset=".441" style="stop-color:#9e6ce5;stop-opacity:1"/><stop offset=".445" style="stop-color:#9f6ce5;stop-opacity:1"/><stop offset=".449" style="stop-color:#9f6be4;stop-opacity:1"/><stop offset=".453" style="stop-color:#a06be4;stop-opacity:1"/><stop offset=".457" style="stop-color:#a16be4;stop-opacity:1"/><stop offset=".461" style="stop-color:#a16be4;stop-opacity:1"/><stop offset=".465" style="stop-color:#a26be4;stop-opacity:1"/><stop offset=".469" style="stop-color:#a36be3;stop-opacity:1"/><stop offset=".473" style="stop-color:#a36be3;stop-opacity:1"/><stop offset=".477" style="stop-color:#a46be3;stop-opacity:1"/><stop offset=".48" style="stop-color:#a56be3;stop-opacity:1"/><stop offset=".484" style="stop-color:#a56be2;stop-opacity:1"/><stop offset=".488" style="stop-color:#a66be2;stop-opacity:1"/><stop offset=".492" style="stop-color:#a76be2;stop-opacity:1"/><stop offset=".496" style="stop-color:#a76be2;stop-opacity:1"/><stop offset=".5" style="stop-color:#a86be2;stop-opacity:1"/><stop offset=".504" style="stop-color:#a96be1;stop-opacity:1"/><stop offset=".508" style="stop-color:#a96be1;stop-opacity:1"/><stop offset=".512" style="stop-color:#aa6be1;stop-opacity:1"/><stop offset=".516" style="stop-color:#ab6be1;stop-opacity:1"/><stop offset=".52" style="stop-color:#ab6be0;stop-opacity:1"/><stop offset=".523" style="stop-color:#ac6be0;stop-opacity:1"/><stop offset=".527" style="stop-color:#ad6be0;stop-opacity:1"/><stop offset=".531" style="stop-color:#ad6be0;stop-opacity:1"/><stop offset=".535" style="stop-color:#ae6be0;stop-opacity:1"/><stop offset=".539" style="stop-color:#af6bdf;stop-opacity:1"/><stop offset=".543" style="stop-color:#af6bdf;stop-opacity:1"/><stop offset=".547" style="stop-color:#b06bdf;stop-opacity:1"/><stop offset=".551" style="stop-color:#b16adf;stop-opacity:1"/><stop offset=".555" style="stop-color:#b16ade;stop-opacity:1"/><stop offset=".559" style="stop-color:#b26ade;stop-opacity:1"/><stop offset=".563" style="stop-color:#b36ade;stop-opacity:1"/><stop offset=".566" style="stop-color:#b36ade;stop-opacity:1"/><stop offset=".57" style="stop-color:#b46add;stop-opacity:1"/><stop offset=".574" style="stop-color:#b56add;stop-opacity:1"/><stop offset=".578" style="stop-color:#b56add;stop-opacity:1"/><stop offset=".582" style="stop-color:#b66add;stop-opacity:1"/><stop offset=".586" style="stop-color:#b76add;stop-opacity:1"/><stop offset=".59" style="stop-color:#b76adc;stop-opacity:1"/><stop offset=".594" style="stop-color:#b86adc;stop-opacity:1"/><stop offset=".598" style="stop-color:#b96adc;stop-opacity:1"/><stop offset=".602" style="stop-color:#b96adc;stop-opacity:1"/><stop offset=".605" style="stop-color:#ba6adb;stop-opacity:1"/><stop offset=".609" style="stop-color:#bb6adb;stop-opacity:1"/><stop offset=".613" style="stop-color:#bb6adb;stop-opacity:1"/><stop offset=".617" style="stop-color:#bc6adb;stop-opacity:1"/><stop offset=".621" style="stop-color:#bd6adb;stop-opacity:1"/><stop offset=".625" style="stop-color:#bd6ada;stop-opacity:1"/><stop offset=".629" style="stop-color:#be6ada;stop-opacity:1"/><stop offset=".633" style="stop-color:#bf6ada;stop-opacity:1"/><stop offset=".637" style="stop-color:#bf6ada;stop-opacity:1"/><stop offset=".641" style="stop-color:#c06ad9;stop-opacity:1"/><stop offset=".645" style="stop-color:#c16ad9;stop-opacity:1"/><stop offset=".648" style="stop-color:#c16ad9;stop-opacity:1"/><stop offset=".652" style="stop-color:#c269d9;stop-opacity:1"/><stop offset=".656" style="stop-color:#c369d8;stop-opacity:1"/><stop offset=".66" style="stop-color:#c369d8;stop-opacity:1"/><stop offset=".664" style="stop-color:#c469d8;stop-opacity:1"/><stop offset=".668" style="stop-color:#c569d8;stop-opacity:1"/><stop offset=".672" style="stop-color:#c569d8;stop-opacity:1"/><stop offset=".676" style="stop-color:#c669d7;stop-opacity:1"/><stop offset=".68" style="stop-color:#c769d7;stop-opacity:1"/><stop offset=".684" style="stop-color:#c869d7;stop-opacity:1"/><stop offset=".688" style="stop-color:#c869d7;stop-opacity:1"/><stop offset=".691" style="stop-color:#c969d6;stop-opacity:1"/><stop offset=".695" style="stop-color:#ca69d6;stop-opacity:1"/><stop offset=".699" style="stop-color:#ca69d6;stop-opacity:1"/><stop offset=".703" style="stop-color:#cb69d6;stop-opacity:1"/><stop offset=".707" style="stop-color:#cc69d6;stop-opacity:1"/><stop offset=".711" style="stop-color:#cc69d5;stop-opacity:1"/><stop offset=".715" style="stop-color:#cd69d5;stop-opacity:1"/><stop offset=".719" style="stop-color:#ce69d5;stop-opacity:1"/><stop offset=".723" style="stop-color:#ce69d5;stop-opacity:1"/><stop offset=".727" style="stop-color:#cf69d4;stop-opacity:1"/><stop offset=".73" style="stop-color:#d069d4;stop-opacity:1"/><stop offset=".734" style="stop-color:#d069d4;stop-opacity:1"/><stop offset=".738" style="stop-color:#d169d4;stop-opacity:1"/><stop offset=".742" style="stop-color:#d269d3;stop-opacity:1"/><stop offset=".746" style="stop-color:#d269d3;stop-opacity:1"/><stop offset=".75" style="stop-color:#d369d3;stop-opacity:1"/><stop offset=".754" style="stop-color:#d468d3;stop-opacity:1"/><stop offset=".758" style="stop-color:#d468d3;stop-opacity:1"/><stop offset=".762" style="stop-color:#d568d2;stop-opacity:1"/><stop offset=".766" style="stop-color:#d668d2;stop-opacity:1"/><stop offset=".77" style="stop-color:#d668d2;stop-opacity:1"/><stop offset=".773" style="stop-color:#d768d2;stop-opacity:1"/><stop offset=".777" style="stop-color:#d868d1;stop-opacity:1"/><stop offset=".781" style="stop-color:#d868d1;stop-opacity:1"/><stop offset=".785" style="stop-color:#d968d1;stop-opacity:1"/><stop offset=".789" style="stop-color:#da68d1;stop-opacity:1"/><stop offset=".793" style="stop-color:#da68d1;stop-opacity:1"/><stop offset=".797" style="stop-color:#db68d0;stop-opacity:1"/><stop offset=".801" style="stop-color:#dc68d0;stop-opacity:1"/><stop offset=".805" style="stop-color:#dc68d0;stop-opacity:1"/><stop offset=".809" style="stop-color:#dd68d0;stop-opacity:1"/><stop offset=".813" style="stop-color:#de68cf;stop-opacity:1"/><stop offset=".816" style="stop-color:#de68cf;stop-opacity:1"/><stop offset=".82" style="stop-color:#df68cf;stop-opacity:1"/><stop offset=".824" style="stop-color:#e068cf;stop-opacity:1"/><stop offset=".828" style="stop-color:#e068cf;stop-opacity:1"/><stop offset=".832" style="stop-color:#e168ce;stop-opacity:1"/><stop offset=".836" style="stop-color:#e268ce;stop-opacity:1"/><stop offset=".84" style="stop-color:#e268ce;stop-opacity:1"/><stop offset=".844" style="stop-color:#e368ce;stop-opacity:1"/><stop offset=".848" style="stop-color:#e468cd;stop-opacity:1"/><stop offset=".852" style="stop-color:#e468cd;stop-opacity:1"/><stop offset=".855" style="stop-color:#e567cd;stop-opacity:1"/><stop offset=".859" style="stop-color:#e667cd;stop-opacity:1"/><stop offset=".863" style="stop-color:#e667cc;stop-opacity:1"/><stop offset=".867" style="stop-color:#e767cc;stop-opacity:1"/><stop offset=".871" style="stop-color:#e867cc;stop-opacity:1"/><stop offset=".875" style="stop-color:#e867cc;stop-opacity:1"/><stop offset=".879" style="stop-color:#e967cc;stop-opacity:1"/><stop offset=".883" style="stop-color:#ea67cb;stop-opacity:1"/><stop offset=".887" style="stop-color:#ea67cb;stop-opacity:1"/><stop offset=".891" style="stop-color:#eb67cb;stop-opacity:1"/><stop offset=".895" style="stop-color:#ec67cb;stop-opacity:1"/><stop offset=".898" style="stop-color:#ec67ca;stop-opacity:1"/><stop offset=".902" style="stop-color:#ed67ca;stop-opacity:1"/><stop offset=".906" style="stop-color:#ee67ca;stop-opacity:1"/><stop offset=".91" style="stop-color:#ee67ca;stop-opacity:1"/><stop offset=".914" style="stop-color:#ef67ca;stop-opacity:1"/><stop offset=".918" style="stop-color:#f067c9;stop-opacity:1"/><stop offset=".922" style="stop-color:#f067c9;stop-opacity:1"/><stop offset=".926" style="stop-color:#f167c9;stop-opacity:1"/><stop offset=".93" style="stop-color:#f267c9;stop-opacity:1"/><stop offset=".934" style="stop-color:#f267c8;stop-opacity:1"/><stop offset=".938" style="stop-color:#f367c8;stop-opacity:1"/><stop offset=".941" style="stop-color:#f467c8;stop-opacity:1"/><stop offset=".945" style="stop-color:#f467c8;stop-opacity:1"/><stop offset=".949" style="stop-color:#f567c7;stop-opacity:1"/><stop offset=".953" style="stop-color:#f667c7;stop-opacity:1"/><stop offset=".957" style="stop-color:#f666c7;stop-opacity:1"/><stop offset=".961" style="stop-color:#f766c7;stop-opacity:1"/><stop offset=".965" style="stop-color:#f866c7;stop-opacity:1"/><stop offset=".969" style="stop-color:#f866c6;stop-opacity:1"/><stop offset=".973" style="stop-color:#f966c6;stop-opacity:1"/><stop offset=".977" style="stop-color:#fa66c6;stop-opacity:1"/><stop offset=".98" style="stop-color:#fa66c6;stop-opacity:1"/><stop offset=".984" style="stop-color:#fb66c5;stop-opacity:1"/><stop offset=".988" style="stop-color:#fc66c5;stop-opacity:1"/><stop offset=".992" style="stop-color:#fc66c5;stop-opacity:1"/><stop offset=".996" style="stop-color:#fd66c5;stop-opacity:1"/><stop offset="1" style="stop-color:#fe66c5;stop-opacity:1"/></linearGradient><linearGradient id="g" x1="0" x2="21" y1="3.5" y2="3.5" gradientUnits="userSpaceOnUse"><stop offset="0" style="stop-color:#5170ff;stop-opacity:1"/><stop offset=".125" style="stop-color:#5270ff;stop-opacity:1"/><stop offset=".25" style="stop-color:#5370ff;stop-opacity:1"/><stop offset=".375" style="stop-color:#5370fe;stop-opacity:1"/><stop offset=".5" style="stop-color:#5470fe;stop-opacity:1"/><stop offset=".625" style="stop-color:#5570fe;stop-opacity:1"/><stop offset=".75" style="stop-color:#5670fd;stop-opacity:1"/><stop offset=".875" style="stop-color:#5770fd;stop-opacity:1"/><stop offset="1" style="stop-color:#5870fd;stop-opacity:1"/></linearGradient><linearGradient id="h" x1="455.806" x2="476.806" y1="3.5" y2="3.5" gradientUnits="userSpaceOnUse"><stop offset="0" style="stop-color:#f766c7;stop-opacity:1"/><stop offset=".125" style="stop-color:#f866c7;stop-opacity:1"/><stop offset=".25" style="stop-color:#f966c6;stop-opacity:1"/><stop offset=".375" style="stop-color:#fa66c6;stop-opacity:1"/><stop offset=".5" style="stop-color:#fb66c6;stop-opacity:1"/><stop offset=".625" style="stop-color:#fc66c5;stop-opacity:1"/><stop offset=".75" style="stop-color:#fd66c5;stop-opacity:1"/><stop offset=".875" style="stop-color:#fe66c5;stop-opacity:1"/><stop offset="1" style="stop-color:#ff66c4;stop-opacity:1"/></linearGradient></defs><path d="M0 0h1440v810H0z" style="fill:#fff;fill-opacity:1;stroke:none"/><path d="M0 0h1440v810H0z" style="fill:#1d1d1b;fill-opacity:1;stroke:none"/><g clip-path="url(#a)"><g clip-path="url(#b)"><path d="M298.2 444.848h242.905v84.836H298.2Zm0 0" style="stroke:none;fill-rule:nonzero;fill:#737373;fill-opacity:1"/></g></g><g style="fill:#fff;fill-opacity:1"><path d="M34.266-43.906v4.39h-13.75V0h-5.141v-39.516H1.625v-4.39Zm0 0" style="stroke:none" transform="translate(430.417 181.371)"/><path d="M5.766 0v-46.422h4.89v18.016l.64.125c2.352-3.645 5.767-5.469 10.235-5.469q5.967 0 8.657 3.047 2.685 3.046 2.687 9.375V0h-4.89v-21.203c0-2-.258-3.602-.766-4.813q-.769-1.826-2.375-2.64-1.594-.827-4.219-.828-4.502.002-7.234 2.922-2.736 2.906-2.735 9.562V0Zm0 0" style="stroke:none" transform="translate(466.272 181.371)"/><path d="M31.563-15.437H8.797q.216 6.034 2.906 8.859 2.684 2.83 7.36 2.828 3.545 0 5.703-1.266 2.169-1.263 3.406-3.968h.625l3.187 1.89q-1.44 3.61-4.609 5.672Q24.2.627 19.063.625q-4.8 0-8.25-1.89C8.508-2.524 6.738-4.439 5.5-7q-1.862-3.841-1.86-9.547-.001-5.637 1.954-9.515c1.312-2.583 3.101-4.508 5.375-5.782q3.42-1.905 7.797-1.906 6.375.002 9.937 3.594 3.574 3.58 3.61 10.64 0 2.767-.126 3.72Zm-4.079-4.079q-.127-5.28-2.359-7.687-2.221-2.404-6.36-2.406c-2.898 0-5.171.808-6.828 2.422-1.656 1.605-2.664 4.164-3.015 7.671Zm0 0" style="stroke:none" transform="translate(504.41 181.371)"/><path d="M19.016.625Q14.62.626 11.14-1.359 7.655-3.358 5.64-7.25c-1.336-2.594-2-5.691-2-9.297 0-3.625.664-6.734 2-9.328q2.014-3.89 5.5-5.875 3.48-1.999 7.875-2c3.5 0 6.285.664 8.359 1.984q3.106 1.97 4.484 5.282l-3.328 2.406h-.61q-1.347-2.731-3.468-4.016c-1.406-.851-3.219-1.281-5.437-1.281q-3.065 0-5.375 1.453-2.316 1.44-3.594 4.328-1.283 2.876-1.281 7.047-.001 4.144 1.28 7.016 1.297 2.86 3.595 4.328 2.31 1.453 5.375 1.453 3.45 0 5.718-1.562 2.263-1.56 3.547-4.922h.64l3.204 1.89c-.855 2.781-2.39 4.977-4.61 6.578Q24.202.625 19.016.625m0 0" style="stroke:none" transform="translate(554.799 181.371)"/><path d="M19.016.625q-4.687 0-8.157-1.969-3.468-1.982-5.343-5.843-1.875-3.857-1.875-9.36 0-5.496 1.875-9.375 1.874-3.874 5.343-5.844 3.47-1.982 8.157-1.984c3.113 0 5.828.664 8.14 1.984q3.47 1.97 5.344 5.844 1.889 3.879 1.89 9.375-.001 5.503-1.89 9.36-1.875 3.862-5.344 5.843-3.47 1.97-8.14 1.969m0-4.375q4.951.001 7.578-3.125 2.625-3.122 2.625-9.672 0-6.574-2.625-9.703-2.626-3.124-7.578-3.125-4.971 0-7.61 3.14-2.64 3.142-2.64 9.688 0 6.55 2.64 9.672c1.758 2.086 4.297 3.125 7.61 3.125m0 0" style="stroke:none" transform="translate(588.942 181.371)"/><path d="M5.766 0v-33.125h4.656v5.203l.625.14c1.539-3.757 4.445-5.64 8.719-5.64 2.257 0 3.945.414 5.062 1.234l-1.25 4.141-.61.125q-1.861-.937-4.077-.937-3.972.001-6.11 2.984-2.126 2.97-2.125 9.625V0Zm0 0" style="stroke:none" transform="translate(626.96 181.371)"/><path d="M31.563-15.437H8.797q.216 6.034 2.906 8.859 2.684 2.83 7.36 2.828 3.545 0 5.703-1.266 2.169-1.263 3.406-3.968h.625l3.187 1.89q-1.44 3.61-4.609 5.672Q24.2.627 19.063.625q-4.8 0-8.25-1.89C8.508-2.524 6.738-4.439 5.5-7q-1.862-3.841-1.86-9.547-.001-5.637 1.954-9.515c1.312-2.583 3.101-4.508 5.375-5.782q3.42-1.905 7.797-1.906 6.375.002 9.937 3.594 3.574 3.58 3.61 10.64 0 2.767-.126 3.72Zm-4.079-4.079q-.127-5.28-2.359-7.687-2.221-2.404-6.36-2.406c-2.898 0-5.171.808-6.828 2.422-1.656 1.605-2.664 4.164-3.015 7.671Zm0 0" style="stroke:none" transform="translate(652.544 181.371)"/><path d="M19.016.625Q14.62.626 11.14-1.359 7.655-3.358 5.64-7.25c-1.336-2.594-2-5.691-2-9.297 0-3.625.664-6.734 2-9.328q2.014-3.89 5.5-5.875 3.48-1.999 7.875-2c3.5 0 6.285.664 8.359 1.984q3.106 1.97 4.484 5.282l-3.328 2.406h-.61q-1.347-2.731-3.468-4.016c-1.406-.851-3.219-1.281-5.437-1.281q-3.065 0-5.375 1.453-2.316 1.44-3.594 4.328-1.283 2.876-1.281 7.047-.001 4.144 1.28 7.016 1.297 2.86 3.595 4.328 2.31 1.453 5.375 1.453 3.45 0 5.718-1.562 2.263-1.56 3.547-4.922h.64l3.204 1.89c-.855 2.781-2.39 4.977-4.61 6.578Q24.202.625 19.016.625m0 0" style="stroke:none" transform="translate(702.933 181.371)"/><path d="M19.016.625q-4.687 0-8.157-1.969-3.468-1.982-5.343-5.843-1.875-3.857-1.875-9.36 0-5.496 1.875-9.375 1.874-3.874 5.343-5.844 3.47-1.982 8.157-1.984c3.113 0 5.828.664 8.14 1.984q3.47 1.97 5.344 5.844 1.889 3.879 1.89 9.375-.001 5.503-1.89 9.36-1.875 3.862-5.344 5.843-3.47 1.97-8.14 1.969m0-4.375q4.951.001 7.578-3.125 2.625-3.122 2.625-9.672 0-6.574-2.625-9.703-2.626-3.124-7.578-3.125-4.971 0-7.61 3.14-2.64 3.142-2.64 9.688 0 6.55 2.64 9.672c1.758 2.086 4.297 3.125 7.61 3.125m0 0" style="stroke:none" transform="translate(737.077 181.371)"/><path d="M5.766 0v-33.125h4.656v5.203l.625.14c1.101-1.937 2.508-3.413 4.219-4.437q2.575-1.53 6.265-1.531 5.967 0 8.657 3.047 2.685 3.046 2.687 9.375V0h-4.89v-21.203c0-2-.258-3.602-.766-4.813q-.769-1.826-2.375-2.64-1.594-.827-4.219-.828-4.47 0-7.219 2.953c-1.836 1.968-2.75 5.148-2.75 9.531V0Zm0 0" style="stroke:none" transform="translate(775.094 181.371)"/><path d="M19.016.625Q14.62.626 11.14-1.359 7.655-3.358 5.64-7.25c-1.336-2.594-2-5.691-2-9.297 0-3.625.664-6.734 2-9.328q2.014-3.89 5.5-5.875 3.48-1.999 7.875-2c3.5 0 6.285.664 8.359 1.984q3.106 1.97 4.484 5.282l-3.328 2.406h-.61q-1.347-2.731-3.468-4.016c-1.406-.851-3.219-1.281-5.437-1.281q-3.065 0-5.375 1.453-2.316 1.44-3.594 4.328-1.283 2.876-1.281 7.047-.001 4.144 1.28 7.016 1.297 2.86 3.595 4.328 2.31 1.453 5.375 1.453 3.45 0 5.718-1.562 2.263-1.56 3.547-4.922h.64l3.204 1.89c-.855 2.781-2.39 4.977-4.61 6.578Q24.202.625 19.016.625m0 0" style="stroke:none" transform="translate(813.23 181.371)"/><path d="M31.563-15.437H8.797q.216 6.034 2.906 8.859 2.684 2.83 7.36 2.828 3.545 0 5.703-1.266 2.169-1.263 3.406-3.968h.625l3.187 1.89q-1.44 3.61-4.609 5.672Q24.2.627 19.063.625q-4.8 0-8.25-1.89C8.508-2.524 6.738-4.439 5.5-7q-1.862-3.841-1.86-9.547-.001-5.637 1.954-9.515c1.312-2.583 3.101-4.508 5.375-5.782q3.42-1.905 7.797-1.906 6.375.002 9.937 3.594 3.574 3.58 3.61 10.64 0 2.767-.126 3.72Zm-4.079-4.079q-.127-5.28-2.359-7.687-2.221-2.404-6.36-2.406c-2.898 0-5.171.808-6.828 2.422-1.656 1.605-2.664 4.164-3.015 7.671Zm0 0" style="stroke:none" transform="translate(847.374 181.371)"/><path d="M5.766 13.422v-46.547h4.89v4.953l.64.125q3.687-5.702 10.829-5.703c2.77 0 5.188.633 7.25 1.89q3.093 1.894 4.797 5.75 1.718 3.862 1.719 9.563-.001 5.672-1.813 9.516-1.799 3.844-4.984 5.75Q25.919.627 21.766.625c-2.243 0-4.23-.39-5.97-1.172q-2.611-1.171-4.5-3.844l-.64.125v17.688ZM20.688-3.75q10.061 0 10.062-12.797 0-12.826-10.062-12.828-2.94 0-5.188 1.36-2.251 1.347-3.547 4.218-1.299 2.86-1.297 7.25-.002 4.36 1.297 7.235Q13.25-6.453 15.5-5.094c1.5.899 3.227 1.344 5.188 1.344m0 0" style="stroke:none" transform="translate(882.689 181.371)"/><path d="m22.406-5.25 1.563 3.516Q22.795-.575 20.89.016q-1.91.609-4.141.609-9.485 0-9.484-9.61v-20.14H1.5v-4.031h5.766v-7l4.89-.797v7.797h10.672v4.031H12.156v19.672c0 3.805 1.649 5.703 4.953 5.703q2.7 0 4.657-1.5Zm0 0" style="stroke:none" transform="translate(922.207 181.371)"/><path d="M8.234-39.516q-1.563.002-2.546-.968-.972-.985-.97-2.485-.002-1.498.97-2.468.983-.985 2.546-.985 1.56 0 2.532.984.967.972.968 2.47-.001 1.5-.968 2.484c-.649.648-1.493.968-2.532.968M5.766 0v-33.125h4.89V0Zm0 0" style="stroke:none" transform="translate(962.506 181.371)"/><path d="M15.11.625Q11.98.623 9.327-.187q-2.66-.825-4.5-2.266Q3-3.905 2.25-5.703l2.89-3h.626Q7.387-6.248 9.672-5c1.52.836 3.332 1.25 5.437 1.25q3.655 0 5.563-1.422 1.905-1.435 1.906-3.984-.001-1.952-1.156-3.219c-.774-.852-2.016-1.492-3.735-1.922l-5.578-1.375c-2.992-.719-5.171-1.86-6.546-3.422-1.368-1.562-2.047-3.492-2.047-5.797q-.001-2.7 1.375-4.703 1.388-2 3.984-3.078 2.591-1.078 6.172-1.078c3.039 0 5.437.43 7.187 1.281q2.624 1.267 4.094 3.547l-2.75 2.703h-.61q-1.593-1.826-3.468-2.64-1.875-.811-4.453-.813-3.283 0-5.031 1.172c-1.157.781-1.735 1.914-1.735 3.39q-.001 2.018 1.235 3.25 1.231 1.236 4.297 1.985l5.5 1.313q4.325 1.032 6.25 3.406 1.92 2.362 1.921 5.937 0 2.908-1.39 5.14-1.377 2.222-4.172 3.47C20.055.21 17.785.625 15.109.625m0 0" style="stroke:none" transform="translate(978.933 181.371)"/></g><g style="fill:#fff;fill-opacity:1"><path d="M7.813-27.844q-1.782 0-2.86-1.218-1.078-1.232-1.078-3.875c0-2.75.664-5.149 2-7.204q2.016-3.076 5.953-5.656l1.953 3q-2.766 1.597-4.453 3.625-1.674 2.034-1.765 4.219 1.81 0 2.812.969c.664.636 1 1.484 1 2.547 0 1.062-.328 1.93-.984 2.593q-.973 1.001-2.578 1m11.562 0q-1.78 0-2.86-1.218-1.077-1.232-1.078-3.875-.001-4.123 2-7.204 2.016-3.076 5.954-5.656l1.953 3q-2.766 1.597-4.453 3.625c-1.118 1.356-1.703 2.762-1.766 4.219q1.81 0 2.813.969.998.953 1 2.547c0 1.062-.329 1.93-.985 2.593q-.973 1.001-2.578 1m0 0" style="stroke:none" transform="translate(515.976 266.871)"/></g><g style="fill:#fff;fill-opacity:1"><path d="M24 .625c-4.055 0-7.621-.836-10.703-2.516C10.21-3.578 7.8-6.1 6.062-9.469Q3.452-14.53 3.454-21.953c0-4.945.867-9.102 2.61-12.469C7.8-37.797 10.21-40.32 13.297-42Q17.919-44.53 24-44.531q6.327 0 10.75 2.484 4.435 2.473 6.328 7.547l-6.328 3.875-.75-.031c-.95-2.282-2.23-3.914-3.844-4.907q-2.407-1.5-6.156-1.5-5.472.002-8.531 3.626-3.064 3.626-3.063 11.484 0 7.846 3.063 11.469Q18.528-6.875 24-6.875c5.695 0 9.188-2.77 10.469-8.312h.75l6.406 3.328q-1.814 6.252-6.172 9.375Q31.106.626 24 .625m0 0" style="stroke:none" transform="translate(543.34 266.871)"/><path d="M19.25.625q-4.862.001-8.547-1.984Q7.028-3.357 5-7.22q-2.032-3.855-2.031-9.328 0-5.465 2.031-9.344 2.029-3.873 5.703-5.859 3.685-1.999 8.547-2 4.857.001 8.531 2 3.684 1.986 5.735 5.86 2.046 3.877 2.047 9.343-.001 5.473-2.047 9.328-2.05 3.861-5.735 5.86Q24.107.626 19.25.625m0-7.047q7.718 0 7.719-10.125-.002-5.249-1.985-7.703Q23-26.701 19.25-26.703q-7.72.001-7.719 10.156c0 6.75 2.57 10.125 7.719 10.125m0 0" style="stroke:none" transform="translate(586.401 266.871)"/><path d="M4.781 0v-33.125h7.985v4.875l.625.14c2.062-3.757 5.406-5.64 10.03-5.64q5.733.001 8.423 3.125 2.685 3.129 2.687 9.094V0H26.22v-20.516c0-2.195-.446-3.78-1.328-4.75-.875-.968-2.29-1.453-4.235-1.453-2.375 0-4.23.774-5.562 2.313-1.336 1.531-2 3.953-2 7.265V0Zm0 0" style="stroke:none" transform="translate(624.899 266.871)"/><path d="M4.781 0v-33.125h7.985v4.875l.625.14c2.062-3.757 5.406-5.64 10.03-5.64q5.733.001 8.423 3.125 2.685 3.129 2.687 9.094V0H26.22v-20.516c0-2.195-.446-3.78-1.328-4.75-.875-.968-2.29-1.453-4.235-1.453-2.375 0-4.23.774-5.562 2.313-1.336 1.531-2 3.953-2 7.265V0Zm0 0" style="stroke:none" transform="translate(663.697 266.871)"/><path d="M32.734-14.687H11.438q.356 4.329 2.453 6.296c1.406 1.313 3.32 1.97 5.75 1.97q2.84.002 4.609-1.063 1.781-1.079 2.86-3.235h.64l5.516 3.547q-1.61 3.485-4.891 5.64Q25.106.626 19.641.626q-5.144 0-8.875-1.937Q7.027-3.264 5-7.125q-2.032-3.855-2.031-9.422-.001-5.637 2.125-9.515 2.138-3.873 5.765-5.782 3.638-1.905 8.172-1.906 7.03.002 10.766 3.719 3.75 3.72 3.75 10.937 0 2.612-.188 4.047Zm-7.156-5.376q-.11-3.777-1.75-5.5-1.643-1.734-4.797-1.734-6.299.002-7.406 7.235Zm0 0" style="stroke:none" transform="translate(702.495 266.871)"/><path d="M19.313.625q-4.815.001-8.516-1.984Q7.105-3.357 5.03-7.234 2.97-11.108 2.97-16.547q0-5.465 2.062-9.344 2.076-3.873 5.735-5.859 3.668-1.999 8.39-2 10.482 0 13.422 7.594l-5.703 4.078h-.625q-1.03-2.326-2.672-3.469-1.627-1.155-4.422-1.156c-2.398 0-4.265.836-5.61 2.5q-2.015 2.485-2.015 7.656 0 5.11 2.031 7.625 2.047 2.501 5.75 2.5 2.703 0 4.579-1.453 1.874-1.466 2.687-4.203l.625-.047 5.922 3.234q-1.267 4.206-4.672 6.86-3.41 2.658-9.14 2.656m0 0" style="stroke:none" transform="translate(738.5 266.871)"/><path d="m22.86-7.89 2.156 6.156Q23.656-.621 21.609 0C20.254.414 18.72.625 17 .625q-5.378 0-8.172-2.922-2.799-2.919-2.797-8.515v-15.735H.984v-6.61h5.047v-6.452l8.328-1.344v7.797h9.391v6.61h-9.39v15.14c0 1.636.335 2.828 1.015 3.578q1.013 1.125 2.969 1.125 2.216 0 3.875-1.188Zm0 0" style="stroke:none" transform="translate(772.643 266.871)"/><path d="M8.922-37.094c-1.5 0-2.727-.453-3.672-1.36q-1.406-1.357-1.406-3.53 0-2.123 1.406-3.485c.945-.914 2.172-1.375 3.672-1.375q1.5.001 2.672.64a4.55 4.55 0 0 1 1.812 1.72q.64 1.094.64 2.5 0 1.424-.64 2.53a4.46 4.46 0 0 1-1.812 1.735q-1.172.626-2.672.625M4.782 0v-33.125h8.312V0Zm0 0" style="stroke:none" transform="translate(798.378 266.871)"/><path d="M19.25.625q-4.862.001-8.547-1.984Q7.028-3.357 5-7.22q-2.032-3.855-2.031-9.328 0-5.465 2.031-9.344 2.029-3.873 5.703-5.859 3.685-1.999 8.547-2 4.857.001 8.531 2 3.684 1.986 5.735 5.86 2.046 3.877 2.047 9.343-.001 5.473-2.047 9.328-2.05 3.861-5.735 5.86Q24.107.626 19.25.625m0-7.047q7.718 0 7.719-10.125-.002-5.249-1.985-7.703Q23-26.701 19.25-26.703q-7.72.001-7.719 10.156c0 6.75 2.57 10.125 7.719 10.125m0 0" style="stroke:none" transform="translate(816.215 266.871)"/><path d="M4.781 0v-33.125h7.985v4.875l.625.14c2.062-3.757 5.406-5.64 10.03-5.64q5.733.001 8.423 3.125 2.685 3.129 2.687 9.094V0H26.22v-20.516c0-2.195-.446-3.78-1.328-4.75-.875-.968-2.29-1.453-4.235-1.453-2.375 0-4.23.774-5.562 2.313-1.336 1.531-2 3.953-2 7.265V0Zm0 0" style="stroke:none" transform="translate(854.713 266.871)"/><path d="M1.438-28.531c1.843-1 3.382-2.157 4.625-3.469q1.858-1.968 2.14-4.031-2.314-.094-3.625-1.407-1.312-1.325-1.312-3.437-.001-1.404.625-2.516a4.6 4.6 0 0 1 1.812-1.75q1.17-.656 2.703-.656 2.404 0 3.875 1.688 1.467 1.676 1.469 4.687-.001 5.018-2.656 8.594-2.66 3.563-7.219 6.14Zm13.812 0c1.844-1 3.383-2.157 4.625-3.469q1.858-1.968 2.14-4.031-2.313-.094-3.624-1.407-1.313-1.325-1.313-3.437-.001-1.404.625-2.516a4.6 4.6 0 0 1 1.813-1.75q1.17-.656 2.703-.656 2.402 0 3.875 1.688 1.466 1.676 1.468 4.687 0 5.018-2.656 8.594-2.66 3.563-7.218 6.14Zm0 0" style="stroke:none" transform="translate(893.51 266.871)"/></g><g clip-path="url(#c)"><g clip-path="url(#d)"><path d="M898.8 444.848h242.91v84.836H898.8Zm0 0" style="stroke:none;fill-rule:nonzero;fill:#737373;fill-opacity:1"/></g></g><g clip-path="url(#e)"><path d="M543.824 484.64v5.25h352.352v-5.25Zm0 0" style="stroke:none;fill-rule:nonzero;fill:url(#f)"/></g><path d="m17.502-7-14 10.5 14 10.5" style="fill:none;stroke-width:7;stroke-linecap:round;stroke-linejoin:round;stroke:url(#g);stroke-miterlimit:4" transform="matrix(.75 0 0 .75 541.198 484.64)"/><path d="m459.304-7 14 10.5-14 10.5" style="fill:none;stroke-width:7;stroke-linecap:round;stroke-linejoin:round;stroke:url(#h);stroke-miterlimit:4" transform="matrix(.75 0 0 .75 541.198 484.64)"/></svg>