<svg xmlns="http://www.w3.org/2000/svg" width="1920" height="1080" version="1.2" viewBox="0 0 1440 810"><defs><clipPath id="a"><path d="M137.012 110.578h186.593v124.395H137.012Zm0 0"/></clipPath><clipPath id="b"><path d="M152.762 110.578h154.933c8.7 0 15.75 7.05 15.75 15.75v92.895c0 8.699-7.05 15.75-15.75 15.75H152.762c-8.7 0-15.75-7.051-15.75-15.75v-92.895c0-8.7 7.05-15.75 15.75-15.75m0 0"/></clipPath><clipPath id="e"><path d="M15.395 14.766h537.562v271.968H15.395Zm0 0"/></clipPath><clipPath id="f"><path d="M53.645 14.766h460.71a38.253 38.253 0 0 1 38.25 38.25v195.468a38.24 38.24 0 0 1-11.203 27.047 38.24 38.24 0 0 1-27.047 11.203H53.645a38.24 38.24 0 0 1-27.047-11.203 38.24 38.24 0 0 1-11.203-27.047V53.016a38.253 38.253 0 0 1 38.25-38.25m0 0"/></clipPath><clipPath id="g"><path d="M15.402 14.766h536.993V287H15.402Zm0 0"/></clipPath><clipPath id="h"><path d="M53.637 14.766h460.511A38.24 38.24 0 0 1 552.383 53v195.383a38.22 38.22 0 0 1-11.2 27.035 38.22 38.22 0 0 1-27.035 11.2H53.637a38.22 38.22 0 0 1-27.035-11.2 38.22 38.22 0 0 1-11.2-27.035V53a38.239 38.239 0 0 1 38.234-38.234m0 0"/></clipPath><clipPath id="d"><path d="M0 0h568v300H0z"/></clipPath><clipPath id="j"><path d="M492.781 371.379h60.555v30.394H492.78Zm0 0"/></clipPath><clipPath id="k"><path d="M503.281 371.379h39.516c5.797 0 10.5 4.7 10.5 10.5v9.394c0 5.801-4.703 10.5-10.5 10.5H503.28c-5.8 0-10.5-4.699-10.5-10.5v-9.394c0-5.8 4.7-10.5 10.5-10.5m0 0"/></clipPath><clipPath id="l"><path d="M804.98 371.379h60.551v30.394h-60.55Zm0 0"/></clipPath><clipPath id="m"><path d="M815.48 371.379h39.512c5.801 0 10.5 4.7 10.5 10.5v9.394c0 5.801-4.699 10.5-10.5 10.5H815.48c-5.8 0-10.5-4.699-10.5-10.5v-9.394c0-5.8 4.7-10.5 10.5-10.5m0 0"/></clipPath><clipPath id="n"><path d="M648.879 371.379h60.555v30.394h-60.555Zm0 0"/></clipPath><clipPath id="o"><path d="M659.379 371.379h39.516c5.8 0 10.5 4.7 10.5 10.5v9.394c0 5.801-4.7 10.5-10.5 10.5h-39.516c-5.797 0-10.5-4.699-10.5-10.5v-9.394c0-5.8 4.703-10.5 10.5-10.5m0 0"/></clipPath><clipPath id="p"><path d="M542.84 439.89h43.793v18.173H542.84Zm0 0"/></clipPath><clipPath id="q"><path d="M551.926 439.89h25.61c2.41 0 4.718.958 6.421 2.665a9.07 9.07 0 0 1 2.664 6.422c0 2.41-.957 4.718-2.664 6.425a9.08 9.08 0 0 1-6.422 2.66h-25.61a9.1 9.1 0 0 1-6.425-2.66 9.1 9.1 0 0 1-2.66-6.425 9.08 9.08 0 0 1 2.66-6.422 9.08 9.08 0 0 1 6.426-2.664m0 0"/></clipPath><clipPath id="r"><path d="M542.84 463.027h43.793v18.168H542.84Zm0 0"/></clipPath><clipPath id="s"><path d="M551.926 463.027h25.61a9.08 9.08 0 0 1 6.421 2.66 9.076 9.076 0 0 1 0 12.848 9.08 9.08 0 0 1-6.422 2.66h-25.61a9.1 9.1 0 0 1-6.425-2.66 9.09 9.09 0 0 1 0-12.848 9.1 9.1 0 0 1 6.426-2.66m0 0"/></clipPath><clipPath id="t"><path d="M542.84 486.914h43.793v18.168H542.84Zm0 0"/></clipPath><clipPath id="u"><path d="M551.926 486.914h25.61a9.08 9.08 0 0 1 6.421 2.66 9.076 9.076 0 0 1 0 12.848 9.08 9.08 0 0 1-6.422 2.66h-25.61a9.086 9.086 0 0 1 0-18.168m0 0"/></clipPath><clipPath id="v"><path d="M542.84 511.059h43.793v18.171H542.84Zm0 0"/></clipPath><clipPath id="w"><path d="M551.926 511.059h25.61c2.41 0 4.718.957 6.421 2.664a9.07 9.07 0 0 1 2.664 6.422c0 2.41-.957 4.718-2.664 6.425a9.08 9.08 0 0 1-6.422 2.66h-25.61a9.1 9.1 0 0 1-6.425-2.66 9.1 9.1 0 0 1-2.66-6.425 9.08 9.08 0 0 1 2.66-6.422 9.08 9.08 0 0 1 6.426-2.664m0 0"/></clipPath><clipPath id="x"><path d="M542.84 534.95h43.793v18.167H542.84Zm0 0"/></clipPath><clipPath id="y"><path d="M551.926 534.95h25.61a9.08 9.08 0 0 1 6.421 2.66 9.074 9.074 0 0 1 0 12.847 9.08 9.08 0 0 1-6.422 2.66h-25.61a9.1 9.1 0 0 1-6.425-2.66 9.09 9.09 0 0 1 0-12.848 9.1 9.1 0 0 1 6.426-2.66m0 0"/></clipPath><clipPath id="z"><path d="M699.844 439.387h43.789v18.168h-43.79Zm0 0"/></clipPath><clipPath id="A"><path d="M708.93 439.387h25.61a9.08 9.08 0 0 1 6.42 2.66 9.074 9.074 0 0 1 0 12.848 9.08 9.08 0 0 1-6.42 2.66h-25.61a9.1 9.1 0 0 1-6.426-2.66 9.09 9.09 0 0 1 0-12.848 9.1 9.1 0 0 1 6.426-2.66m0 0"/></clipPath><clipPath id="B"><path d="M699.844 462.52h43.789v18.168h-43.79Zm0 0"/></clipPath><clipPath id="C"><path d="M708.93 462.52h25.61a9.08 9.08 0 0 1 6.42 2.66 9.076 9.076 0 0 1 0 12.847 9.08 9.08 0 0 1-6.42 2.66h-25.61a9.086 9.086 0 0 1 0-18.168m0 0"/></clipPath><clipPath id="D"><path d="M699.844 486.406h43.789v18.172h-43.79Zm0 0"/></clipPath><clipPath id="E"><path d="M708.93 486.406h25.61a9.08 9.08 0 0 1 6.42 2.66 9.08 9.08 0 0 1 2.665 6.426c0 2.41-.957 4.719-2.664 6.422a9.07 9.07 0 0 1-6.422 2.664h-25.61a9.08 9.08 0 0 1-6.425-2.664 9.08 9.08 0 0 1-2.66-6.422c0-2.41.957-4.719 2.66-6.426a9.1 9.1 0 0 1 6.426-2.66m0 0"/></clipPath><clipPath id="F"><path d="M699.844 510.555h43.789v18.168h-43.79Zm0 0"/></clipPath><clipPath id="G"><path d="M708.93 510.555h25.61a9.08 9.08 0 0 1 6.42 2.66 9.074 9.074 0 0 1 0 12.847 9.08 9.08 0 0 1-6.42 2.66h-25.61a9.1 9.1 0 0 1-6.426-2.66 9.09 9.09 0 0 1 0-12.847 9.1 9.1 0 0 1 6.426-2.66m0 0"/></clipPath><clipPath id="H"><path d="M699.844 534.441h43.789v18.168h-43.79Zm0 0"/></clipPath><clipPath id="I"><path d="M708.93 534.441h25.61a9.08 9.08 0 0 1 6.42 2.66 9.076 9.076 0 0 1 0 12.848 9.08 9.08 0 0 1-6.42 2.66h-25.61a9.08 9.08 0 0 1-9.086-9.082c0-2.41.957-4.722 2.66-6.425a9.1 9.1 0 0 1 6.426-2.66m0 0"/></clipPath><clipPath id="J"><path d="M857.156 439.89h43.793v18.173h-43.793Zm0 0"/></clipPath><clipPath id="K"><path d="M866.242 439.89h25.61c2.41 0 4.722.958 6.425 2.665a9.08 9.08 0 0 1 2.66 6.422c0 2.41-.957 4.718-2.66 6.425a9.1 9.1 0 0 1-6.425 2.66h-25.61a9.08 9.08 0 0 1-6.422-2.66 9.08 9.08 0 0 1-2.664-6.425c0-2.41.957-4.72 2.664-6.422a9.07 9.07 0 0 1 6.422-2.664m0 0"/></clipPath><clipPath id="L"><path d="M857.156 463.027h43.793v18.168h-43.793Zm0 0"/></clipPath><clipPath id="M"><path d="M866.242 463.027h25.61a9.08 9.08 0 0 1 9.086 9.082c0 2.41-.958 4.723-2.66 6.426a9.1 9.1 0 0 1-6.426 2.66h-25.61a9.08 9.08 0 0 1-6.422-2.66 9.076 9.076 0 0 1 0-12.848 9.08 9.08 0 0 1 6.422-2.66m0 0"/></clipPath><clipPath id="N"><path d="M857.156 486.914h43.793v18.168h-43.793Zm0 0"/></clipPath><clipPath id="O"><path d="M866.242 486.914h25.61c2.41 0 4.722.957 6.425 2.66a9.09 9.09 0 0 1 0 12.848 9.1 9.1 0 0 1-6.425 2.66h-25.61a9.08 9.08 0 0 1-6.422-2.66 9.074 9.074 0 0 1 0-12.848 9.08 9.08 0 0 1 6.422-2.66m0 0"/></clipPath><clipPath id="P"><path d="M857.156 511.059h43.793v18.171h-43.793Zm0 0"/></clipPath><clipPath id="Q"><path d="M866.242 511.059h25.61c2.41 0 4.722.957 6.425 2.664a9.08 9.08 0 0 1 2.66 6.422c0 2.41-.957 4.718-2.66 6.425a9.1 9.1 0 0 1-6.425 2.66h-25.61a9.08 9.08 0 0 1-6.422-2.66 9.08 9.08 0 0 1-2.664-6.425c0-2.41.957-4.72 2.664-6.422a9.07 9.07 0 0 1 6.422-2.664m0 0"/></clipPath><clipPath id="R"><path d="M857.156 534.95h43.793v18.167h-43.793Zm0 0"/></clipPath><clipPath id="S"><path d="M866.242 534.95h25.61c2.41 0 4.722.956 6.425 2.66a9.086 9.086 0 0 1-6.425 15.507h-25.61a9.08 9.08 0 0 1-6.422-2.66 9.076 9.076 0 0 1 0-12.848 9.08 9.08 0 0 1 6.422-2.66m0 0"/></clipPath><filter id="i" width="100%" height="100%" x="0%" y="0%" filterUnits="objectBoundingBox"><feColorMatrix in="SourceGraphic" values="0 0 0 0 1 0 0 0 0 1 0 0 0 0 1 0 0 0 1 0"/></filter></defs><path d="M0 0h1440v810H0z" style="fill:#fff;fill-opacity:1;stroke:none"/><path d="M0 0h1440v810H0z" style="fill:#0f0f2e;fill-opacity:1;stroke:none"/><g style="fill:#fff;fill-opacity:1"><path d="M4.75-20.922c.695.074 1.266.344 1.703.813.445.468.672 1.054.672 1.75q-.001 1.159-.734 1.937a2.41 2.41 0 0 1-1.813.766q-1.236 0-2.016-.89-.766-.905-.765-2.642-.002-3.387 2.375-5.937.434-.469 1.016-.469.497 0 .906.375.422.376.422.875 0 .44-.36.828-1.077 1.16-1.406 2.594m6.906 0q1.046.11 1.703.813.67.704.672 1.75-.001 1.159-.734 1.937a2.41 2.41 0 0 1-1.813.766q-1.236 0-2.015-.89-.767-.905-.766-2.642-.001-3.387 2.375-5.937.435-.469 1.016-.469.497 0 .906.375.422.376.422.875 0 .44-.36.828-1.077 1.16-1.406 2.594m0 0" style="stroke:none" transform="translate(386.596 182.39)"/></g><g style="fill:#fff;fill-opacity:1"><path d="M5.047.219q-1.05-.001-1.688-.64-.626-.656-.625-1.704V-23.25q-.001-1.044.625-1.672.64-.64 1.688-.64 1.077 0 1.703.64c.414.418.625.977.625 1.672v21.125Q7.374-1.076 6.75-.422q-.626.64-1.703.64m0 0" style="stroke:none" transform="translate(402.436 182.39)"/></g><g style="fill:#fff;fill-opacity:1"><path d="M17.031-25.562q.996.002 1.64.578.657.578.657 1.515v21.532q0 .973-.61 1.546-.609.58-1.624.579-1 0-1.61-.579-.609-.574-.609-1.546v-.907a5.66 5.66 0 0 1-2.297 2.297q-1.487.827-3.39.828-2.284 0-4.063-1.14-1.781-1.156-2.766-3.266-.984-2.108-.984-4.844 0-2.73.984-4.781c.657-1.363 1.57-2.414 2.75-3.156q1.764-1.125 4.079-1.125 1.904 0 3.374.797a5.4 5.4 0 0 1 2.266 2.218v-8.53c0-.595.195-1.079.594-1.454q.59-.562 1.61-.562M10.375-3.203q2.157.001 3.328-1.469 1.172-1.482 1.172-4.219 0-2.732-1.172-4.187c-.781-.977-1.883-1.469-3.297-1.469q-2.157 0-3.344 1.453-1.187 1.442-1.187 4.125 0 2.737 1.188 4.25 1.184 1.517 3.312 1.516m0 0" style="stroke:none" transform="translate(412.552 182.39)"/></g><g style="fill:#fff;fill-opacity:1"><path d="M16.266-4.828q.623 0 1 .469.375.468.375 1.265c0 .742-.446 1.367-1.328 1.875q-1.236.674-2.782 1.094-1.546.406-2.953.406-4.235 0-6.719-2.437-2.484-2.45-2.484-6.703 0-2.701 1.078-4.782 1.077-2.091 3.031-3.234 1.969-1.155 4.454-1.156 2.372.002 4.14 1.047 1.763 1.031 2.735 2.953c.644 1.273.968 2.765.968 4.484q0 1.564-1.36 1.563H5.798q.216 2.47 1.406 3.64 1.186 1.172 3.453 1.172 1.154 0 2.031-.281.889-.293 2-.797c.72-.383 1.243-.578 1.579-.578m-6.22-10.047q-1.846.001-2.937 1.156c-.73.774-1.168 1.875-1.312 3.313h8.14q-.08-2.186-1.093-3.328c-.668-.758-1.602-1.141-2.797-1.141m0 0" style="stroke:none" transform="translate(434.188 182.39)"/></g><g style="fill:#fff;fill-opacity:1"><path d="M9.969-18.031q3.67 0 5.453 1.812 1.78 1.817 1.781 5.532v8.78c0 .65-.195 1.157-.578 1.532q-.563.563-1.578.563-.939 0-1.531-.579c-.399-.382-.594-.89-.594-1.515v-.797A4.7 4.7 0 0 1 11-.5Q9.688.28 7.953.281C6.773.281 5.707.04 4.75-.437q-1.44-.715-2.266-1.97a5 5 0 0 1-.828-2.812q0-1.933.985-3.047c.664-.75 1.738-1.289 3.218-1.625q2.234-.515 6.172-.515h.89v-.828q-.002-1.765-.765-2.563-.75-.81-2.437-.812-1.048 0-2.125.312-1.08.3-2.547.875c-.625.313-1.086.469-1.375.469-.43 0-.781-.156-1.063-.469q-.408-.468-.406-1.234 0-.608.297-1.047.31-.45 1.031-.86 1.248-.685 3-1.078a16 16 0 0 1 3.438-.39M8.859-2.953q1.796.002 2.922-1.203 1.139-1.2 1.14-3.11v-.765h-.64q-2.426 0-3.75.219-1.33.221-1.906.765-.58.533-.578 1.469 0 1.159.812 1.89c.54.493 1.207.735 2 .735m0 0" style="stroke:none" transform="translate(453.304 182.39)"/></g><g style="fill:#fff;fill-opacity:1"><path d="M8.719.281q-3.94 0-6.344-1.547-1.158-.67-1.156-1.937 0-.715.39-1.172.405-.452.985-.453.61.002 1.687.578 1.155.55 2.11.844.95.28 2.422.281 1.512.002 2.359-.5c.57-.344.86-.816.86-1.422 0-.406-.118-.726-.344-.969q-.345-.357-1.235-.656-.878-.31-2.672-.703-3.205-.654-4.593-1.844c-.93-.789-1.391-1.879-1.391-3.265q0-1.594.937-2.86c.625-.851 1.485-1.515 2.579-1.984q1.64-.703 3.718-.703c1.008 0 1.985.125 2.922.375a8.8 8.8 0 0 1 2.516 1.093q1.156.723 1.156 1.907-.001.72-.406 1.219-.394.485-.969.484-.392.001-.766-.156-.377-.172-.953-.5-1.05-.528-1.812-.797-.75-.282-1.86-.281-1.33 0-2.109.546-.783.532-.781 1.47 0 .907.797 1.374.795.456 3.062.922c1.602.344 2.86.734 3.766 1.172q1.37.644 1.969 1.61.592.972.593 2.484c0 1.636-.68 2.945-2.031 3.922Q12.093.282 8.719.28m0 0" style="stroke:none" transform="translate(472.744 182.39)"/></g><g style="fill:#fff;fill-opacity:1"><path d="M8.719.281q-3.94 0-6.344-1.547-1.158-.67-1.156-1.937 0-.715.39-1.172.405-.452.985-.453.61.002 1.687.578 1.155.55 2.11.844.95.28 2.422.281 1.512.002 2.359-.5c.57-.344.86-.816.86-1.422 0-.406-.118-.726-.344-.969q-.345-.357-1.235-.656-.878-.31-2.672-.703-3.205-.654-4.593-1.844c-.93-.789-1.391-1.879-1.391-3.265q0-1.594.937-2.86c.625-.851 1.485-1.515 2.579-1.984q1.64-.703 3.718-.703c1.008 0 1.985.125 2.922.375a8.8 8.8 0 0 1 2.516 1.093q1.156.723 1.156 1.907-.001.72-.406 1.219-.394.485-.969.484-.392.001-.766-.156-.377-.172-.953-.5-1.05-.528-1.812-.797-.75-.282-1.86-.281-1.33 0-2.109.546-.783.532-.781 1.47 0 .907.797 1.374.795.456 3.062.922c1.602.344 2.86.734 3.766 1.172q1.37.644 1.969 1.61.592.972.593 2.484c0 1.636-.68 2.945-2.031 3.922Q12.093.282 8.719.28m0 0" style="stroke:none" transform="translate(499.96 182.39)"/></g><g style="fill:#fff;fill-opacity:1"><path d="M11.484-3.125q1.796.096 1.797 1.61 0 .877-.703 1.328-.704.434-2 .375L9.61.109C5.58-.18 3.563-2.344 3.563-6.375v-7.844H1.766q-.973 0-1.5-.422-.516-.433-.516-1.265 0-.826.516-1.266.527-.435 1.5-.437h1.797v-3.313q0-.966.609-1.547.608-.576 1.656-.578 1.015.002 1.625.578.61.58.61 1.547v3.313h3.062q.968.002 1.484.437c.352.293.532.715.532 1.266q-.002.831-.532 1.265-.516.423-1.484.422H8.063v8.172c0 1.774.816 2.719 2.453 2.844Zm0 0" style="stroke:none" transform="translate(517.42 182.39)"/></g><g style="fill:#fff;fill-opacity:1"><path d="M9.969-18.031q3.67 0 5.453 1.812 1.78 1.817 1.781 5.532v8.78c0 .65-.195 1.157-.578 1.532q-.563.563-1.578.563-.939 0-1.531-.579c-.399-.382-.594-.89-.594-1.515v-.797A4.7 4.7 0 0 1 11-.5Q9.688.28 7.953.281C6.773.281 5.707.04 4.75-.437q-1.44-.715-2.266-1.97a5 5 0 0 1-.828-2.812q0-1.933.985-3.047c.664-.75 1.738-1.289 3.218-1.625q2.234-.515 6.172-.515h.89v-.828q-.002-1.765-.765-2.563-.75-.81-2.437-.812-1.048 0-2.125.312-1.08.3-2.547.875c-.625.313-1.086.469-1.375.469-.43 0-.781-.156-1.063-.469q-.408-.468-.406-1.234 0-.608.297-1.047.31-.45 1.031-.86 1.248-.685 3-1.078a16 16 0 0 1 3.438-.39M8.859-2.953q1.796.002 2.922-1.203 1.139-1.2 1.14-3.11v-.765h-.64q-2.426 0-3.75.219-1.33.221-1.906.765-.58.533-.578 1.469 0 1.159.812 1.89c.54.493 1.207.735 2 .735m0 0" style="stroke:none" transform="translate(530.704 182.39)"/></g><g style="fill:#fff;fill-opacity:1"><path d="M14.61-16.672q.293-.639.78-.937.481-.312 1.063-.313.827 0 1.485.563.67.55.671 1.375-.001.393-.218.828L8.563 5.438q-.61 1.218-1.907 1.218a2.18 2.18 0 0 1-1.453-.531q-.626-.516-.625-1.297 0-.409.203-.906l2.453-5.14L.547-15.157a1.76 1.76 0 0 1-.188-.828q0-.826.704-1.407c.468-.382 1-.578 1.593-.578q.622.001 1.125.313.498.297.797.953L9.61-5.578Zm0 0" style="stroke:none" transform="translate(550.144 182.39)"/></g><g style="fill:#fff;fill-opacity:1"><path d="M4.578.219q-.986 0-1.61-.563t-.624-1.594v-13.906q-.001-1.043.625-1.578.623-.546 1.61-.547.965.001 1.609.547.656.535.656 1.578v13.907q0 1.03-.657 1.593Q5.545.22 4.579.22m-.016-21.39q-1.22 0-1.937-.657-.72-.67-.719-1.75 0-1.077.719-1.719.717-.656 1.938-.656 1.184 0 1.921.656c.5.43.75 1 .75 1.719q-.002 1.08-.718 1.75-.722.656-1.953.656m0 0" style="stroke:none" transform="translate(578.836 182.39)"/></g><g style="fill:#fff;fill-opacity:1"><path d="M17.031-25.562q.996.002 1.64.578.657.578.657 1.515v21.532q0 .973-.61 1.546-.609.58-1.624.579-1 0-1.61-.579-.609-.574-.609-1.546v-.907a5.66 5.66 0 0 1-2.297 2.297q-1.487.827-3.39.828-2.284 0-4.063-1.14-1.781-1.156-2.766-3.266-.984-2.108-.984-4.844 0-2.73.984-4.781c.657-1.363 1.57-2.414 2.75-3.156q1.764-1.125 4.079-1.125 1.904 0 3.374.797a5.4 5.4 0 0 1 2.266 2.218v-8.53c0-.595.195-1.079.594-1.454q.59-.562 1.61-.562M10.375-3.203q2.157.001 3.328-1.469 1.172-1.482 1.172-4.219 0-2.732-1.172-4.187c-.781-.977-1.883-1.469-3.297-1.469q-2.157 0-3.344 1.453-1.187 1.442-1.187 4.125 0 2.737 1.188 4.25 1.184 1.517 3.312 1.516m0 0" style="stroke:none" transform="translate(587.98 182.39)"/></g><g style="fill:#fff;fill-opacity:1"><path d="M16.266-4.828q.623 0 1 .469.375.468.375 1.265c0 .742-.446 1.367-1.328 1.875q-1.236.674-2.782 1.094-1.546.406-2.953.406-4.235 0-6.719-2.437-2.484-2.45-2.484-6.703 0-2.701 1.078-4.782 1.077-2.091 3.031-3.234 1.969-1.155 4.454-1.156 2.372.002 4.14 1.047 1.763 1.031 2.735 2.953c.644 1.273.968 2.765.968 4.484q0 1.564-1.36 1.563H5.798q.216 2.47 1.406 3.64 1.186 1.172 3.453 1.172 1.154 0 2.031-.281.889-.293 2-.797c.72-.383 1.243-.578 1.579-.578m-6.22-10.047q-1.846.001-2.937 1.156c-.73.774-1.168 1.875-1.312 3.313h8.14q-.08-2.186-1.093-3.328c-.668-.758-1.602-1.141-2.797-1.141m0 0" style="stroke:none" transform="translate(609.616 182.39)"/></g><g style="fill:#fff;fill-opacity:1"><path d="M9.969-18.031q3.67 0 5.453 1.812 1.78 1.817 1.781 5.532v8.78c0 .65-.195 1.157-.578 1.532q-.563.563-1.578.563-.939 0-1.531-.579c-.399-.382-.594-.89-.594-1.515v-.797A4.7 4.7 0 0 1 11-.5Q9.688.28 7.953.281C6.773.281 5.707.04 4.75-.437q-1.44-.715-2.266-1.97a5 5 0 0 1-.828-2.812q0-1.933.985-3.047c.664-.75 1.738-1.289 3.218-1.625q2.234-.515 6.172-.515h.89v-.828q-.002-1.765-.765-2.563-.75-.81-2.437-.812-1.048 0-2.125.312-1.08.3-2.547.875c-.625.313-1.086.469-1.375.469-.43 0-.781-.156-1.063-.469q-.408-.468-.406-1.234 0-.608.297-1.047.31-.45 1.031-.86 1.248-.685 3-1.078a16 16 0 0 1 3.438-.39M8.859-2.953q1.796.002 2.922-1.203 1.139-1.2 1.14-3.11v-.765h-.64q-2.426 0-3.75.219-1.33.221-1.906.765-.58.533-.578 1.469 0 1.159.812 1.89c.54.493 1.207.735 2 .735m0 0" style="stroke:none" transform="translate(628.732 182.39)"/></g><g style="fill:#fff;fill-opacity:1"><path d="M8.719.281q-3.94 0-6.344-1.547-1.158-.67-1.156-1.937 0-.715.39-1.172.405-.452.985-.453.61.002 1.687.578 1.155.55 2.11.844.95.28 2.422.281 1.512.002 2.359-.5c.57-.344.86-.816.86-1.422 0-.406-.118-.726-.344-.969q-.345-.357-1.235-.656-.878-.31-2.672-.703-3.205-.654-4.593-1.844c-.93-.789-1.391-1.879-1.391-3.265q0-1.594.937-2.86c.625-.851 1.485-1.515 2.579-1.984q1.64-.703 3.718-.703c1.008 0 1.985.125 2.922.375a8.8 8.8 0 0 1 2.516 1.093q1.156.723 1.156 1.907-.001.72-.406 1.219-.394.485-.969.484-.392.001-.766-.156-.377-.172-.953-.5-1.05-.528-1.812-.797-.75-.282-1.86-.281-1.33 0-2.109.546-.783.532-.781 1.47 0 .907.797 1.374.795.456 3.062.922c1.602.344 2.86.734 3.766 1.172q1.37.644 1.969 1.61.592.972.593 2.484c0 1.636-.68 2.945-2.031 3.922Q12.093.282 8.719.28m0 0" style="stroke:none" transform="translate(648.172 182.39)"/></g><g style="fill:#fff;fill-opacity:1"><path d="M4.39-25.562q1.22.002 1.97.906c.507.593.765 1.468.765 2.625q-.001 3.393-2.375 5.937-.439.47-1 .469-.516 0-.937-.375a1.16 1.16 0 0 1-.407-.89c0-.282.117-.555.36-.829q1.09-1.137 1.406-2.578c-.7-.07-1.274-.344-1.719-.812q-.656-.703-.656-1.75c0-.77.242-1.41.734-1.922.5-.52 1.117-.782 1.86-.782m6.907 0q1.218.002 1.969.906c.507.593.765 1.468.765 2.625q-.001 3.393-2.375 5.937-.438.47-1 .469-.516 0-.937-.375a1.16 1.16 0 0 1-.406-.89c0-.282.117-.555.359-.829q1.09-1.137 1.406-2.578c-.7-.07-1.273-.344-1.719-.812q-.656-.703-.656-1.75c0-.77.242-1.41.735-1.922q.748-.781 1.859-.782m0 0" style="stroke:none" transform="translate(665.632 182.39)"/></g><g style="fill:#fff;fill-opacity:1"><path d="M1.734-8.281c-.53 0-.953-.117-1.265-.36A1.16 1.16 0 0 1 0-9.609c0-.407.156-.727.469-.97q.468-.357 1.265-.358h32.532q.796 0 1.265.359c.313.242.469.562.469.969q0 .61-.469.968c-.312.243-.734.36-1.265.36Zm0 0" style="stroke:none" transform="translate(691.228 182.39)"/></g><g style="fill:#fff;fill-opacity:1"><path d="M11.484-3.125q1.796.096 1.797 1.61 0 .877-.703 1.328-.704.434-2 .375L9.61.109C5.58-.18 3.563-2.344 3.563-6.375v-7.844H1.766q-.973 0-1.5-.422-.516-.433-.516-1.265 0-.826.516-1.266.527-.435 1.5-.437h1.797v-3.313q0-.966.609-1.547.608-.576 1.656-.578 1.015.002 1.625.578.61.58.61 1.547v3.313h3.062q.968.002 1.484.437c.352.293.532.715.532 1.266q-.002.831-.532 1.265-.516.423-1.484.422H8.063v8.172c0 1.774.816 2.719 2.453 2.844Zm0 0" style="stroke:none" transform="translate(736.985 182.39)"/></g><g style="fill:#fff;fill-opacity:1"><path d="M12.64-18.031q6.188.002 6.188 7.234v8.86q-.002 1.002-.594 1.578c-.398.382-.945.578-1.64.578-.7 0-1.25-.196-1.657-.578q-.609-.575-.609-1.578v-8.86q-.001-1.904-.781-2.781-.768-.89-2.422-.89-1.938 0-3.11 1.218-1.17 1.219-1.171 3.281v8.031c0 .668-.211 1.196-.625 1.579-.407.382-.953.578-1.64.578-.7 0-1.247-.196-1.641-.578-.399-.383-.594-.91-.594-1.578V-23.47q-.001-.937.625-1.515.62-.576 1.64-.578c.664 0 1.204.183 1.61.546.414.356.625.844.625 1.47v8.39a5.8 5.8 0 0 1 2.39-2.14q1.498-.735 3.407-.735m0 0" style="stroke:none" transform="translate(750.269 182.39)"/></g><g style="fill:#fff;fill-opacity:1"><path d="M16.266-4.828q.623 0 1 .469.375.468.375 1.265c0 .742-.446 1.367-1.328 1.875q-1.236.674-2.782 1.094-1.546.406-2.953.406-4.235 0-6.719-2.437-2.484-2.45-2.484-6.703 0-2.701 1.078-4.782 1.077-2.091 3.031-3.234 1.969-1.155 4.454-1.156 2.372.002 4.14 1.047 1.763 1.031 2.735 2.953c.644 1.273.968 2.765.968 4.484q0 1.564-1.36 1.563H5.798q.216 2.47 1.406 3.64 1.186 1.172 3.453 1.172 1.154 0 2.031-.281.889-.293 2-.797c.72-.383 1.243-.578 1.579-.578m-6.22-10.047q-1.846.001-2.937 1.156c-.73.774-1.168 1.875-1.312 3.313h8.14q-.08-2.186-1.093-3.328c-.668-.758-1.602-1.141-2.797-1.141m0 0" style="stroke:none" transform="translate(771.329 182.39)"/></g><g style="fill:#fff;fill-opacity:1"><path d="M14.61-16.672q.293-.639.78-.937.481-.312 1.063-.313.827 0 1.485.563.67.55.671 1.375-.001.393-.218.828L8.563 5.438q-.61 1.218-1.907 1.218a2.18 2.18 0 0 1-1.453-.531q-.626-.516-.625-1.297 0-.409.203-.906l2.453-5.14L.547-15.157a1.76 1.76 0 0 1-.188-.828q0-.826.704-1.407c.468-.382 1-.578 1.593-.578q.622.001 1.125.313.498.297.797.953L9.61-5.578Zm0 0" style="stroke:none" transform="translate(790.445 182.39)"/></g><g style="fill:#fff;fill-opacity:1"><path d="M17.031-25.562q.996.002 1.64.578.657.578.657 1.515v21.532q0 .973-.61 1.546-.609.58-1.624.579-1 0-1.61-.579-.609-.574-.609-1.546v-.907a5.66 5.66 0 0 1-2.297 2.297q-1.487.827-3.39.828-2.284 0-4.063-1.14-1.781-1.156-2.766-3.266-.984-2.108-.984-4.844 0-2.73.984-4.781c.657-1.363 1.57-2.414 2.75-3.156q1.764-1.125 4.079-1.125 1.904 0 3.374.797a5.4 5.4 0 0 1 2.266 2.218v-8.53c0-.595.195-1.079.594-1.454q.59-.562 1.61-.562M10.375-3.203q2.157.001 3.328-1.469 1.172-1.482 1.172-4.219 0-2.732-1.172-4.187c-.781-.977-1.883-1.469-3.297-1.469q-2.157 0-3.344 1.453-1.187 1.442-1.187 4.125 0 2.737 1.188 4.25 1.184 1.517 3.312 1.516m0 0" style="stroke:none" transform="translate(819.137 182.39)"/></g><g style="fill:#fff;fill-opacity:1"><path d="M10.375.281c-1.805 0-3.387-.367-4.75-1.11Q3.592-1.933 2.485-4.03c-.743-1.395-1.11-3.016-1.11-4.86 0-1.843.367-3.453 1.11-4.828a7.67 7.67 0 0 1 3.14-3.187q2.043-1.125 4.75-1.125 2.685 0 4.719 1.125a7.6 7.6 0 0 1 3.14 3.187q1.092 2.063 1.094 4.828-.002 2.767-1.094 4.86-1.095 2.097-3.14 3.203Q13.059.284 10.375.282m-.047-3.484q2.202.002 3.344-1.438 1.156-1.436 1.156-4.25-.001-2.765-1.156-4.218c-.762-.977-1.86-1.47-3.297-1.47-1.45 0-2.562.493-3.344 1.47q-1.158 1.453-1.156 4.218 0 2.814 1.14 4.25 1.156 1.44 3.313 1.438m0 0" style="stroke:none" transform="translate(840.773 182.39)"/></g><g style="fill:#fff;fill-opacity:1"><path d="M12.563-18.031q3.17.002 4.718 1.797 1.548 1.798 1.547 5.437v8.86q-.002 1.002-.594 1.578c-.398.382-.945.578-1.64.578-.7 0-1.25-.196-1.657-.578q-.609-.575-.609-1.578v-8.61q-.001-2.046-.781-2.984-.768-.938-2.422-.938-1.938 0-3.11 1.219-1.17 1.219-1.171 3.281v8.031c0 .668-.211 1.196-.625 1.579-.407.382-.953.578-1.64.578-.7 0-1.247-.196-1.641-.578-.399-.383-.594-.91-.594-1.578v-13.938q0-.937.61-1.516c.405-.382.956-.578 1.655-.578q.936 0 1.532.563.592.563.593 1.453v.984a5.94 5.94 0 0 1 2.407-2.265q1.51-.798 3.422-.797m0 0" style="stroke:none" transform="translate(861.473 182.39)"/></g><g style="fill:#fff;fill-opacity:1"><path d="M4.39-25.562q1.22.002 1.97.906c.507.593.765 1.468.765 2.625q-.001 3.393-2.375 5.937-.439.47-1 .469-.516 0-.937-.375a1.16 1.16 0 0 1-.407-.89c0-.282.117-.555.36-.829q1.09-1.137 1.406-2.578c-.7-.07-1.274-.344-1.719-.812q-.656-.703-.656-1.75c0-.77.242-1.41.734-1.922.5-.52 1.117-.782 1.86-.782m0 0" style="stroke:none" transform="translate(882.533 182.39)"/></g><g style="fill:#fff;fill-opacity:1"><path d="M11.484-3.125q1.796.096 1.797 1.61 0 .877-.703 1.328-.704.434-2 .375L9.61.109C5.58-.18 3.563-2.344 3.563-6.375v-7.844H1.766q-.973 0-1.5-.422-.516-.433-.516-1.265 0-.826.516-1.266.527-.435 1.5-.437h1.797v-3.313q0-.966.609-1.547.608-.576 1.656-.578 1.015.002 1.625.578.61.58.61 1.547v3.313h3.062q.968.002 1.484.437c.352.293.532.715.532 1.266q-.002.831-.532 1.265-.516.423-1.484.422H8.063v8.172c0 1.774.816 2.719 2.453 2.844Zm0 0" style="stroke:none" transform="translate(891.46 182.39)"/></g><g style="fill:#fff;fill-opacity:1"><path d="M12.453-18.031q2.31 0 4.063 1.125 1.764 1.112 2.75 3.156.998 2.05 1 4.781-.002 2.736-1 4.844-.985 2.11-2.766 3.266C15.313-.098 13.96.28 12.453.28q-1.908 0-3.406-.828a5.66 5.66 0 0 1-2.281-2.297v.906q0 .974-.61 1.547-.61.58-1.625.579-1.002 0-1.593-.579c-.399-.382-.594-.898-.594-1.546V-23.47q-.001-.937.625-1.515.62-.576 1.64-.578c.664 0 1.204.183 1.61.546.414.356.625.844.625 1.47v8.5a5.3 5.3 0 0 1 2.25-2.204q1.483-.78 3.36-.781M11.266-3.203q2.123.001 3.312-1.516 1.186-1.513 1.188-4.25 0-2.683-1.172-4.125-1.171-1.453-3.328-1.453-2.157.002-3.328 1.469-1.172 1.455-1.172 4.187 0 2.736 1.172 4.22 1.17 1.469 3.328 1.468m0 0" style="stroke:none" transform="translate(914.5 182.39)"/></g><g style="fill:#fff;fill-opacity:1"><path d="M16.266-4.828q.623 0 1 .469.375.468.375 1.265c0 .742-.446 1.367-1.328 1.875q-1.236.674-2.782 1.094-1.546.406-2.953.406-4.235 0-6.719-2.437-2.484-2.45-2.484-6.703 0-2.701 1.078-4.782 1.077-2.091 3.031-3.234 1.969-1.155 4.454-1.156 2.372.002 4.14 1.047 1.763 1.031 2.735 2.953c.644 1.273.968 2.765.968 4.484q0 1.564-1.36 1.563H5.798q.216 2.47 1.406 3.64 1.186 1.172 3.453 1.172 1.154 0 2.031-.281.889-.293 2-.797c.72-.383 1.243-.578 1.579-.578m-6.22-10.047q-1.846.001-2.937 1.156c-.73.774-1.168 1.875-1.312 3.313h8.14q-.08-2.186-1.093-3.328c-.668-.758-1.602-1.141-2.797-1.141m0 0" style="stroke:none" transform="translate(936.137 182.39)"/></g><g style="fill:#fff;fill-opacity:1"><path d="M10.156.281c-1.75 0-3.293-.367-4.625-1.11a7.5 7.5 0 0 1-3.078-3.155Q1.375-6.046 1.375-8.781c0-1.82.375-3.438 1.125-4.844q1.137-2.108 3.188-3.25 2.045-1.155 4.718-1.156c.938 0 1.88.133 2.828.39.946.262 1.782.621 2.5 1.078q1.156.769 1.157 1.907c0 .531-.133.96-.391 1.281q-.375.485-.984.484a2.2 2.2 0 0 1-.828-.171 7 7 0 0 1-.86-.438 10 10 0 0 0-1.515-.734q-.72-.282-1.657-.282c-1.492 0-2.636.493-3.437 1.47-.805.968-1.203 2.366-1.203 4.187 0 1.804.398 3.195 1.203 4.172q1.2 1.453 3.437 1.453c.602 0 1.133-.086 1.594-.266.469-.187.992-.437 1.578-.75q.529-.327.922-.484.405-.155.797-.157.575.001.969.5.406.504.406 1.266 0 .61-.281 1.063-.269.439-.875.796-1.113.72-2.594 1.141-1.47.406-3.016.406m0 0" style="stroke:none" transform="translate(955.253 182.39)"/></g><g style="fill:#fff;fill-opacity:1"><path d="M10.375.281c-1.805 0-3.387-.367-4.75-1.11Q3.592-1.933 2.485-4.03c-.743-1.395-1.11-3.016-1.11-4.86 0-1.843.367-3.453 1.11-4.828a7.67 7.67 0 0 1 3.14-3.187q2.043-1.125 4.75-1.125 2.685 0 4.719 1.125a7.6 7.6 0 0 1 3.14 3.187q1.092 2.063 1.094 4.828-.002 2.767-1.094 4.86-1.095 2.097-3.14 3.203Q13.059.284 10.375.282m-.047-3.484q2.202.002 3.344-1.438 1.156-1.436 1.156-4.25-.001-2.765-1.156-4.218c-.762-.977-1.86-1.47-3.297-1.47-1.45 0-2.562.493-3.344 1.47q-1.158 1.453-1.156 4.218 0 2.814 1.14 4.25 1.156 1.44 3.313 1.438m0 0" style="stroke:none" transform="translate(972.821 182.39)"/></g><g style="fill:#fff;fill-opacity:1"><path d="M23.25-18.031q2.887.001 4.422 1.718 1.53 1.707 1.531 5.516v8.86q-.001 1.03-.64 1.593-.627.563-1.641.563-.973 0-1.594-.563-.626-.562-.625-1.594v-8.859q0-1.982-.703-2.828-.705-.843-2.14-.844-1.77.002-2.813 1.203Q17.998-12.059 18-9.969v8.031q-.001 1.033-.64 1.594-.628.563-1.594.563c-.649 0-1.188-.188-1.625-.563q-.643-.562-.641-1.594v-8.859q0-1.982-.703-2.828-.705-.843-2.14-.844c-1.18 0-2.11.403-2.798 1.203-.68.805-1.015 1.903-1.015 3.297v8.031q0 1.033-.657 1.594Q5.545.22 4.579.22q-.986 0-1.61-.563t-.624-1.594v-13.937c0-.676.21-1.191.64-1.547.438-.363.977-.547 1.625-.547q.936.002 1.532.532.592.516.593 1.484v.875q.827-1.453 2.204-2.203 1.388-.75 3.187-.75 3.967 0 5.297 3.312.796-1.514 2.344-2.406 1.545-.904 3.484-.906m0 0" style="stroke:none" transform="translate(993.521 182.39)"/></g><g style="fill:#fff;fill-opacity:1"><path d="M16.266-4.828q.623 0 1 .469.375.468.375 1.265c0 .742-.446 1.367-1.328 1.875q-1.236.674-2.782 1.094-1.546.406-2.953.406-4.235 0-6.719-2.437-2.484-2.45-2.484-6.703 0-2.701 1.078-4.782 1.077-2.091 3.031-3.234 1.969-1.155 4.454-1.156 2.372.002 4.14 1.047 1.763 1.031 2.735 2.953c.644 1.273.968 2.765.968 4.484q0 1.564-1.36 1.563H5.798q.216 2.47 1.406 3.64 1.186 1.172 3.453 1.172 1.154 0 2.031-.281.889-.293 2-.797c.72-.383 1.243-.578 1.579-.578m-6.22-10.047q-1.846.001-2.937 1.156c-.73.774-1.168 1.875-1.312 3.313h8.14q-.08-2.186-1.093-3.328c-.668-.758-1.602-1.141-2.797-1.141m0 0" style="stroke:none" transform="translate(1024.95 182.39)"/></g><g style="fill:#fff;fill-opacity:1"><path d="M9.969-18.031q3.67 0 5.453 1.812 1.78 1.817 1.781 5.532v8.78c0 .65-.195 1.157-.578 1.532q-.563.563-1.578.563-.939 0-1.531-.579c-.399-.382-.594-.89-.594-1.515v-.797A4.7 4.7 0 0 1 11-.5Q9.688.28 7.953.281C6.773.281 5.707.04 4.75-.437q-1.44-.715-2.266-1.97a5 5 0 0 1-.828-2.812q0-1.933.985-3.047c.664-.75 1.738-1.289 3.218-1.625q2.234-.515 6.172-.515h.89v-.828q-.002-1.765-.765-2.563-.75-.81-2.437-.812-1.048 0-2.125.312-1.08.3-2.547.875c-.625.313-1.086.469-1.375.469-.43 0-.781-.156-1.063-.469q-.408-.468-.406-1.234 0-.608.297-1.047.31-.45 1.031-.86 1.248-.685 3-1.078a16 16 0 0 1 3.438-.39M8.859-2.953q1.796.002 2.922-1.203 1.139-1.2 1.14-3.11v-.765h-.64q-2.426 0-3.75.219-1.33.221-1.906.765-.58.533-.578 1.469 0 1.159.812 1.89c.54.493 1.207.735 2 .735m0 0" style="stroke:none" transform="translate(1053.821 182.39)"/></g><g style="fill:#fff;fill-opacity:1"><path d="M10.156.281c-1.75 0-3.293-.367-4.625-1.11a7.5 7.5 0 0 1-3.078-3.155Q1.375-6.046 1.375-8.781c0-1.82.375-3.438 1.125-4.844q1.137-2.108 3.188-3.25 2.045-1.155 4.718-1.156c.938 0 1.88.133 2.828.39.946.262 1.782.621 2.5 1.078q1.156.769 1.157 1.907c0 .531-.133.96-.391 1.281q-.375.485-.984.484a2.2 2.2 0 0 1-.828-.171 7 7 0 0 1-.86-.438 10 10 0 0 0-1.515-.734q-.72-.282-1.657-.282c-1.492 0-2.636.493-3.437 1.47-.805.968-1.203 2.366-1.203 4.187 0 1.804.398 3.195 1.203 4.172q1.2 1.453 3.437 1.453c.602 0 1.133-.086 1.594-.266.469-.187.992-.437 1.578-.75q.529-.327.922-.484.405-.155.797-.157.575.001.969.5.406.504.406 1.266 0 .61-.281 1.063-.269.439-.875.796-1.113.72-2.594 1.141-1.47.406-3.016.406m0 0" style="stroke:none" transform="translate(1073.261 182.39)"/></g><g style="fill:#fff;fill-opacity:1"><path d="M11.484-3.125q1.796.096 1.797 1.61 0 .877-.703 1.328-.704.434-2 .375L9.61.109C5.58-.18 3.563-2.344 3.563-6.375v-7.844H1.766q-.973 0-1.5-.422-.516-.433-.516-1.265 0-.826.516-1.266.527-.435 1.5-.437h1.797v-3.313q0-.966.609-1.547.608-.576 1.656-.578 1.015.002 1.625.578.61.58.61 1.547v3.313h3.062q.968.002 1.484.437c.352.293.532.715.532 1.266q-.002.831-.532 1.265-.516.423-1.484.422H8.063v8.172c0 1.774.816 2.719 2.453 2.844Zm0 0" style="stroke:none" transform="translate(1090.83 182.39)"/></g><g style="fill:#fff;fill-opacity:1"><path d="M4.578.219q-.986 0-1.61-.563t-.624-1.594v-13.906q-.001-1.043.625-1.578.623-.546 1.61-.547.965.001 1.609.547.656.535.656 1.578v13.907q0 1.03-.657 1.593Q5.545.22 4.579.22m-.016-21.39q-1.22 0-1.937-.657-.72-.67-.719-1.75 0-1.077.719-1.719.717-.656 1.938-.656 1.184 0 1.921.656c.5.43.75 1 .75 1.719q-.002 1.08-.718 1.75-.722.656-1.953.656m0 0" style="stroke:none" transform="translate(1104.113 182.39)"/></g><g style="fill:#fff;fill-opacity:1"><path d="M10.375.281c-1.805 0-3.387-.367-4.75-1.11Q3.592-1.933 2.485-4.03c-.743-1.395-1.11-3.016-1.11-4.86 0-1.843.367-3.453 1.11-4.828a7.67 7.67 0 0 1 3.14-3.187q2.043-1.125 4.75-1.125 2.685 0 4.719 1.125a7.6 7.6 0 0 1 3.14 3.187q1.092 2.063 1.094 4.828-.002 2.767-1.094 4.86-1.095 2.097-3.14 3.203Q13.059.284 10.375.282m-.047-3.484q2.202.002 3.344-1.438 1.156-1.436 1.156-4.25-.001-2.765-1.156-4.218c-.762-.977-1.86-1.47-3.297-1.47-1.45 0-2.562.493-3.344 1.47q-1.158 1.453-1.156 4.218 0 2.814 1.14 4.25 1.156 1.44 3.313 1.438m0 0" style="stroke:none" transform="translate(1113.257 182.39)"/></g><g style="fill:#fff;fill-opacity:1"><path d="M12.563-18.031q3.17.002 4.718 1.797 1.548 1.798 1.547 5.437v8.86q-.002 1.002-.594 1.578c-.398.382-.945.578-1.64.578-.7 0-1.25-.196-1.657-.578q-.609-.575-.609-1.578v-8.61q-.001-2.046-.781-2.984-.768-.938-2.422-.938-1.938 0-3.11 1.219-1.17 1.219-1.171 3.281v8.031c0 .668-.211 1.196-.625 1.579-.407.382-.953.578-1.64.578-.7 0-1.247-.196-1.641-.578-.399-.383-.594-.91-.594-1.578v-13.938q0-.937.61-1.516c.405-.382.956-.578 1.655-.578q.936 0 1.532.563.592.563.593 1.453v.984a5.94 5.94 0 0 1 2.407-2.265q1.51-.798 3.422-.797m0 0" style="stroke:none" transform="translate(1133.957 182.39)"/></g><g clip-path="url(#a)"><g clip-path="url(#b)"><path d="M137.012 110.578h186.593v124.395H137.012Zm0 0" style="stroke:none;fill-rule:nonzero;fill:#fff;fill-opacity:1"/></g></g><g style="fill:#000;fill-opacity:1"><path d="M7.719 0H3.03v-23.453H7.72Zm0 0" style="stroke:none" transform="translate(190.774 183.89)"/></g><g style="fill:#000;fill-opacity:1"><path d="M8.61-18.562q3.121.002 4.984 1.562c1.25 1.043 1.976 2.422 2.187 4.14h-4.703c-.312-1.738-1.242-2.609-2.781-2.609-.68 0-1.203.18-1.578.531q-.563.516-.563 1.407-.001 1.02.907 1.64.919.612 3.203 1.188 2.951.739 4.422 2.062 1.466 1.33 1.468 3.704-.001 2.626-2.093 4.015-2.097 1.39-5.36 1.39c-2.273 0-4.11-.491-5.515-1.484q-2.097-1.5-2.47-4.5h4.688q.264 1.44 1.172 2.172.903.72 2.188.719 1.2.002 1.922-.5.733-.515.734-1.469 0-1.044-.985-1.703-.984-.668-3.328-1.25Q4.355-8.234 2.891-9.5q-1.47-1.28-1.47-3.484-.001-2.59 1.954-4.078c1.313-1 3.055-1.5 5.234-1.5m0 0" style="stroke:none" transform="translate(200.7 183.89)"/></g><g style="fill:#000;fill-opacity:1"><path d="M8.61-18.562q3.121.002 4.984 1.562c1.25 1.043 1.976 2.422 2.187 4.14h-4.703c-.312-1.738-1.242-2.609-2.781-2.609-.68 0-1.203.18-1.578.531q-.563.516-.563 1.407-.001 1.02.907 1.64.919.612 3.203 1.188 2.951.739 4.422 2.062 1.466 1.33 1.468 3.704-.001 2.626-2.093 4.015-2.097 1.39-5.36 1.39c-2.273 0-4.11-.491-5.515-1.484q-2.097-1.5-2.47-4.5h4.688q.264 1.44 1.172 2.172.903.72 2.188.719 1.2.002 1.922-.5.733-.515.734-1.469 0-1.044-.985-1.703-.984-.668-3.328-1.25Q4.355-8.234 2.891-9.5q-1.47-1.28-1.47-3.484-.001-2.59 1.954-4.078c1.313-1 3.055-1.5 5.234-1.5m0 0" style="stroke:none" transform="translate(217.597 183.89)"/></g><g style="fill:#000;fill-opacity:1"><path d="M18.844-18.094V0H14.14v-3.062L12.75-.75Q10.904.47 8.39.469 5.72.468 4.032-.828 2.342-2.141 2-4.11q-.157-1.154-.156-3.297v-10.688H6.53v9.703q-.001 1.252.125 2.47.375 3.063 3.516 3.062 1.827.002 2.89-1.532 1.08-1.53 1.079-4.484v-9.219Zm0 0" style="stroke:none" transform="translate(234.493 183.89)"/></g><g style="fill:#000;fill-opacity:1"><path d="M18.563-9.422c0 .656-.024 1.195-.063 1.61H5.64q.404 4.985 4.188 4.984 1.53 0 2.531-.813c.664-.539 1.079-1.285 1.235-2.234h4.703c-.461 2.063-1.453 3.637-2.985 4.719C13.783-.07 11.915.469 9.72.469q-3.91.002-6.36-2.422Q.922-4.39.922-8.97q0-4.217 2.531-6.906 2.53-2.686 6.64-2.687c2.657 0 4.727.875 6.22 2.625q2.25 2.613 2.25 6.515M9.89-15.266c-2.336 0-3.703 1.465-4.11 4.391h7.953q-.468-4.39-3.843-4.39m0 0" style="stroke:none" transform="translate(255.502 183.89)"/></g><g mask="url(#c)" transform="translate(436 315)"><g clip-path="url(#d)"><g clip-path="url(#e)"><g clip-path="url(#f)"><path d="M15.395 14.766h537.562v271.968H15.395Zm0 0" style="stroke:none;fill-rule:nonzero;fill:#ecefff;fill-opacity:1"/></g></g><g clip-path="url(#g)"><g clip-path="url(#h)"><path d="M50.998-.003h614.257a51.005 51.005 0 0 1 51 51v260.612c0 13.527-5.373 26.5-14.939 36.061a50.98 50.98 0 0 1-36.06 14.939H50.997a50.98 50.98 0 0 1-36.06-14.939A50.98 50.98 0 0 1-.002 311.61V50.996a51.005 51.005 0 0 1 51-51Zm0 0" style="fill:none;stroke-width:8;stroke-linecap:butt;stroke-linejoin:miter;stroke:#55595b;stroke-opacity:1;stroke-miterlimit:4" transform="matrix(.7497 0 0 .7497 15.403 14.768)"/></g></g></g><mask id="c"><g filter="url(#i)"><path d="M0 0h1440v810H0z" style="fill:#000;fill-opacity:.36;stroke:none"/></g></mask></g><g style="fill:#fff;fill-opacity:1"><path d="M17.797 0h-4.844L5.688-13.422q.124 2.409.125 5.438V0H2.28v-17.672H6.97L14.39-4a104 104 0 0 1-.125-5.547v-8.125h3.5Zm0 0" style="stroke:none" transform="translate(630.6 625.857)"/></g><g style="fill:#fff;fill-opacity:1"><path d="m9.531 0-.265-2-.657 1.469q-1.346.89-3.39.89Q3.357.357 2.094-.687.842-1.732.844-3.61.842-5.86 2.75-7.08q1.904-1.218 5.594-1.218h.875v-.281q0-.825-.047-1.281-.187-1.641-2.11-1.641c-1.417 0-2.18.773-2.28 2.313l-3.423.015q.076-2.25 1.704-3.531 1.621-1.28 4.14-1.281 5.091.001 5.453 4.015.077.985.078 2.11v4.406q-.001 1.565.25 3.453ZM6.578-2.125q1.125.001 1.875-.766c.508-.507.766-1.218.766-2.125v-1.109C6.07-6.344 4.5-5.598 4.5-3.891q-.001 1.768 2.078 1.766m0 0" style="stroke:none" transform="translate(650.056 625.857)"/></g><g style="fill:#fff;fill-opacity:1"><path d="M14.516-13.625 9.25 0H5.297L0-13.625h3.922L7.344-2.656l3.36-10.969Zm0 0" style="stroke:none" transform="translate(664.443 625.857)"/></g><g style="fill:#fff;fill-opacity:1"><path d="M1.969-18.156c.363-.352.832-.532 1.406-.532q.872.002 1.406.532c.364.343.547.789.547 1.328q0 .843-.547 1.36-.533.515-1.406.515-.861 0-1.406-.516-.533-.516-.532-1.36-.001-.809.532-1.327M5.14 0H1.609v-13.625h3.532Zm0 0" style="stroke:none" transform="translate(678.933 625.857)"/></g><g style="fill:#fff;fill-opacity:1"><path d="M14.86-13.625v10.219q-.001 1.89-.032 2.64-.111 3.122-2.015 4.704-1.91 1.593-5.204 1.593-2.97 0-4.64-1.203C1.863 3.523 1.234 2.375 1.079.875L1.046.609h3.437L4.5.844c.094.633.414 1.133.969 1.5q.826.546 2.187.547 1.67-.002 2.594-.828.937-.832 1.047-2.454.014-.497.015-1.656v-.328l-1.015 1.5Q9.06.079 6.922.078c-1.899 0-3.414-.617-4.547-1.86Q.688-3.638.688-6.655q0-3.529 1.875-5.422 1.874-1.906 4.656-1.906 2.108.002 3.203.765l.89 1.406v-1.812Zm-9.579 10q.92 1.22 2.5 1.219c1.063 0 1.914-.36 2.563-1.078q.967-1.092.969-3.453v-.391c0-1.414-.336-2.461-1-3.14A3.2 3.2 0 0 0 7.906-11.5c-1.074 0-1.933.383-2.578 1.14q-.97 1.142-.969 3.391-.002 2.112.922 3.344m0 0" style="stroke:none" transform="translate(685.742 625.857)"/></g><g style="fill:#fff;fill-opacity:1"><path d="m9.531 0-.265-2-.657 1.469q-1.346.89-3.39.89Q3.357.357 2.094-.687.842-1.732.844-3.61.842-5.86 2.75-7.08q1.904-1.218 5.594-1.218h.875v-.281q0-.825-.047-1.281-.187-1.641-2.11-1.641c-1.417 0-2.18.773-2.28 2.313l-3.423.015q.076-2.25 1.704-3.531 1.621-1.28 4.14-1.281 5.091.001 5.453 4.015.077.985.078 2.11v4.406q-.001 1.565.25 3.453ZM6.578-2.125q1.125.001 1.875-.766c.508-.507.766-1.218.766-2.125v-1.109C6.07-6.344 4.5-5.598 4.5-3.891q-.001 1.768 2.078 1.766m0 0" style="stroke:none" transform="translate(702.254 625.857)"/></g><g style="fill:#fff;fill-opacity:1"><path d="M5.844-11.187v6.296q0 .845.015 1.204.077 1.002.594 1.296.516.3 1.969.188V.109Q7.325.281 6.094.281q-1.939 0-2.782-.656-.83-.654-.953-2.14-.046-.61-.046-1.97v-6.702h-2v-2.329h2v-3.359h3.53v3.36h2.813v2.328Zm0 0" style="stroke:none" transform="translate(716.642 625.857)"/></g><g style="fill:#fff;fill-opacity:1"><path d="M1.969-18.156c.363-.352.832-.532 1.406-.532q.872.002 1.406.532c.364.343.547.789.547 1.328q0 .843-.547 1.36-.533.515-1.406.515-.861 0-1.406-.516-.533-.516-.532-1.36-.001-.809.532-1.327M5.14 0H1.609v-13.625h3.532Zm0 0" style="stroke:none" transform="translate(725.883 625.857)"/></g><g style="fill:#fff;fill-opacity:1"><path d="M2.563-12q1.875-1.982 5.203-1.984 3.326.002 5.187 1.984 1.875 1.987 1.875 5.188 0 3.175-1.875 5.171c-1.242 1.336-2.969 2-5.187 2q-3.329.002-5.203-2Q.688-3.638.687-6.812q0-3.2 1.876-5.188m2.703 8.64q.902 1.236 2.484 1.235 1.593.001 2.5-1.234.92-1.25.922-3.453-.001-2.204-.922-3.438-.907-1.249-2.5-1.25-1.582.001-2.484 1.25-.908 1.235-.907 3.438-.001 2.203.907 3.453m0 0" style="stroke:none" transform="translate(732.693 625.857)"/></g><g style="fill:#fff;fill-opacity:1"><path d="M14.313-10.172q.107.925.109 2.485V0H10.89v-7.203c0-.8-.024-1.43-.063-1.89-.117-1.602-.984-2.407-2.61-2.407q-1.376.001-2.234 1.297-.843 1.3-.843 3.984V0H1.609v-13.625h3.532v2.203l1.062-1.61c.883-.632 1.973-.952 3.266-.952 1.437 0 2.566.336 3.39 1q1.248 1.002 1.454 2.812m0 0" style="stroke:none" transform="translate(748.207 625.857)"/></g><g clip-path="url(#j)"><g clip-path="url(#k)"><path d="M492.781 371.379h60.555v30.394H492.78Zm0 0" style="stroke:none;fill-rule:nonzero;fill:#7ed957;fill-opacity:1"/></g></g><g clip-path="url(#l)"><g clip-path="url(#m)"><path d="M804.98 371.379h60.551v30.394h-60.55Zm0 0" style="stroke:none;fill-rule:nonzero;fill:#7ed957;fill-opacity:1"/></g></g><g clip-path="url(#n)"><g clip-path="url(#o)"><path d="M648.879 371.379h60.555v30.394h-60.555Zm0 0" style="stroke:none;fill-rule:nonzero;fill:#7ed957;fill-opacity:1"/></g></g><path d="M125.449 2H.002" style="fill:none;stroke-width:4;stroke-linecap:butt;stroke-linejoin:miter;stroke:#7ed957;stroke-opacity:1;stroke-miterlimit:4" transform="matrix(.74743 0 0 .74743 553.295 385.076)"/><path d="m117.447 8 8.002-6-8.002-6" style="fill:none;stroke-width:4;stroke-linecap:round;stroke-linejoin:round;stroke:#7ed957;stroke-opacity:1;stroke-miterlimit:4" transform="matrix(.74743 0 0 .74743 553.295 385.076)"/><g clip-path="url(#p)"><g clip-path="url(#q)"><path d="M542.84 439.89h43.793v18.173H542.84Zm0 0" style="stroke:none;fill-rule:nonzero;fill:#bbb;fill-opacity:1"/></g></g><g clip-path="url(#r)"><g clip-path="url(#s)"><path d="M542.84 463.027h43.793v18.168H542.84Zm0 0" style="stroke:none;fill-rule:nonzero;fill:#7ed957;fill-opacity:1"/></g></g><g clip-path="url(#t)"><g clip-path="url(#u)"><path d="M542.84 486.914h43.793v18.168H542.84Zm0 0" style="stroke:none;fill-rule:nonzero;fill:#bbb;fill-opacity:1"/></g></g><g clip-path="url(#v)"><g clip-path="url(#w)"><path d="M542.84 511.059h43.793v18.171H542.84Zm0 0" style="stroke:none;fill-rule:nonzero;fill:#bbb;fill-opacity:1"/></g></g><g clip-path="url(#x)"><g clip-path="url(#y)"><path d="M542.84 534.95h43.793v18.167H542.84Zm0 0" style="stroke:none;fill-rule:nonzero;fill:#bbb;fill-opacity:1"/></g></g><path d="M28.403 62.939H15.2A13.203 13.203 0 0 1 1.998 49.736V0" style="fill:none;stroke-width:4;stroke-linecap:butt;stroke-linejoin:miter;stroke:#bbb;stroke-opacity:1;stroke-miterlimit:4" transform="translate(521.538 401.773)scale(.73968)"/><path d="M28.403 189.68H15.2c-3.501 0-6.86-1.393-9.331-3.868a13.2 13.2 0 0 1-3.871-9.333V0" style="fill:none;stroke-width:4;stroke-linecap:butt;stroke-linejoin:miter;stroke:#bbb;stroke-opacity:1;stroke-miterlimit:4" transform="matrix(.73968 0 0 .75128 521.538 401.773)"/><path d="M28.403 157.83H15.2c-3.501 0-6.86-1.394-9.331-3.87a13.2 13.2 0 0 1-3.871-9.334V0" style="fill:none;stroke-width:4;stroke-linecap:butt;stroke-linejoin:miter;stroke:#bbb;stroke-opacity:1;stroke-miterlimit:4" transform="matrix(.73968 0 0 .7508 521.538 401.773)"/><path d="M28.403 125.63H15.2c-3.501 0-6.86-1.386-9.331-3.863a13.2 13.2 0 0 1-3.871-9.337V0" style="fill:none;stroke-width:4;stroke-linecap:butt;stroke-linejoin:miter;stroke:#bbb;stroke-opacity:1;stroke-miterlimit:4" transform="matrix(.73968 0 0 .7522 521.538 401.773)"/><path d="M28.403 93.78H15.2c-3.501 0-6.86-1.387-9.331-3.866a13.2 13.2 0 0 1-3.871-9.332V2" style="fill:none;stroke-width:4;stroke-linecap:butt;stroke-linejoin:miter;stroke:#7ed957;stroke-opacity:1;stroke-miterlimit:4" transform="matrix(.73968 0 0 .75171 521.538 401.773)"/><path d="M-4.001 9.998 1.998 2l6.004 7.997" style="fill:none;stroke-width:4;stroke-linecap:round;stroke-linejoin:round;stroke:#7ed957;stroke-opacity:1;stroke-miterlimit:4" transform="matrix(.73968 0 0 .75171 521.538 401.773)"/><path d="M125.446 2H0" style="fill:none;stroke-width:4;stroke-linecap:butt;stroke-linejoin:miter;stroke:#7ed957;stroke-opacity:1;stroke-miterlimit:4" transform="matrix(.74743 0 0 .74743 709.394 385.076)"/><path d="m117.445 8 8.001-6-8-6" style="fill:none;stroke-width:4;stroke-linecap:round;stroke-linejoin:round;stroke:#7ed957;stroke-opacity:1;stroke-miterlimit:4" transform="matrix(.74743 0 0 .74743 709.394 385.076)"/><g clip-path="url(#z)"><g clip-path="url(#A)"><path d="M699.844 439.387h43.789v18.168h-43.79Zm0 0" style="stroke:none;fill-rule:nonzero;fill:#bbb;fill-opacity:1"/></g></g><g clip-path="url(#B)"><g clip-path="url(#C)"><path d="M699.844 462.52h43.789v18.168h-43.79Zm0 0" style="stroke:none;fill-rule:nonzero;fill:#7ed957;fill-opacity:1"/></g></g><g clip-path="url(#D)"><g clip-path="url(#E)"><path d="M699.844 486.406h43.789v18.172h-43.79Zm0 0" style="stroke:none;fill-rule:nonzero;fill:#bbb;fill-opacity:1"/></g></g><g clip-path="url(#F)"><g clip-path="url(#G)"><path d="M699.844 510.555h43.789v18.168h-43.79Zm0 0" style="stroke:none;fill-rule:nonzero;fill:#bbb;fill-opacity:1"/></g></g><g clip-path="url(#H)"><g clip-path="url(#I)"><path d="M699.844 534.441h43.789v18.168h-43.79Zm0 0" style="stroke:none;fill-rule:nonzero;fill:#bbb;fill-opacity:1"/></g></g><g clip-path="url(#J)"><g clip-path="url(#K)"><path d="M857.156 439.89h43.793v18.173h-43.793Zm0 0" style="stroke:none;fill-rule:nonzero;fill:#bbb;fill-opacity:1"/></g></g><g clip-path="url(#L)"><g clip-path="url(#M)"><path d="M857.156 463.027h43.793v18.168h-43.793Zm0 0" style="stroke:none;fill-rule:nonzero;fill:#7ed957;fill-opacity:1"/></g></g><g clip-path="url(#N)"><g clip-path="url(#O)"><path d="M857.156 486.914h43.793v18.168h-43.793Zm0 0" style="stroke:none;fill-rule:nonzero;fill:#7ed957;fill-opacity:1"/></g></g><g clip-path="url(#P)"><g clip-path="url(#Q)"><path d="M857.156 511.059h43.793v18.171h-43.793Zm0 0" style="stroke:none;fill-rule:nonzero;fill:#bbb;fill-opacity:1"/></g></g><g clip-path="url(#R)"><g clip-path="url(#S)"><path d="M857.156 534.95h43.793v18.167h-43.793Zm0 0" style="stroke:none;fill-rule:nonzero;fill:#bbb;fill-opacity:1"/></g></g><path d="M29.61 62.263H15.805c-7.624 0-13.804-6.18-13.804-13.804V0" style="fill:none;stroke-width:4;stroke-linecap:butt;stroke-linejoin:miter;stroke:#bbb;stroke-opacity:1;stroke-miterlimit:4" transform="translate(677.637 401.773)scale(.74708)"/><path d="M29.609 189.005H15.807c-7.625 0-13.808-6.182-13.808-13.807V0" style="fill:none;stroke-width:4;stroke-linecap:butt;stroke-linejoin:miter;stroke:#bbb;stroke-opacity:1;stroke-miterlimit:4" transform="matrix(.75 0 0 .75 677.637 401.773)"/><path d="M29.609 157.154H15.805c-7.626 0-13.804-6.182-13.804-13.803V0" style="fill:none;stroke-width:4;stroke-linecap:butt;stroke-linejoin:miter;stroke:#bbb;stroke-opacity:1;stroke-miterlimit:4" transform="matrix(.74934 0 0 .74934 677.637 401.773)"/><path d="M29.609 124.958H15.807c-7.625 0-13.808-6.182-13.808-13.802V0" style="fill:none;stroke-width:4;stroke-linecap:butt;stroke-linejoin:miter;stroke:#bbb;stroke-opacity:1;stroke-miterlimit:4" transform="matrix(.75 0 0 .75 677.637 401.773)"/><path d="M27.61 93.107H14.806C7.73 93.107 2 87.373 2 80.303V0" style="fill:none;stroke-width:4;stroke-linecap:butt;stroke-linejoin:miter;stroke:#7ed957;stroke-opacity:1;stroke-miterlimit:4" transform="translate(677.637 401.773)scale(.74926)"/><path d="m19.607 99.108 8.003-6-8.003-6.001" style="fill:none;stroke-width:4;stroke-linecap:round;stroke-linejoin:round;stroke:#7ed957;stroke-opacity:1;stroke-miterlimit:4" transform="translate(677.637 401.773)scale(.74926)"/><path d="M31.226 189.68H16.614a14.6 14.6 0 0 1-10.333-4.284A14.6 14.6 0 0 1 2 175.065V0" style="fill:none;stroke-width:4;stroke-linecap:butt;stroke-linejoin:miter;stroke:#bbb;stroke-opacity:1;stroke-miterlimit:4" transform="matrix(.74474 0 0 .75128 833.736 401.773)"/><path d="M31.226 157.83H16.614c-3.876 0-7.595-1.54-10.333-4.282A14.6 14.6 0 0 1 2 143.216V0" style="fill:none;stroke-width:4;stroke-linecap:butt;stroke-linejoin:miter;stroke:#bbb;stroke-opacity:1;stroke-miterlimit:4" transform="matrix(.74474 0 0 .7508 833.736 401.773)"/><path d="M29.228 125.63H15.612c-3.609 0-7.07-1.432-9.625-3.982a13.62 13.62 0 0 1-3.986-9.628V0" style="fill:none;stroke-width:4;stroke-linecap:butt;stroke-linejoin:miter;stroke:#7ed957;stroke-opacity:1;stroke-miterlimit:4" transform="matrix(.74474 0 0 .7522 833.736 401.773)"/><path d="m21.23 131.634 7.998-6.003-7.999-5.998" style="fill:none;stroke-width:4;stroke-linecap:round;stroke-linejoin:round;stroke:#7ed957;stroke-opacity:1;stroke-miterlimit:4" transform="matrix(.74474 0 0 .7522 833.736 401.773)"/><path d="M29.228 93.782H15.612A13.61 13.61 0 0 1 2 80.166V0" style="fill:none;stroke-width:4;stroke-linecap:butt;stroke-linejoin:miter;stroke:#7ed957;stroke-opacity:1;stroke-miterlimit:4" transform="matrix(.74474 0 0 .74474 833.736 401.773)"/><path d="m21.23 99.782 7.998-6-7.999-6" style="fill:none;stroke-width:4;stroke-linecap:round;stroke-linejoin:round;stroke:#7ed957;stroke-opacity:1;stroke-miterlimit:4" transform="matrix(.74474 0 0 .74474 833.736 401.773)"/><path d="M31.226 62.936H16.614a14.6 14.6 0 0 1-10.333-4.28A14.6 14.6 0 0 1 2 48.323V0" style="fill:none;stroke-width:4;stroke-linecap:butt;stroke-linejoin:miter;stroke:#bbb;stroke-opacity:1;stroke-miterlimit:4" transform="matrix(.74474 0 0 .74474 833.736 401.773)"/></svg>