<svg xmlns="http://www.w3.org/2000/svg" width="1920" height="1080" version="1.2" viewBox="0 0 1440 810"><defs><clipPath id="c"><path d="M14.078 14.73h610.453v299.38H14.078Zm0 0"/></clipPath><clipPath id="d"><path d="M52.328 14.73h533.485c21.125 0 38.25 17.125 38.25 38.25v222.88c0 21.124-17.125 38.25-38.25 38.25H52.327c-21.121 0-38.25-17.126-38.25-38.25V52.98c0-21.125 17.129-38.25 38.25-38.25m0 0"/></clipPath><clipPath id="e"><path d="M14.086 14.73h609.742v299.25H14.086Zm0 0"/></clipPath><clipPath id="f"><path d="M52.32 14.73h533.254c21.114 0 38.235 17.118 38.235 38.235v222.781c0 21.117-17.121 38.234-38.235 38.234H52.32c-21.117 0-38.234-17.117-38.234-38.234V52.965c0-21.117 17.117-38.235 38.234-38.235m0 0"/></clipPath><clipPath id="b"><path d="M0 0h640v330H0z"/></clipPath><clipPath id="h"><path d="M645.578 415.246h90.102v110.516h-90.102Zm0 0"/></clipPath><clipPath id="i"><path d="M662.828 415.246h55.602a17.25 17.25 0 0 1 17.25 17.25v75.848a17.252 17.252 0 0 1-17.25 17.25h-55.602c-4.574 0-8.96-1.82-12.2-5.055a17.25 17.25 0 0 1-5.05-12.195v-75.848c0-4.574 1.817-8.96 5.05-12.2a17.26 17.26 0 0 1 12.2-5.05m0 0"/></clipPath><clipPath id="j"><path d="M482.473 372.672h64.07v33.004h-64.07Zm0 0"/></clipPath><clipPath id="k"><path d="M492.973 372.672h43.004c2.785 0 5.457 1.105 7.425 3.074a10.5 10.5 0 0 1 3.075 7.426v12.004a10.5 10.5 0 0 1-10.5 10.5h-43.004c-2.782 0-5.453-1.11-7.422-3.078a10.5 10.5 0 0 1-3.078-7.422v-12.004a10.506 10.506 0 0 1 10.5-10.5m0 0"/></clipPath><clipPath id="l"><path d="M482.473 535.164h64.07v33h-64.07Zm0 0"/></clipPath><clipPath id="m"><path d="M492.973 535.164h43.004c2.785 0 5.457 1.106 7.425 3.074a10.5 10.5 0 0 1 3.075 7.426v12c0 2.785-1.106 5.457-3.075 7.426a10.5 10.5 0 0 1-7.425 3.074h-43.004a10.5 10.5 0 0 1-10.5-10.5v-12a10.506 10.506 0 0 1 10.5-10.5m0 0"/></clipPath><clipPath id="n"><path d="M830.121 372.672h64.07v33.004h-64.07Zm0 0"/></clipPath><clipPath id="o"><path d="M840.621 372.672h43c2.785 0 5.457 1.105 7.426 3.074a10.5 10.5 0 0 1 3.074 7.426v12.004a10.5 10.5 0 0 1-10.5 10.5h-43a10.506 10.506 0 0 1-10.5-10.5v-12.004c0-2.785 1.106-5.457 3.074-7.426a10.5 10.5 0 0 1 7.426-3.074m0 0"/></clipPath><clipPath id="p"><path d="M830.121 535.164h64.07v33h-64.07Zm0 0"/></clipPath><clipPath id="q"><path d="M840.621 535.164h43c2.785 0 5.457 1.106 7.426 3.074a10.5 10.5 0 0 1 3.074 7.426v12c0 2.785-1.105 5.457-3.074 7.426a10.5 10.5 0 0 1-7.426 3.074h-43a10.5 10.5 0 0 1-7.426-3.074 10.5 10.5 0 0 1-3.074-7.426v-12c0-2.785 1.106-5.457 3.074-7.426a10.5 10.5 0 0 1 7.426-3.074m0 0"/></clipPath><clipPath id="r"><path d="M205.172 115.758h191.937v124.394H205.172Zm0 0"/></clipPath><clipPath id="s"><path d="M220.922 115.758h160.41c8.695 0 15.75 7.05 15.75 15.75v92.894c0 8.7-7.055 15.75-15.75 15.75h-160.41c-8.7 0-15.75-7.05-15.75-15.75v-92.894c0-8.7 7.05-15.75 15.75-15.75m0 0"/></clipPath><filter id="g" width="100%" height="100%" x="0%" y="0%" filterUnits="objectBoundingBox"><feColorMatrix in="SourceGraphic" values="0 0 0 0 1 0 0 0 0 1 0 0 0 0 1 0 0 0 1 0"/></filter></defs><path d="M0 0h1440v810H0z" style="fill:#fff;fill-opacity:1;stroke:none"/><path d="M0 0h1440v810H0z" style="fill:#0f0f2e;fill-opacity:1;stroke:none"/><g style="fill:#fff;fill-opacity:1"><path d="M11.797-26.125q4.389 0 6.703 2.188 2.309 2.19 2.766 5.859H16.03c-.148-1.332-.593-2.367-1.343-3.11-.743-.738-1.766-1.109-3.079-1.109-1.062 0-1.93.262-2.593.781q-1.001.768-1 2.25c0 1.094.398 1.953 1.203 2.578q1.202.925 4.25 1.625 4.2.955 6.187 2.922c1.32 1.313 1.985 3.012 1.985 5.094q-.001 3.486-2.75 5.531Q16.138.517 12.17.516 7.498.518 4.72-1.531 1.936-3.593 1.562-7.578h5.235Q7.2-5.53 8.64-4.406q1.45 1.112 3.453 1.11 1.78 0 2.984-.892 1.22-.89 1.219-2.343 0-1.64-1.172-2.64c-.781-.665-2.102-1.224-3.953-1.673-2.875-.687-5.016-1.601-6.422-2.75q-2.11-1.733-2.11-5.031 0-3.421 2.673-5.453 2.669-2.046 6.484-2.047m0 0" style="stroke:none" transform="translate(548.254 655.694)"/></g><g style="fill:#fff;fill-opacity:1"><path d="M21.047-19.75 13.094.75q-1.547 3.967-3.375 5.5C8.508 7.281 6.89 7.797 4.859 7.797c-.867 0-1.632-.055-2.296-.156V4.125q.514.062 1.515.063 2.639 0 3.719-2.625l.25-.641L0-19.75h5.719l4.89 15.86 4.829-15.86Zm0 0" style="stroke:none" transform="translate(570.812 655.694)"/></g><g style="fill:#fff;fill-opacity:1"><path d="M9.39-20.266q3.404.001 5.454 1.72 2.045 1.703 2.375 4.515h-5.125q-.517-2.86-3.031-2.86c-.75 0-1.329.196-1.735.578q-.61.58-.61 1.547 0 1.114 1 1.782 1 .656 3.485 1.297 3.235.812 4.828 2.265 1.594 1.44 1.594 4.047Q17.624-2.529 15.344-1C13.82.008 11.875.516 9.5.516c-2.469 0-4.477-.54-6.016-1.625C1.954-2.203 1.051-3.836.781-6.016h5.125q.295 1.564 1.282 2.36.984.797 2.39.797 1.296.002 2.094-.547.797-.561.797-1.61 0-1.137-1.078-1.859-1.08-.732-3.641-1.36c-2-.5-3.531-1.21-4.594-2.14q-1.594-1.388-1.594-3.797 0-2.824 2.125-4.453 2.14-1.64 5.704-1.64m0 0" style="stroke:none" transform="translate(591.774 655.694)"/></g><g style="fill:#fff;fill-opacity:1"><path d="M8.469-16.219v9.125q-.002 1.236.031 1.75.106 1.454.844 1.875.75.422 2.86.281V.156q-1.594.248-3.376.25-2.813 0-4.031-.937-1.207-.951-1.375-3.11c-.055-.593-.078-1.546-.078-2.859v-9.719H.454v-3.375h2.89v-4.86h5.125v4.86h4.078v3.375Zm0 0" style="stroke:none" transform="translate(610.214 655.694)"/></g><g style="fill:#fff;fill-opacity:1"><path d="M20.266-10.281q-.002 1.08-.078 1.75H6.156q.45 5.454 4.563 5.453 1.67 0 2.765-.89 1.09-.89 1.36-2.454h5.125q-.752 3.375-3.25 5.156-2.5 1.782-6.11 1.782-4.265 0-6.937-2.641Q1-4.78 1-9.797q0-4.606 2.766-7.531 2.763-2.937 7.25-2.938 4.341 0 6.797 2.86c1.632 1.906 2.453 4.281 2.453 7.125m-9.47-6.375q-3.814 0-4.483 4.781H15q-.534-4.78-4.203-4.781m0 0" style="stroke:none" transform="translate(623.608 655.694)"/></g><g style="fill:#fff;fill-opacity:1"><path d="M31.656-15.36c.125.837.188 2.032.188 3.594V0h-5.125v-10.281q0-1.887-.14-3.235c-.282-2.093-1.4-3.14-3.345-3.14-2.406 0-3.609 2.18-3.609 6.531V0h-5.078v-10.281q0-1.887-.14-3.235-.425-3.14-3.391-3.14c-2.375 0-3.563 2.18-3.563 6.531V0h-5.11v-19.75h5.11v3.016l1.453-2.375q1.64-1.156 4.188-1.157c1.562 0 2.851.344 3.875 1.032a5.53 5.53 0 0 1 2.187 2.718l1.922-2.593q1.64-1.156 4.235-1.157 2.7.002 4.328 1.375 1.64 1.376 2.015 3.532m0 0" style="stroke:none" transform="translate(645.053 655.694)"/></g><g style="fill:#fff;fill-opacity:1"><path d="M2.86-26.328c.519-.508 1.195-.766 2.03-.766.844 0 1.524.258 2.048.766q.78.769.78 1.953 0 1.22-.78 1.969c-.524.492-1.204.734-2.047.734-.836 0-1.512-.242-2.032-.734-.523-.5-.78-1.157-.78-1.969 0-.79.257-1.441.78-1.953M7.452 0h-5.11v-19.75h5.11Zm0 0" style="stroke:none" transform="translate(679.038 655.694)"/></g><g style="fill:#fff;fill-opacity:1"><path d="M10.875-20.266q3.89.001 6.297 2.141 2.42 2.126 2.719 5.5h-5.047q-.675-4.03-4.078-4.031-2.051 0-3.25 1.672c-.805 1.105-1.203 2.746-1.203 4.922Q6.312-6.53 7.5-4.797c.79 1.149 1.863 1.719 3.219 1.719 1.02 0 1.879-.32 2.578-.969q1.061-.965 1.437-2.781h5.125q-.645 3.564-3.14 5.453Q14.218.517 10.422.515q-4.189.002-6.813-2.64C1.867-3.895 1-6.425 1-9.719q0-4.906 2.813-7.719c1.882-1.882 4.238-2.828 7.062-2.828m0 0" style="stroke:none" transform="translate(688.908 655.694)"/></g><g style="fill:#fff;fill-opacity:1"><path d="M14.281-26.125q5.016 0 7.828 2.438 2.824 2.425 3.235 6.39l.047.375h-5.125l-.078-.375q-1.001-4.999-5.97-5-3.128.002-5.015 2.5-1.891 2.502-1.89 6.844-.002 4.642 1.89 7.156 1.889 2.501 4.938 2.5 2.448.001 3.937-1.375 1.483-1.372 2-3.828l.078-.375h5.078l-.03.375q-.411 4.158-3.423 6.594-3 2.424-7.86 2.422-5.423 0-8.733-3.563-3.298-3.562-3.297-9.61c0-4.1 1.16-7.374 3.484-9.812q3.498-3.656 8.906-3.656m0 0" style="stroke:none" transform="translate(716.92 655.694)"/></g><g style="fill:#fff;fill-opacity:1"><path d="M20.75-14.734c.094.898.14 2.093.14 3.593V0h-5.124v-10.422c0-1.164-.024-2.082-.063-2.75-.18-2.32-1.445-3.484-3.797-3.484q-2.004.034-3.234 1.89-1.22 1.847-1.219 5.75V0h-5.11v-27.469h5.11v10.922l1.531-2.344q1.922-1.373 4.75-1.375 3.106 0 4.907 1.453 1.81 1.441 2.109 4.079m0 0" style="stroke:none" transform="translate(743.559 655.694)"/></g><g style="fill:#fff;fill-opacity:1"><path d="m13.813 0-.376-2.89-.968 2.109C11.188.082 9.555.516 7.579.516 5.765.516 4.25.008 3.03-1Q1.218-2.529 1.22-5.234q0-3.263 2.765-5.032 2.766-1.764 8.11-1.765h1.265v-.406q0-1.187-.078-1.844-.253-2.374-3.031-2.375-3.094 0-3.312 3.328l-4.97.047q.107-3.263 2.47-5.125 2.356-1.86 5.984-1.86c4.926 0 7.562 1.946 7.906 5.828.07.938.11 1.954.11 3.047v6.375q0 2.268.375 5.016ZM9.53-3.078c1.094 0 2.004-.367 2.735-1.11q1.091-1.124 1.093-3.093v-1.594q-6.83-.48-6.828 3.234 0 2.565 3 2.563m0 0" style="stroke:none" transform="translate(766.6 655.694)"/></g><g style="fill:#fff;fill-opacity:1"><path d="M20.75-14.734c.094.898.14 2.093.14 3.593V0h-5.124v-10.422c0-1.164-.024-2.082-.063-2.75-.18-2.32-1.445-3.484-3.797-3.484q-2.004 0-3.234 1.875-1.22 1.863-1.219 5.765V0h-5.11v-19.75h5.11v3.203l1.531-2.344q1.922-1.373 4.75-1.375 3.106 0 4.907 1.453 1.81 1.441 2.109 4.079m0 0" style="stroke:none" transform="translate(787.45 655.694)"/></g><g style="fill:#fff;fill-opacity:1"><path d="M21.531-19.75v14.813q0 2.751-.047 3.828-.14 4.53-2.906 6.828-2.768 2.297-7.562 2.297c-2.868 0-5.106-.586-6.72-1.75q-2.406-1.737-2.734-5L1.517.89H6.5l.031.328q.186 1.372 1.39 2.172 1.203.796 3.173.797 2.419-.001 3.765-1.204 1.36-1.205 1.5-3.546.048-.732.047-2.407v-.484l-1.484 2.187Q13.139.11 10.016.11 5.902.11 3.453-2.578 1-5.263 1-9.656c0-3.406.898-6.024 2.703-7.86q2.719-2.749 6.766-2.75 3.047 0 4.64 1.11l1.297 2.047v-2.641ZM7.641-5.266q1.342 1.782 3.64 1.782 2.297.002 3.703-1.578 1.42-1.578 1.422-5v-.547q0-3.075-1.453-4.563-1.44-1.483-3.484-1.484-2.344.002-3.75 1.656-1.407 1.641-1.407 4.906 0 3.046 1.329 4.828m0 0" style="stroke:none" transform="translate(810.491 655.694)"/></g><g style="fill:#fff;fill-opacity:1"><path d="M20.266-10.281q-.002 1.08-.078 1.75H6.156q.45 5.454 4.563 5.453 1.67 0 2.765-.89 1.09-.89 1.36-2.454h5.125q-.752 3.375-3.25 5.156-2.5 1.782-6.11 1.782-4.265 0-6.937-2.641Q1-4.78 1-9.797q0-4.606 2.766-7.531 2.763-2.937 7.25-2.938 4.341 0 6.797 2.86c1.632 1.906 2.453 4.281 2.453 7.125m-9.47-6.375q-3.814 0-4.483 4.781H15q-.534-4.78-4.203-4.781m0 0" style="stroke:none" transform="translate(834.422 655.694)"/></g><g mask="url(#a)" transform="translate(383 306)"><g clip-path="url(#b)"><g clip-path="url(#c)"><g clip-path="url(#d)"><path d="M14.078 14.73h610.453v299.38H14.078Zm0 0" style="stroke:none;fill-rule:nonzero;fill:#ecefff;fill-opacity:1"/></g></g><g clip-path="url(#e)"><g clip-path="url(#f)"><path d="M50.998 0H762.28c28.162 0 51 22.833 51 51v297.158c0 28.167-22.838 51-51 51H50.998c-28.168 0-51-22.833-51-51V51c0-28.167 22.832-51 51-51Zm0 0" style="fill:none;stroke-width:8;stroke-linecap:butt;stroke-linejoin:miter;stroke:#55595b;stroke-opacity:1;stroke-miterlimit:4" transform="matrix(.7497 0 0 .7497 14.087 14.73)"/></g></g></g><mask id="a"><g filter="url(#g)"><path d="M0 0h1440v810H0z" style="fill:#000;fill-opacity:.36;stroke:none"/></g></mask></g><g clip-path="url(#h)"><g clip-path="url(#i)"><path d="M645.578 415.246h90.102v110.516h-90.102Zm0 0" style="stroke:none;fill-rule:nonzero;fill:#5ce1e6;fill-opacity:1"/></g></g><g clip-path="url(#j)"><g clip-path="url(#k)"><path d="M482.473 372.672h63.941v33.004h-63.941Zm0 0" style="stroke:none;fill-rule:nonzero;fill:#bbb;fill-opacity:1"/></g></g><g clip-path="url(#l)"><g clip-path="url(#m)"><path d="M482.473 535.164h63.941v33h-63.941Zm0 0" style="stroke:none;fill-rule:nonzero;fill:#5ce1e6;fill-opacity:1"/></g></g><g clip-path="url(#n)"><g clip-path="url(#o)"><path d="M830.121 372.672h63.942v33.004H830.12Zm0 0" style="stroke:none;fill-rule:nonzero;fill:#bbb;fill-opacity:1"/></g></g><g clip-path="url(#p)"><g clip-path="url(#q)"><path d="M830.121 535.164h63.942v33H830.12Zm0 0" style="stroke:none;fill-rule:nonzero;fill:#bbb;fill-opacity:1"/></g></g><path d="M1.502 109.828h39.46c12.149 0 22-9.851 22-22V23.502c0-12.154 9.85-22 21.998-22h40.96" style="fill:none;stroke-width:3;stroke-linecap:butt;stroke-linejoin:miter;stroke:#bbb;stroke-opacity:1;stroke-miterlimit:4" transform="matrix(.7479 0 0 .7479 735.681 388.048)"/><path d="m7.498 105.325-5.996 4.503 5.996 4.502" style="fill:none;stroke-width:3;stroke-linecap:round;stroke-linejoin:round;stroke:#bbb;stroke-opacity:1;stroke-miterlimit:4" transform="matrix(.7479 0 0 .7479 735.681 388.048)"/><path d="M1.502 1.498h39.46c12.149 0 22 9.85 22 22.004V87.83c0 12.149 9.85 22 21.998 22h40.96" style="fill:none;stroke-width:3;stroke-linecap:butt;stroke-linejoin:miter;stroke:#bbb;stroke-opacity:1;stroke-miterlimit:4" transform="matrix(.7479 0 0 .7479 735.681 469.294)"/><path d="M7.498-2.999 1.502 1.498 7.498 6" style="fill:none;stroke-width:3;stroke-linecap:round;stroke-linejoin:round;stroke:#bbb;stroke-opacity:1;stroke-miterlimit:4" transform="matrix(.7479 0 0 .7479 735.681 469.294)"/><path d="M130.637 109.828H88.07c-12.154 0-22.005-9.851-22.005-22V23.502c0-12.154-9.845-22-21.999-22H0" style="fill:none;stroke-width:3;stroke-linecap:butt;stroke-linejoin:miter;stroke:#bbb;stroke-opacity:1;stroke-miterlimit:4" transform="matrix(.7479 0 0 .7479 546.477 388.048)"/><path d="m124.636 114.33 6.001-4.502-6.001-4.503" style="fill:none;stroke-width:3;stroke-linecap:round;stroke-linejoin:round;stroke:#bbb;stroke-opacity:1;stroke-miterlimit:4" transform="matrix(.7479 0 0 .7479 546.477 388.048)"/><path d="M130.637 1.498H88.07c-12.154 0-22.005 9.85-22.005 22.004V87.83c0 12.149-9.845 22-21.999 22H0" style="fill:none;stroke-width:3;stroke-linecap:butt;stroke-linejoin:miter;stroke:#6bd6fe;stroke-opacity:1;stroke-miterlimit:4" transform="matrix(.7479 0 0 .7479 546.477 469.294)"/><path d="m124.636 6 6.001-4.502-6.001-4.497" style="fill:none;stroke-width:3;stroke-linecap:round;stroke-linejoin:round;stroke:#6bd6fe;stroke-opacity:1;stroke-miterlimit:4" transform="matrix(.7479 0 0 .7479 546.477 469.294)"/><g style="fill:#fff;fill-opacity:1"><path d="M4.75-20.922c.695.074 1.266.344 1.703.813.445.468.672 1.054.672 1.75q-.001 1.159-.734 1.937a2.41 2.41 0 0 1-1.813.766q-1.236 0-2.016-.89-.766-.905-.765-2.642-.002-3.387 2.375-5.937.434-.469 1.016-.469.497 0 .906.375.422.376.422.875 0 .44-.36.828-1.077 1.16-1.406 2.594m6.906 0q1.046.11 1.703.813.67.704.672 1.75-.001 1.159-.734 1.937a2.41 2.41 0 0 1-1.813.766q-1.236 0-2.015-.89-.767-.905-.766-2.642-.001-3.387 2.375-5.937.435-.469 1.016-.469.497 0 .906.375.422.376.422.875 0 .44-.36.828-1.077 1.16-1.406 2.594m0 0" style="stroke:none" transform="translate(453.185 189.956)"/></g><g style="fill:#fff;fill-opacity:1"><path d="M11.516.328Q8.749.327 6.28-.406c-1.648-.5-2.984-1.164-4.015-2-.555-.414-.828-.992-.828-1.735 0-.5.148-.937.453-1.312q.451-.563 1.062-.563.638.001 1.469.5Q5.969-4.39 7.656-3.89q1.7.502 3.75.5 2.637.002 4.031-.906 1.407-.919 1.407-2.687 0-1.371-1.313-2.11c-.875-.488-2.336-.96-4.375-1.422Q7.98-11.202 6-12.094q-1.97-.902-2.984-2.297-1.001-1.405-1-3.578-.002-2.232 1.25-3.984 1.265-1.765 3.515-2.75 2.25-.998 5.063-1c3.426 0 6.222.914 8.39 2.734q.47.394.657.782c.132.25.203.57.203.953q-.002.75-.453 1.312-.44.549-1.063.547-.362 0-.672-.094-.299-.106-.797-.406-1.487-1.078-2.875-1.594c-.918-.351-2.046-.531-3.39-.531q-2.456.002-3.875 1-1.423.985-1.422 2.75 0 1.469 1.266 2.266c.843.53 2.269 1.023 4.28 1.468q3.2.738 5.204 1.61 1.997.879 3.062 2.25 1.062 1.377 1.063 3.422-.001 2.237-1.25 3.953-1.236 1.705-3.485 2.656-2.252.951-5.171.953m0 0" style="stroke:none" transform="translate(469.025 189.956)"/></g><g style="fill:#fff;fill-opacity:1"><path d="M4.578.219q-.986 0-1.61-.563t-.624-1.594v-21.5q-.001-1.043.625-1.578.623-.546 1.61-.547.965.001 1.609.547.656.535.656 1.578v21.5q0 1.033-.657 1.594Q5.545.22 4.579.22m0 0" style="stroke:none" transform="translate(491.993 189.956)"/></g><g style="fill:#fff;fill-opacity:1"><path d="M10.375.281c-1.805 0-3.387-.367-4.75-1.11Q3.592-1.933 2.485-4.03c-.743-1.395-1.11-3.016-1.11-4.86 0-1.843.367-3.453 1.11-4.828a7.67 7.67 0 0 1 3.14-3.187q2.043-1.125 4.75-1.125 2.685 0 4.719 1.125a7.6 7.6 0 0 1 3.14 3.187q1.092 2.063 1.094 4.828-.002 2.767-1.094 4.86-1.095 2.097-3.14 3.203Q13.059.284 10.375.282m-.047-3.484q2.202.002 3.344-1.438 1.156-1.436 1.156-4.25-.001-2.765-1.156-4.218c-.762-.977-1.86-1.47-3.297-1.47-1.45 0-2.562.493-3.344 1.47q-1.158 1.453-1.156 4.218 0 2.814 1.14 4.25 1.156 1.44 3.313 1.438m0 0" style="stroke:none" transform="translate(501.137 189.956)"/></g><g style="fill:#fff;fill-opacity:1"><path d="M26.14-16.625q.248-.654.735-.969.481-.327 1.063-.328.826 0 1.484.563c.445.367.672.824.672 1.375q-.001.47-.172.828L23.969-1.22q-.282.674-.875 1.047-.598.359-1.313.36-.69-.002-1.281-.36a2.2 2.2 0 0 1-.875-1.047l-4.281-10.297-4.14 10.297q-.3.674-.892 1.047Q9.716.187 9 .188q-.688-.002-1.297-.36a2.26 2.26 0 0 1-.906-1.047L.907-15.156q-.189-.469-.188-.797-.001-.825.719-1.422.714-.593 1.593-.594.607 0 1.11.328.498.33.75.97L9.14-5.688 13.5-16.562c.188-.458.46-.797.828-1.016a2.222 2.222 0 0 1 2.375 0q.545.329.828 1.015l4.39 10.907Zm0 0" style="stroke:none" transform="translate(521.549 189.956)"/></g><g style="fill:#fff;fill-opacity:1"><path d="M11.484-3.125q1.796.096 1.797 1.61 0 .877-.703 1.328-.704.434-2 .375L9.61.109C5.58-.18 3.563-2.344 3.563-6.375v-7.844H1.766q-.973 0-1.5-.422-.516-.433-.516-1.265 0-.826.516-1.266.527-.435 1.5-.437h1.797v-3.313q0-.966.609-1.547.608-.576 1.656-.578 1.015.002 1.625.578.61.58.61 1.547v3.313h3.062q.968.002 1.484.437c.352.293.532.715.532 1.266q-.002.831-.532 1.265-.516.423-1.484.422H8.063v8.172c0 1.774.816 2.719 2.453 2.844Zm0 0" style="stroke:none" transform="translate(562.121 189.956)"/></g><g style="fill:#fff;fill-opacity:1"><path d="M10.375.281c-1.805 0-3.387-.367-4.75-1.11Q3.592-1.933 2.485-4.03c-.743-1.395-1.11-3.016-1.11-4.86 0-1.843.367-3.453 1.11-4.828a7.67 7.67 0 0 1 3.14-3.187q2.043-1.125 4.75-1.125 2.685 0 4.719 1.125a7.6 7.6 0 0 1 3.14 3.187q1.092 2.063 1.094 4.828-.002 2.767-1.094 4.86-1.095 2.097-3.14 3.203Q13.059.284 10.375.282m-.047-3.484q2.202.002 3.344-1.438 1.156-1.436 1.156-4.25-.001-2.765-1.156-4.218c-.762-.977-1.86-1.47-3.297-1.47-1.45 0-2.562.493-3.344 1.47q-1.158 1.453-1.156 4.218 0 2.814 1.14 4.25 1.156 1.44 3.313 1.438m0 0" style="stroke:none" transform="translate(575.405 189.956)"/></g><g style="fill:#fff;fill-opacity:1"><path d="M16.234-17.969c.696 0 1.25.196 1.657.578q.609.58.609 1.547v13.969c0 .625-.21 1.133-.625 1.516-.418.382-.965.578-1.64.578-.65 0-1.165-.18-1.547-.531q-.58-.547-.579-1.485v-.906a5.8 5.8 0 0 1-2.234 2.219C10.938.023 9.883.28 8.719.28q-6.485 0-6.485-7.265v-8.86q0-.966.61-1.547c.406-.382.945-.578 1.625-.578.695 0 1.25.196 1.656.578q.61.58.61 1.547v8.89q0 1.877.75 2.782.762.89 2.374.89 1.875.001 3-1.234C13.617-5.348 14-6.446 14-7.812v-8.032q0-.966.61-1.547c.413-.382.956-.578 1.624-.578m0 0" style="stroke:none" transform="translate(605.861 189.956)"/></g><g style="fill:#fff;fill-opacity:1"><path d="M12.453-18.031c1.508 0 2.86.386 4.047 1.156q1.782 1.142 2.766 3.25.998 2.11 1 4.844-.002 2.735-1 4.797-.986 2.05-2.75 3.156Q14.763.284 12.453.282 10.577.28 9.093-.5q-1.47-.797-2.25-2.203V4.64q-.002.936-.624 1.468-.612.546-1.61.547-1.02-.002-1.64-.578-.626-.562-.625-1.5v-20.422c0-.644.195-1.16.594-1.547.394-.382.925-.578 1.593-.578.676 0 1.219.196 1.625.578q.61.58.61 1.547v.906a5.47 5.47 0 0 1 2.28-2.28q1.499-.811 3.407-.813M11.266-3.203q2.123 0 3.312-1.453 1.186-1.466 1.188-4.125c0-1.82-.399-3.239-1.188-4.25-.793-1.008-1.898-1.516-3.312-1.516q-2.157 0-3.328 1.485-1.172 1.47-1.172 4.203 0 2.706 1.172 4.187 1.17 1.47 3.328 1.469m0 0" style="stroke:none" transform="translate(626.705 189.956)"/></g><g style="fill:#fff;fill-opacity:1"><path d="M17.031-25.562q.996.002 1.64.578.657.578.657 1.515v21.532q0 .973-.61 1.546-.609.58-1.624.579-1 0-1.61-.579-.609-.574-.609-1.546v-.907a5.66 5.66 0 0 1-2.297 2.297q-1.487.827-3.39.828-2.284 0-4.063-1.14-1.781-1.156-2.766-3.266-.984-2.108-.984-4.844 0-2.73.984-4.781c.657-1.363 1.57-2.414 2.75-3.156q1.764-1.125 4.079-1.125 1.904 0 3.374.797a5.4 5.4 0 0 1 2.266 2.218v-8.53c0-.595.195-1.079.594-1.454q.59-.562 1.61-.562M10.375-3.203q2.157.001 3.328-1.469 1.172-1.482 1.172-4.219 0-2.732-1.172-4.187c-.781-.977-1.883-1.469-3.297-1.469q-2.157 0-3.344 1.453-1.187 1.442-1.187 4.125 0 2.737 1.188 4.25 1.184 1.517 3.312 1.516m0 0" style="stroke:none" transform="translate(648.341 189.956)"/></g><g style="fill:#fff;fill-opacity:1"><path d="M9.969-18.031q3.67 0 5.453 1.812 1.78 1.817 1.781 5.532v8.78c0 .65-.195 1.157-.578 1.532q-.563.563-1.578.563-.939 0-1.531-.579c-.399-.382-.594-.89-.594-1.515v-.797A4.7 4.7 0 0 1 11-.5Q9.688.28 7.953.281C6.773.281 5.707.04 4.75-.437q-1.44-.715-2.266-1.97a5 5 0 0 1-.828-2.812q0-1.933.985-3.047c.664-.75 1.738-1.289 3.218-1.625q2.234-.515 6.172-.515h.89v-.828q-.002-1.765-.765-2.563-.75-.81-2.437-.812-1.048 0-2.125.312-1.08.3-2.547.875c-.625.313-1.086.469-1.375.469-.43 0-.781-.156-1.063-.469q-.408-.468-.406-1.234 0-.608.297-1.047.31-.45 1.031-.86 1.248-.685 3-1.078a16 16 0 0 1 3.438-.39M8.859-2.953q1.796.002 2.922-1.203 1.139-1.2 1.14-3.11v-.765h-.64q-2.426 0-3.75.219-1.33.221-1.906.765-.58.533-.578 1.469 0 1.159.812 1.89c.54.493 1.207.735 2 .735m0 0" style="stroke:none" transform="translate(669.977 189.956)"/></g><g style="fill:#fff;fill-opacity:1"><path d="M11.484-3.125q1.796.096 1.797 1.61 0 .877-.703 1.328-.704.434-2 .375L9.61.109C5.58-.18 3.563-2.344 3.563-6.375v-7.844H1.766q-.973 0-1.5-.422-.516-.433-.516-1.265 0-.826.516-1.266.527-.435 1.5-.437h1.797v-3.313q0-.966.609-1.547.608-.576 1.656-.578 1.015.002 1.625.578.61.58.61 1.547v3.313h3.062q.968.002 1.484.437c.352.293.532.715.532 1.266q-.002.831-.532 1.265-.516.423-1.484.422H8.063v8.172c0 1.774.816 2.719 2.453 2.844Zm0 0" style="stroke:none" transform="translate(689.417 189.956)"/></g><g style="fill:#fff;fill-opacity:1"><path d="M16.266-4.828q.623 0 1 .469.375.468.375 1.265c0 .742-.446 1.367-1.328 1.875q-1.236.674-2.782 1.094-1.546.406-2.953.406-4.235 0-6.719-2.437-2.484-2.45-2.484-6.703 0-2.701 1.078-4.782 1.077-2.091 3.031-3.234 1.969-1.155 4.454-1.156 2.372.002 4.14 1.047 1.763 1.031 2.735 2.953c.644 1.273.968 2.765.968 4.484q0 1.564-1.36 1.563H5.798q.216 2.47 1.406 3.64 1.186 1.172 3.453 1.172 1.154 0 2.031-.281.889-.293 2-.797c.72-.383 1.243-.578 1.579-.578m-6.22-10.047q-1.846.001-2.937 1.156c-.73.774-1.168 1.875-1.312 3.313h8.14q-.08-2.186-1.093-3.328c-.668-.758-1.602-1.141-2.797-1.141m0 0" style="stroke:none" transform="translate(702.701 189.956)"/></g><g style="fill:#fff;fill-opacity:1"><path d="M16.266-4.828q.623 0 1 .469.375.468.375 1.265c0 .742-.446 1.367-1.328 1.875q-1.236.674-2.782 1.094-1.546.406-2.953.406-4.235 0-6.719-2.437-2.484-2.45-2.484-6.703 0-2.701 1.078-4.782 1.077-2.091 3.031-3.234 1.969-1.155 4.454-1.156 2.372.002 4.14 1.047 1.763 1.031 2.735 2.953c.644 1.273.968 2.765.968 4.484q0 1.564-1.36 1.563H5.798q.216 2.47 1.406 3.64 1.186 1.172 3.453 1.172 1.154 0 2.031-.281.889-.293 2-.797c.72-.383 1.243-.578 1.579-.578m-6.22-10.047q-1.846.001-2.937 1.156c-.73.774-1.168 1.875-1.312 3.313h8.14q-.08-2.186-1.093-3.328c-.668-.758-1.602-1.141-2.797-1.141m0 0" style="stroke:none" transform="translate(731.573 189.956)"/></g><g style="fill:#fff;fill-opacity:1"><path d="M14.61-16.672q.293-.64.78-.969.481-.327 1.063-.328.827 0 1.485.563.67.564.671 1.39-.001.424-.218.86L11.734-1.22a2.5 2.5 0 0 1-.921 1.047q-.598.359-1.313.36-.69-.002-1.312-.36a2.43 2.43 0 0 1-.954-1.047L.547-15.156a1.76 1.76 0 0 1-.188-.828q0-.826.704-1.407c.468-.382 1-.578 1.593-.578q1.295 0 1.922 1.266L9.61-5.578Zm0 0" style="stroke:none" transform="translate(750.401 189.956)"/></g><g style="fill:#fff;fill-opacity:1"><path d="M16.266-4.828q.623 0 1 .469.375.468.375 1.265c0 .742-.446 1.367-1.328 1.875q-1.236.674-2.782 1.094-1.546.406-2.953.406-4.235 0-6.719-2.437-2.484-2.45-2.484-6.703 0-2.701 1.078-4.782 1.077-2.091 3.031-3.234 1.969-1.155 4.454-1.156 2.372.002 4.14 1.047 1.763 1.031 2.735 2.953c.644 1.273.968 2.765.968 4.484q0 1.564-1.36 1.563H5.798q.216 2.47 1.406 3.64 1.186 1.172 3.453 1.172 1.154 0 2.031-.281.889-.293 2-.797c.72-.383 1.243-.578 1.579-.578m-6.22-10.047q-1.846.001-2.937 1.156c-.73.774-1.168 1.875-1.312 3.313h8.14q-.08-2.186-1.093-3.328c-.668-.758-1.602-1.141-2.797-1.141m0 0" style="stroke:none" transform="translate(769.05 189.956)"/></g><g style="fill:#fff;fill-opacity:1"><path d="M12.172-17.969q.936-.06 1.469.407.546.468.547 1.406 0 .97-.47 1.437-.468.47-1.687.61L10.937-14q-2.125.22-3.109 1.438-.984 1.22-.984 3.062v7.563q0 1.03-.657 1.593Q5.545.22 4.579.22q-.986 0-1.61-.563t-.624-1.594v-13.937q-.001-1.013.625-1.547.623-.546 1.562-.547.937.002 1.516.532.576.516.578 1.484v1.437q.685-1.576 2.031-2.437a6.35 6.35 0 0 1 3-.969Zm0 0" style="stroke:none" transform="translate(788.165 189.956)"/></g><g style="fill:#fff;fill-opacity:1"><path d="M14.61-16.672q.293-.639.78-.937.481-.312 1.063-.313.827 0 1.485.563.67.55.671 1.375-.001.393-.218.828L8.563 5.438q-.61 1.218-1.907 1.218a2.18 2.18 0 0 1-1.453-.531q-.626-.516-.625-1.297 0-.409.203-.906l2.453-5.14L.547-15.157a1.76 1.76 0 0 1-.188-.828q0-.826.704-1.407c.468-.382 1-.578 1.593-.578q.622.001 1.125.313.498.297.797.953L9.61-5.578Zm0 0" style="stroke:none" transform="translate(803.033 189.956)"/></g><g style="fill:#fff;fill-opacity:1"><path d="M26.14-16.625q.248-.654.735-.969.481-.327 1.063-.328.826 0 1.484.563c.445.367.672.824.672 1.375q-.001.47-.172.828L23.969-1.22q-.282.674-.875 1.047-.598.359-1.313.36-.69-.002-1.281-.36a2.2 2.2 0 0 1-.875-1.047l-4.281-10.297-4.14 10.297q-.3.674-.892 1.047Q9.716.187 9 .188q-.688-.002-1.297-.36a2.26 2.26 0 0 1-.906-1.047L.907-15.156q-.189-.469-.188-.797-.001-.825.719-1.422.714-.593 1.593-.594.607 0 1.11.328.498.33.75.97L9.14-5.688 13.5-16.562c.188-.458.46-.797.828-1.016a2.222 2.222 0 0 1 2.375 0q.545.329.828 1.015l4.39 10.907Zm0 0" style="stroke:none" transform="translate(821.97 189.956)"/></g><g style="fill:#fff;fill-opacity:1"><path d="M12.64-18.031q6.188.002 6.188 7.234v8.86q-.002 1.002-.594 1.578c-.398.382-.945.578-1.64.578-.7 0-1.25-.196-1.657-.578q-.609-.575-.609-1.578v-8.86q-.001-1.904-.781-2.781-.768-.89-2.422-.89-1.938 0-3.11 1.218-1.17 1.219-1.171 3.281v8.031c0 .668-.211 1.196-.625 1.579-.407.382-.953.578-1.64.578-.7 0-1.247-.196-1.641-.578-.399-.383-.594-.91-.594-1.578V-23.47q-.001-.937.625-1.515.62-.576 1.64-.578c.664 0 1.204.183 1.61.546.414.356.625.844.625 1.47v8.39a5.8 5.8 0 0 1 2.39-2.14q1.498-.735 3.407-.735m0 0" style="stroke:none" transform="translate(852.786 189.956)"/></g><g style="fill:#fff;fill-opacity:1"><path d="M16.266-4.828q.623 0 1 .469.375.468.375 1.265c0 .742-.446 1.367-1.328 1.875q-1.236.674-2.782 1.094-1.546.406-2.953.406-4.235 0-6.719-2.437-2.484-2.45-2.484-6.703 0-2.701 1.078-4.782 1.077-2.091 3.031-3.234 1.969-1.155 4.454-1.156 2.372.002 4.14 1.047 1.763 1.031 2.735 2.953c.644 1.273.968 2.765.968 4.484q0 1.564-1.36 1.563H5.798q.216 2.47 1.406 3.64 1.186 1.172 3.453 1.172 1.154 0 2.031-.281.889-.293 2-.797c.72-.383 1.243-.578 1.579-.578m-6.22-10.047q-1.846.001-2.937 1.156c-.73.774-1.168 1.875-1.312 3.313h8.14q-.08-2.186-1.093-3.328c-.668-.758-1.602-1.141-2.797-1.141m0 0" style="stroke:none" transform="translate(873.846 189.956)"/></g><g style="fill:#fff;fill-opacity:1"><path d="M12.172-17.969q.936-.06 1.469.407.546.468.547 1.406 0 .97-.47 1.437-.468.47-1.687.61L10.937-14q-2.125.22-3.109 1.438-.984 1.22-.984 3.062v7.563q0 1.03-.657 1.593Q5.545.22 4.579.22q-.986 0-1.61-.563t-.624-1.594v-13.937q-.001-1.013.625-1.547.623-.546 1.562-.547.937.002 1.516.532.576.516.578 1.484v1.437q.685-1.576 2.031-2.437a6.35 6.35 0 0 1 3-.969Zm0 0" style="stroke:none" transform="translate(892.962 189.956)"/></g><g style="fill:#fff;fill-opacity:1"><path d="M16.266-4.828q.623 0 1 .469.375.468.375 1.265c0 .742-.446 1.367-1.328 1.875q-1.236.674-2.782 1.094-1.546.406-2.953.406-4.235 0-6.719-2.437-2.484-2.45-2.484-6.703 0-2.701 1.078-4.782 1.077-2.091 3.031-3.234 1.969-1.155 4.454-1.156 2.372.002 4.14 1.047 1.763 1.031 2.735 2.953c.644 1.273.968 2.765.968 4.484q0 1.564-1.36 1.563H5.798q.216 2.47 1.406 3.64 1.186 1.172 3.453 1.172 1.154 0 2.031-.281.889-.293 2-.797c.72-.383 1.243-.578 1.579-.578m-6.22-10.047q-1.846.001-2.937 1.156c-.73.774-1.168 1.875-1.312 3.313h8.14q-.08-2.186-1.093-3.328c-.668-.758-1.602-1.141-2.797-1.141m0 0" style="stroke:none" transform="translate(906.39 189.956)"/></g><g style="fill:#fff;fill-opacity:1"><path d="M4.39-25.562q1.22.002 1.97.906c.507.593.765 1.468.765 2.625q-.001 3.393-2.375 5.937-.439.47-1 .469-.516 0-.937-.375a1.16 1.16 0 0 1-.407-.89c0-.282.117-.555.36-.829q1.09-1.137 1.406-2.578c-.7-.07-1.274-.344-1.719-.812q-.656-.703-.656-1.75c0-.77.242-1.41.734-1.922.5-.52 1.117-.782 1.86-.782m6.907 0q1.218.002 1.969.906c.507.593.765 1.468.765 2.625q-.001 3.393-2.375 5.937-.438.47-1 .469-.516 0-.937-.375a1.16 1.16 0 0 1-.406-.89c0-.282.117-.555.359-.829q1.09-1.137 1.406-2.578c-.7-.07-1.273-.344-1.719-.812q-.656-.703-.656-1.75c0-.77.242-1.41.735-1.922q.748-.781 1.859-.782m0 0" style="stroke:none" transform="translate(924.534 189.956)"/></g><g clip-path="url(#r)"><g clip-path="url(#s)"><path d="M205.172 115.758h191.937v124.394H205.172Zm0 0" style="stroke:none;fill-rule:nonzero;fill:#fff;fill-opacity:1"/></g></g><g style="fill:#000;fill-opacity:1"><path d="M7.719 0H3.03v-23.453H7.72Zm0 0" style="stroke:none" transform="translate(258.934 191.156)"/></g><g style="fill:#000;fill-opacity:1"><path d="M8.61-18.562q3.121.002 4.984 1.562c1.25 1.043 1.976 2.422 2.187 4.14h-4.703c-.312-1.738-1.242-2.609-2.781-2.609-.68 0-1.203.18-1.578.531q-.563.516-.563 1.407-.001 1.02.907 1.64.919.612 3.203 1.188 2.951.739 4.422 2.062 1.466 1.33 1.468 3.704-.001 2.626-2.093 4.015-2.097 1.39-5.36 1.39c-2.273 0-4.11-.491-5.515-1.484q-2.097-1.5-2.47-4.5h4.688q.264 1.44 1.172 2.172.903.72 2.188.719 1.2.002 1.922-.5.733-.515.734-1.469 0-1.044-.985-1.703-.984-.668-3.328-1.25Q4.355-8.234 2.891-9.5q-1.47-1.28-1.47-3.484-.001-2.59 1.954-4.078c1.313-1 3.055-1.5 5.234-1.5m0 0" style="stroke:none" transform="translate(268.86 191.156)"/></g><g style="fill:#000;fill-opacity:1"><path d="M8.61-18.562q3.121.002 4.984 1.562c1.25 1.043 1.976 2.422 2.187 4.14h-4.703c-.312-1.738-1.242-2.609-2.781-2.609-.68 0-1.203.18-1.578.531q-.563.516-.563 1.407-.001 1.02.907 1.64.919.612 3.203 1.188 2.951.739 4.422 2.062 1.466 1.33 1.468 3.704-.001 2.626-2.093 4.015-2.097 1.39-5.36 1.39c-2.273 0-4.11-.491-5.515-1.484q-2.097-1.5-2.47-4.5h4.688q.264 1.44 1.172 2.172.903.72 2.188.719 1.2.002 1.922-.5.733-.515.734-1.469 0-1.044-.985-1.703-.984-.668-3.328-1.25Q4.355-8.234 2.891-9.5q-1.47-1.28-1.47-3.484-.001-2.59 1.954-4.078c1.313-1 3.055-1.5 5.234-1.5m0 0" style="stroke:none" transform="translate(285.757 191.156)"/></g><g style="fill:#000;fill-opacity:1"><path d="M18.844-18.094V0H14.14v-3.062L12.75-.75Q10.904.47 8.39.469 5.72.468 4.032-.828 2.342-2.141 2-4.11q-.157-1.154-.156-3.297v-10.688H6.53v9.703q-.001 1.252.125 2.47.375 3.063 3.516 3.062 1.827.002 2.89-1.532 1.08-1.53 1.079-4.484v-9.219Zm0 0" style="stroke:none" transform="translate(302.653 191.156)"/></g><g style="fill:#000;fill-opacity:1"><path d="M18.563-9.422c0 .656-.024 1.195-.063 1.61H5.64q.404 4.985 4.188 4.984 1.53 0 2.531-.813c.664-.539 1.079-1.285 1.235-2.234h4.703c-.461 2.063-1.453 3.637-2.985 4.719C13.783-.07 11.915.469 9.72.469q-3.91.002-6.36-2.422Q.922-4.39.922-8.97q0-4.217 2.531-6.906 2.53-2.686 6.64-2.687c2.657 0 4.727.875 6.22 2.625q2.25 2.613 2.25 6.515M9.89-15.266c-2.336 0-3.703 1.465-4.11 4.391h7.953q-.468-4.39-3.843-4.39m0 0" style="stroke:none" transform="translate(323.662 191.156)"/></g></svg>