<svg xmlns="http://www.w3.org/2000/svg" width="1920" height="1080" version="1.2" viewBox="0 0 1440 810"><defs><clipPath id="c"><path d="M14.684 14.883h546.77v313.84H14.683Zm0 0"/></clipPath><clipPath id="d"><path d="M52.934 14.883h470.132c21.125 0 38.25 17.125 38.25 38.25v237.34c0 21.125-17.125 38.25-38.25 38.25H52.934c-21.125 0-38.25-17.125-38.25-38.25V53.133c0-21.125 17.125-38.25 38.25-38.25m0 0"/></clipPath><clipPath id="e"><path d="M14.684 14.883H561v313.5H14.684Zm0 0"/></clipPath><clipPath id="f"><path d="M52.895 14.883h469.613c21.101 0 38.207 17.11 38.207 38.21v237.079c0 21.101-17.106 38.207-38.207 38.207H52.895c-21.102 0-38.211-17.106-38.211-38.207V53.094c0-21.102 17.109-38.211 38.21-38.211m0 0"/></clipPath><clipPath id="b"><path d="M0 0h575v342H0z"/></clipPath><clipPath id="h"><path d="M526.965 399.82h17.605v16.45h-17.605Zm0 0"/></clipPath><clipPath id="i"><path d="M535.742 399.82c-4.847 0-8.777 3.684-8.777 8.227 0 4.539 3.93 8.223 8.777 8.223 4.848 0 8.778-3.684 8.778-8.223 0-4.543-3.93-8.227-8.778-8.227m0 0"/></clipPath><clipPath id="j"><path d="M585.59 447.723h17.605v16.449H585.59Zm0 0"/></clipPath><clipPath id="k"><path d="M594.367 447.723c-4.847 0-8.777 3.683-8.777 8.226s3.93 8.223 8.777 8.223c4.848 0 8.778-3.68 8.778-8.223s-3.93-8.226-8.778-8.226m0 0"/></clipPath><clipPath id="l"><path d="M644.223 399.82h17.605v16.45h-17.605Zm0 0"/></clipPath><clipPath id="m"><path d="M653 399.82c-4.848 0-8.777 3.684-8.777 8.227 0 4.539 3.93 8.223 8.777 8.223 4.848 0 8.777-3.684 8.777-8.223 0-4.543-3.93-8.227-8.777-8.227m0 0"/></clipPath><clipPath id="n"><path d="M585.59 351.766h17.605v16.449H585.59Zm0 0"/></clipPath><clipPath id="o"><path d="M594.367 351.766c-4.847 0-8.777 3.68-8.777 8.222 0 4.543 3.93 8.227 8.777 8.227 4.848 0 8.778-3.684 8.778-8.227s-3.93-8.222-8.778-8.222m0 0"/></clipPath><clipPath id="p"><path d="M626.664 368.215h17.606v16.45h-17.606Zm0 0"/></clipPath><clipPath id="q"><path d="M635.445 368.215c-4.851 0-8.78 3.68-8.78 8.223 0 4.542 3.929 8.226 8.78 8.226 4.848 0 8.778-3.684 8.778-8.226s-3.93-8.223-8.778-8.223m0 0"/></clipPath><clipPath id="r"><path d="M544.52 434.035h17.605v16.45H544.52Zm0 0"/></clipPath><clipPath id="s"><path d="M553.297 434.035c-4.848 0-8.777 3.684-8.777 8.227 0 4.539 3.93 8.222 8.777 8.222 4.851 0 8.781-3.683 8.781-8.222 0-4.543-3.93-8.227-8.781-8.227m0 0"/></clipPath><clipPath id="t"><path d="M626.664 438.957h17.606v16.45h-17.606Zm0 0"/></clipPath><clipPath id="u"><path d="M635.445 438.957c-4.851 0-8.78 3.684-8.78 8.227s3.929 8.222 8.78 8.222c4.848 0 8.778-3.68 8.778-8.222 0-4.543-3.93-8.227-8.778-8.227m0 0"/></clipPath><clipPath id="v"><path d="M544.52 365.492h17.605v16.45H544.52Zm0 0"/></clipPath><clipPath id="w"><path d="M553.297 365.492c-4.848 0-8.777 3.68-8.777 8.223s3.93 8.226 8.777 8.226c4.851 0 8.781-3.683 8.781-8.226s-3.93-8.223-8.781-8.223m0 0"/></clipPath><clipPath id="x"><path d="M694.078 460.871h70.824v66.172h-70.824Zm0 0"/></clipPath><clipPath id="y"><path d="M729.39 460.871c-19.503 0-35.312 14.813-35.312 33.086s15.809 33.086 35.313 33.086 35.316-14.813 35.316-33.086-15.812-33.086-35.316-33.086m0 0"/></clipPath><clipPath id="z"><path d="M576.809 396.52H612v32.898h-35.191Zm0 0"/></clipPath><clipPath id="A"><path d="M594.367 396.52c-9.695 0-17.558 7.363-17.558 16.449 0 9.082 7.863 16.449 17.558 16.449s17.559-7.367 17.559-16.45c0-9.085-7.864-16.448-17.559-16.448m0 0"/></clipPath><clipPath id="B"><path d="M526.965 555.55h17.605V572h-17.605Zm0 0"/></clipPath><clipPath id="C"><path d="M535.742 555.55c-4.847 0-8.777 3.684-8.777 8.227 0 4.54 3.93 8.223 8.777 8.223 4.848 0 8.778-3.684 8.778-8.223 0-4.543-3.93-8.226-8.778-8.226m0 0"/></clipPath><clipPath id="D"><path d="M585.59 603.453h17.605v16.45H585.59Zm0 0"/></clipPath><clipPath id="E"><path d="M594.367 603.453c-4.847 0-8.777 3.684-8.777 8.227 0 4.539 3.93 8.222 8.777 8.222 4.848 0 8.778-3.683 8.778-8.222 0-4.543-3.93-8.227-8.778-8.227m0 0"/></clipPath><clipPath id="F"><path d="M644.223 555.55h17.605V572h-17.605Zm0 0"/></clipPath><clipPath id="G"><path d="M653 555.55c-4.848 0-8.777 3.684-8.777 8.227 0 4.54 3.93 8.223 8.777 8.223 4.848 0 8.777-3.684 8.777-8.223 0-4.543-3.93-8.226-8.777-8.226m0 0"/></clipPath><clipPath id="H"><path d="M585.59 507.496h17.605v16.45H585.59Zm0 0"/></clipPath><clipPath id="I"><path d="M594.367 507.496c-4.847 0-8.777 3.68-8.777 8.223s3.93 8.226 8.777 8.226c4.848 0 8.778-3.683 8.778-8.226s-3.93-8.223-8.778-8.223m0 0"/></clipPath><clipPath id="J"><path d="M626.664 523.945h17.606v16.446h-17.606Zm0 0"/></clipPath><clipPath id="K"><path d="M635.445 523.945c-4.851 0-8.78 3.68-8.78 8.223s3.929 8.223 8.78 8.223c4.848 0 8.778-3.68 8.778-8.223s-3.93-8.223-8.778-8.223m0 0"/></clipPath><clipPath id="L"><path d="M544.52 589.766h17.605v16.449H544.52Zm0 0"/></clipPath><clipPath id="M"><path d="M553.297 589.766c-4.848 0-8.777 3.683-8.777 8.226 0 4.54 3.93 8.223 8.777 8.223 4.851 0 8.781-3.684 8.781-8.223 0-4.543-3.93-8.226-8.781-8.226m0 0"/></clipPath><clipPath id="N"><path d="M626.664 589.766h17.606v16.449h-17.606Zm0 0"/></clipPath><clipPath id="O"><path d="M635.445 589.766c-4.851 0-8.78 3.683-8.78 8.226 0 4.54 3.929 8.223 8.78 8.223 4.848 0 8.778-3.684 8.778-8.223 0-4.543-3.93-8.226-8.778-8.226m0 0"/></clipPath><clipPath id="P"><path d="M544.52 521.223h17.605v16.449H544.52Zm0 0"/></clipPath><clipPath id="Q"><path d="M553.297 521.223c-4.848 0-8.777 3.68-8.777 8.222 0 4.543 3.93 8.227 8.777 8.227 4.851 0 8.781-3.684 8.781-8.227s-3.93-8.222-8.781-8.222m0 0"/></clipPath><clipPath id="R"><path d="M576.809 552.25H612v32.898h-35.191Zm0 0"/></clipPath><clipPath id="S"><path d="M594.367 552.25c-9.695 0-17.558 7.363-17.558 16.45 0 9.081 7.863 16.448 17.558 16.448s17.559-7.367 17.559-16.449c0-9.086-7.864-16.449-17.559-16.449m0 0"/></clipPath><clipPath id="T"><path d="M788.195 412.969h17.606v16.449h-17.606Zm0 0"/></clipPath><clipPath id="U"><path d="M796.973 412.969c-4.848 0-8.778 3.68-8.778 8.222 0 4.543 3.93 8.227 8.778 8.227 4.851 0 8.78-3.684 8.78-8.227s-3.929-8.222-8.78-8.222m0 0"/></clipPath><clipPath id="V"><path d="M846.82 460.871h17.606v16.45H846.82Zm0 0"/></clipPath><clipPath id="W"><path d="M855.598 460.871c-4.848 0-8.778 3.684-8.778 8.223 0 4.543 3.93 8.226 8.778 8.226 4.851 0 8.78-3.683 8.78-8.226 0-4.54-3.929-8.223-8.78-8.223m0 0"/></clipPath><clipPath id="X"><path d="M905.453 412.969H923v16.449h-17.547Zm0 0"/></clipPath><clipPath id="Y"><path d="M914.234 412.969c-4.851 0-8.78 3.68-8.78 8.222 0 4.543 3.929 8.227 8.78 8.227 4.848 0 8.778-3.684 8.778-8.227s-3.93-8.222-8.778-8.222m0 0"/></clipPath><clipPath id="Z"><path d="M846.82 364.91h17.606v16.45H846.82Zm0 0"/></clipPath><clipPath id="aa"><path d="M855.598 364.91c-4.848 0-8.778 3.684-8.778 8.227s3.93 8.222 8.778 8.222c4.851 0 8.78-3.68 8.78-8.222 0-4.543-3.929-8.227-8.78-8.227m0 0"/></clipPath><clipPath id="ab"><path d="M887.898 381.36h17.606v16.449h-17.606Zm0 0"/></clipPath><clipPath id="ac"><path d="M896.676 381.36c-4.848 0-8.778 3.683-8.778 8.226 0 4.539 3.93 8.223 8.778 8.223 4.847 0 8.777-3.684 8.777-8.223 0-4.543-3.93-8.227-8.777-8.227m0 0"/></clipPath><clipPath id="ad"><path d="M805.754 447.184h17.605v16.449h-17.605Zm0 0"/></clipPath><clipPath id="ae"><path d="M814.531 447.184c-4.847 0-8.777 3.68-8.777 8.222 0 4.543 3.93 8.227 8.777 8.227 4.848 0 8.778-3.684 8.778-8.227s-3.93-8.222-8.778-8.222m0 0"/></clipPath><clipPath id="af"><path d="M887.898 447.184h17.606v16.449h-17.606Zm0 0"/></clipPath><clipPath id="ag"><path d="M896.676 447.184c-4.848 0-8.778 3.68-8.778 8.222 0 4.543 3.93 8.227 8.778 8.227 4.847 0 8.777-3.684 8.777-8.227s-3.93-8.222-8.777-8.222m0 0"/></clipPath><clipPath id="ah"><path d="M805.754 378.637h17.605v16.449h-17.605Zm0 0"/></clipPath><clipPath id="ai"><path d="M814.531 378.637c-4.847 0-8.777 3.683-8.777 8.226 0 4.54 3.93 8.223 8.777 8.223 4.848 0 8.778-3.684 8.778-8.223 0-4.543-3.93-8.226-8.778-8.226m0 0"/></clipPath><clipPath id="aj"><path d="M838.043 404.742h35.21v32.899h-35.21Zm0 0"/></clipPath><clipPath id="ak"><path d="M855.598 404.742c-9.696 0-17.555 7.367-17.555 16.45 0 9.085 7.86 16.449 17.555 16.449 9.699 0 17.558-7.364 17.558-16.45 0-9.082-7.86-16.449-17.558-16.449m0 0"/></clipPath><clipPath id="al"><path d="M788.195 550.629h17.606v16.45h-17.606Zm0 0"/></clipPath><clipPath id="am"><path d="M796.973 550.629c-4.848 0-8.778 3.683-8.778 8.223 0 4.543 3.93 8.226 8.778 8.226 4.851 0 8.78-3.683 8.78-8.226 0-4.54-3.929-8.223-8.78-8.223m0 0"/></clipPath><clipPath id="an"><path d="M846.82 603.453h17.606v16.45H846.82Zm0 0"/></clipPath><clipPath id="ao"><path d="M855.598 603.453c-4.848 0-8.778 3.684-8.778 8.227 0 4.539 3.93 8.222 8.778 8.222 4.851 0 8.78-3.683 8.78-8.222 0-4.543-3.929-8.227-8.78-8.227m0 0"/></clipPath><clipPath id="ap"><path d="M905.453 550.629H923v16.45h-17.547Zm0 0"/></clipPath><clipPath id="aq"><path d="M914.234 550.629c-4.851 0-8.78 3.683-8.78 8.223 0 4.543 3.929 8.226 8.78 8.226 4.848 0 8.778-3.683 8.778-8.226 0-4.54-3.93-8.223-8.778-8.223m0 0"/></clipPath><clipPath id="ar"><path d="M846.82 502.574h17.606v16.446H846.82Zm0 0"/></clipPath><clipPath id="as"><path d="M855.598 502.574c-4.848 0-8.778 3.68-8.778 8.223s3.93 8.223 8.778 8.223c4.851 0 8.78-3.68 8.78-8.223s-3.929-8.223-8.78-8.223m0 0"/></clipPath><clipPath id="at"><path d="M887.898 519.02h17.606v16.449h-17.606Zm0 0"/></clipPath><clipPath id="au"><path d="M896.676 519.02c-4.848 0-8.778 3.683-8.778 8.226s3.93 8.223 8.778 8.223c4.847 0 8.777-3.68 8.777-8.223s-3.93-8.226-8.777-8.226m0 0"/></clipPath><clipPath id="av"><path d="M805.754 589.766h17.605v16.449h-17.605Zm0 0"/></clipPath><clipPath id="aw"><path d="M814.531 589.766c-4.847 0-8.777 3.683-8.777 8.226 0 4.54 3.93 8.223 8.777 8.223 4.848 0 8.778-3.684 8.778-8.223 0-4.543-3.93-8.226-8.778-8.226m0 0"/></clipPath><clipPath id="ax"><path d="M887.898 589.766h17.606v16.449h-17.606Zm0 0"/></clipPath><clipPath id="ay"><path d="M896.676 589.766c-4.848 0-8.778 3.683-8.778 8.226 0 4.54 3.93 8.223 8.778 8.223 4.847 0 8.777-3.684 8.777-8.223 0-4.543-3.93-8.226-8.777-8.226m0 0"/></clipPath><clipPath id="az"><path d="M805.754 516.297h17.605v16.45h-17.605Zm0 0"/></clipPath><clipPath id="aA"><path d="M814.531 516.297c-4.847 0-8.777 3.683-8.777 8.226s3.93 8.223 8.777 8.223c4.848 0 8.778-3.68 8.778-8.223s-3.93-8.226-8.778-8.226m0 0"/></clipPath><clipPath id="aB"><path d="M838.043 547.328h35.21v32.895h-35.21Zm0 0"/></clipPath><clipPath id="aC"><path d="M855.598 547.328c-9.696 0-17.555 7.363-17.555 16.45 0 9.081 7.86 16.445 17.555 16.445 9.699 0 17.558-7.364 17.558-16.446 0-9.086-7.86-16.449-17.558-16.449m0 0"/></clipPath><clipPath id="aD"><path d="M161.813 111.668H353.75v124.395H161.813Zm0 0"/></clipPath><clipPath id="aE"><path d="M177.563 111.668h160.41c8.695 0 15.75 7.05 15.75 15.75v92.895c0 8.699-7.055 15.75-15.75 15.75h-160.41c-8.7 0-15.75-7.051-15.75-15.75v-92.895c0-8.7 7.05-15.75 15.75-15.75m0 0"/></clipPath><filter id="g" width="100%" height="100%" x="0%" y="0%" filterUnits="objectBoundingBox"><feColorMatrix in="SourceGraphic" values="0 0 0 0 1 0 0 0 0 1 0 0 0 0 1 0 0 0 1 0"/></filter></defs><path d="M0 0h1440v810H0z" style="fill:#fff;fill-opacity:1;stroke:none"/><path d="M0 0h1440v810H0z" style="fill:#0f0f2e;fill-opacity:1;stroke:none"/><g mask="url(#a)" transform="translate(432 312)"><g clip-path="url(#b)"><g clip-path="url(#c)"><g clip-path="url(#d)"><path d="M14.684 14.883h546.77v313.84H14.683Zm0 0" style="stroke:none;fill-rule:nonzero;fill:#ecefff;fill-opacity:1"/></g></g><g clip-path="url(#e)"><g clip-path="url(#f)"><path d="M51.002-.002h626.83c28.165 0 50.997 22.838 50.997 51.003v316.447c0 28.166-22.832 50.998-50.998 50.998H51.001c-28.165 0-51.003-22.832-51.003-50.998V51.001c0-28.165 22.838-51.003 51.004-51.003Zm0 0" style="fill:none;stroke-width:8;stroke-linecap:butt;stroke-linejoin:miter;stroke:#55595b;stroke-opacity:1;stroke-miterlimit:4" transform="matrix(.74919 0 0 .74919 14.685 14.884)"/></g></g></g><mask id="a"><g filter="url(#g)"><path d="M0 0h1440v810H0z" style="fill:#000;fill-opacity:.36;stroke:none"/></g></mask></g><g clip-path="url(#h)"><g clip-path="url(#i)"><path d="M526.965 399.82h17.539v16.45h-17.54Zm0 0" style="stroke:none;fill-rule:nonzero;fill:#e2caf1;fill-opacity:1"/></g></g><g clip-path="url(#j)"><g clip-path="url(#k)"><path d="M585.59 447.723h17.539v16.449h-17.54Zm0 0" style="stroke:none;fill-rule:nonzero;fill:#e2caf1;fill-opacity:1"/></g></g><g clip-path="url(#l)"><g clip-path="url(#m)"><path d="M644.223 399.82h17.539v16.45h-17.54Zm0 0" style="stroke:none;fill-rule:nonzero;fill:#e2caf1;fill-opacity:1"/></g></g><g clip-path="url(#n)"><g clip-path="url(#o)"><path d="M585.59 351.766h17.539v16.449h-17.54Zm0 0" style="stroke:none;fill-rule:nonzero;fill:#e2caf1;fill-opacity:1"/></g></g><g clip-path="url(#p)"><g clip-path="url(#q)"><path d="M626.664 368.215h17.543v16.45h-17.543Zm0 0" style="stroke:none;fill-rule:nonzero;fill:#e2caf1;fill-opacity:1"/></g></g><g clip-path="url(#r)"><g clip-path="url(#s)"><path d="M544.52 434.035h17.543v16.45H544.52Zm0 0" style="stroke:none;fill-rule:nonzero;fill:#e2caf1;fill-opacity:1"/></g></g><g clip-path="url(#t)"><g clip-path="url(#u)"><path d="M626.664 438.957h17.543v16.45h-17.543Zm0 0" style="stroke:none;fill-rule:nonzero;fill:#e2caf1;fill-opacity:1"/></g></g><g clip-path="url(#v)"><g clip-path="url(#w)"><path d="M544.52 365.492h17.543v16.45H544.52Zm0 0" style="stroke:none;fill-rule:nonzero;fill:#e2caf1;fill-opacity:1"/></g></g><path d="m719.84 483.46.676-.323.32.675-.676.325m1.031-1.325.676-.32.324.676-.675.324m1.03-1.324.677-.324.324.68-.68.32m1.031-1.32.676-.325.324.676-.675.324m1.03-1.324.677-.324.324.68-.68.32m1.031-1.32.676-.325.324.676-.675.324m1.03-1.324.677-.324.324.68-.68.32m1.032-1.32.675-.325.324.676-.675.324m1.031-1.324.676-.324.324.68-.68.32m1.032-1.32.675-.325.325.676-.676.324m1.031-1.324.676-.32.324.676-.68.324m1.032-1.324.675-.325.325.676-.676.324m1.031-1.324.676-.32.324.676-.68.324m1.032-1.324.68-.325.32.676-.676.324m1.031-1.324.676-.32.324.676-.676.324m1.028-1.324.68-.325.32.676-.676.324m1.031-1.324.676-.32.324.676-.676.324m1.028-1.324.68-.325.32.68-.676.32m1.031-1.32.676-.324.324.676-.676.324m1.028-1.324.68-.325.32.68-.676.32m1.031-1.32.676-.324.324.676-.676.324m1.028-1.324.68-.325.32.68-.676.32m1.031-1.32.676-.324.324.676-.676.324m1.028-1.324.68-.324.32.68-.676.32m1.031-1.32.676-.325.324.676-.676.324m1.032-1.324.675-.32.325.675-.68.324m1.031-1.324.676-.324.324.676-.676.324m1.032-1.324.676-.32.324.675-.68.325m1.031-1.325.676-.324.324.676-.676.324m1.032-1.324.676-.32.324.675-.68.325m1.031-1.325.676-.324.324.676-.675.324m1.03-1.324.677-.32.324.675-.68.325m1.031-1.325.676-.324.324.68-.675.32m1.03-1.32.677-.324.324.675-.68.325m1.031-1.325.676-.324.324.68-.675.32m1.03-1.32.677-.324.324.675-.68.325m1.031-1.325.68-.324.32.68-.675.32m1.03-1.32.677-.324.324.675-.676.325m1.027-1.325.68-.324.32.68-.675.32m1.03-1.32.677-.324.324.675-.676.325m1.027-1.325.68-.32.32.676-.675.324m1.03-1.324.677-.324.324.675-.676.325m1.028-1.325.68-.32.32.676-.676.324m1.031-1.324.676-.324.324.676-.676.324m1.028-1.324.68-.32.32.675-.676.324m1.031-1.324.676-.324.324.676-.676.324m1.028-1.32.68-.325.32.676-.676.324m1.031-1.324.676-.324.324.68-.676.32m1.032-1.32.675-.325.324.676-.68.324m1.032-1.324.676-.324.324.68-.676.32m1.032-1.32.675-.325.325.676-.68.324m1.031-1.324.676-.324.324.68-.676.32m1.032-1.32.675-.325.325.676-.68.324m1.031-1.324.676-.32.324.676-.676.32m1.032-1.32.675-.325.325.676-.68.324m1.031-1.324.676-.32.324.676-.676.324m1.032-1.324.675-.325.325.676-.68.324m1.031-1.324.676-.32.324.676-.676.324m1.032-1.324.675-.325.325.676-.68.324m1.031-1.324.68-.32.32.676-.676.324m1.032-1.324.675-.325.325.676-.68.324m1.031-1.32.68-.324.32.676-.676.324m1.032-1.324.676-.325.324.68-.676.32m1.027-1.32.68-.324.32.676-.676.324m1.032-1.324.676-.324.324.68-.676.32m1.027-1.32.68-.325.32.676-.675.324m1.03-1.324.677-.324.324.68-.676.32m1.027-1.32.68-.325.32.676-.675.324m1.03-1.324.677-.32.324.675-.676.325m1.027-1.325.68-.324.32.676-.675.324m1.03-1.324.677-.32.324.675-.676.325m1.027-1.325.68-.324.32.676-.675.324m1.03-1.324.677-.32.324.675-.676.325m1.031-1.325.676-.324.324.676-.68.324m1.032-1.324.676-.32.324.675-.676.325m1.031-1.325.676-.324.324.68-.68.32m1.032-1.32.676-.324.324.675-.676.325m1.031-1.325.676-.324.324.68-.68.32m1.032-1.32.676-.324.324.675-.676.325m1.031-1.325.676-.324.324.68-.68.32m1.032-1.32.676-.324.324.675-.676.325m1.031-1.325.676-.324.324.68-.68.32m1.032-1.32.676-.324.324.675-.676.325m1.032-1.325.675-.32.324.676-.68.324m1.032-1.324.68-.324.32.676-.676.324m1.032-1.324.675-.32.325.675-.676.324m1.027-1.324.68-.324.32.676-.676.324m1.032-1.324.675-.32.325.675-.676.324m1.027-1.324.68-.324.32.676-.676.324m1.032-1.324.675-.32.325.675-.676.324m1.027-1.324.68-.324.32.68-.676.32m1.032-1.32.675-.325.325.676-.676.324m1.027-1.324.68-.324.32.68-.676.32m1.032-1.32.675-.325.325.676-.676.324m1.027-1.324.68-.324.32.68-.676.32m1.032-1.32.675-.325.325.676-.676.324" style="stroke:none;fill-rule:nonzero;fill:#bbb;fill-opacity:1"/><path d="m719.813 484.129-.653-.371.367-.653.653.372m-1.672-.086-.653-.368.368-.652.652.367m-1.672-.082-.652-.367.367-.652.652.367m-1.672-.082-.652-.371.367-.649.653.368m-1.672-.086-.653-.368.368-.652.652.367m-1.672-.082-.652-.367.367-.652.652.367m-1.672-.082-.652-.367.367-.653.653.368m-1.672-.086-.653-.368.368-.652.652.367m-1.672-.082-.652-.367.367-.652.652.367m-1.672-.082-.652-.367.367-.653.653.367m-1.672-.082-.653-.37.367-.653.653.371m-1.672-.086-.652-.367.367-.652.652.367m-1.672-.082-.652-.367.367-.653.652.367m-1.671-.082-.653-.367.367-.652.653.367m-1.672-.086-.652-.367.367-.652.652.367m-1.672-.082-.652-.367.367-.653.652.367m-1.672-.082-.652-.367.367-.652.653.367m-1.672-.086-.653-.367.368-.652.652.367m-1.672-.082-.652-.367.367-.653.652.367m-1.672-.082-.652-.367.367-.652.653.367m-1.672-.082-.653-.371.368-.652.652.37m-1.672-.085-.652-.368.367-.652.652.367m-1.672-.082-.652-.367.367-.652.653.367m-1.672-.082-.653-.367.371-.653.649.368m-1.672-.086-.652-.368.37-.652.653.367m-1.676-.082-.652-.367.371-.652.652.367m-1.675-.082-.653-.367.371-.653.653.368m-1.676-.086-.652-.368.37-.652.653.367m-1.676-.082-.648-.367.367-.652.652.367m-1.672-.082-.652-.367.367-.653.653.368m-1.672-.082-.653-.372.368-.652.652.371m-1.672-.086-.652-.367.367-.652.652.367m-1.672-.082-.652-.367.367-.653.653.368m-1.672-.083-.653-.367.368-.652.652.367m-1.672-.086-.652-.367.367-.652.652.367m-1.672-.082-.652-.367.367-.653.653.367m-1.672-.082-.653-.367.367-.652.653.367m-1.672-.086-.652-.367.367-.652.652.367m-1.672-.082-.652-.367.367-.653.652.367m-1.671-.082-.653-.367.367-.652.653.367m-1.672-.082-.652-.371.367-.652.652.37m-1.672-.085-.652-.367.367-.653.652.367m-1.671-.082-.653-.367.367-.652.653.367m-1.672-.082-.653-.367.368-.653.652.368m-1.672-.086-.652-.367.367-.653.652.367m-1.672-.082-.652-.367.367-.652.653.367m-1.672-.082-.653-.367.368-.653.652.368m-1.672-.086-.652-.368.367-.652.652.371m-1.672-.086-.652-.367.367-.652.653.367m-1.672-.082-.653-.367.368-.653.652.368m-1.672-.082-.652-.372.367-.652.652.371m-1.672-.086-.652-.367.367-.652.653.367m-1.672-.082-.653-.367.367-.653.653.368m-1.672-.082-.652-.368.367-.652.652.367m-1.672-.086-.652-.367.367-.652.652.367m-1.671-.082-.653-.367.367-.653.653.368m-1.672-.082-.652-.368.367-.652.652.367m-1.672-.086-.652-.367.367-.652.652.37m-1.671-.085-.653-.367.371-.653.649.368m-1.672-.083-.653-.367.372-.652.652.367m-1.676-.082-.652-.371.37-.652.653.37m-1.676-.085-.652-.367.371-.653.653.367m-1.676-.082-.653-.367.372-.652.652.367m-1.676-.082-.652-.367.37-.652.653.367m-1.672-.086-.652-.367.367-.653.653.367m-1.672-.082-.653-.367.367-.652.653.367m-1.672-.082-.652-.367.367-.652.652.367m-1.672-.082-.652-.371.367-.653.652.371m-1.671-.086-.653-.367.367-.652.653.367m-1.672-.082-.652-.367.367-.653.652.368m-1.672-.082-.652-.371.367-.653.652.371m-1.672-.086-.652-.367.367-.652.653.367m-1.672-.082-.653-.367.368-.653.652.368m-1.672-.082-.652-.368.367-.652.652.367m-1.672-.086-.652-.367.367-.652.653.367m-1.672-.082-.653-.367.368-.653.652.368m-1.672-.082-.652-.368.367-.652.652.367m-1.672-.082-.652-.37.367-.653.653.37m-1.672-.085-.653-.367.368-.653.652.368m-1.672-.082-.652-.368.367-.652.652.367m-1.672-.082-.652-.37.367-.653.653.37m-1.672-.085-.653-.367.367-.653.653.368m-1.672-.082-.652-.368.367-.652.652.367m-1.672-.082-.652-.367.367-.652.652.367m-1.671-.086-.653-.367.367-.653.653.368" style="stroke:none;fill-rule:nonzero;fill:#bbb;fill-opacity:1"/><path d="m720.207 484.113-.621.422-.422-.62.621-.423m-.82 1.461-.621.422-.422-.621.621-.422m-.82 1.461-.621.422-.422-.621.62-.422m-.82 1.46-.62.423-.423-.621.622-.422m-.82 1.465-.622.418-.422-.622.621-.418m-.82 1.461-.621.418-.422-.62.621-.419m-.82 1.461-.621.422-.422-.621.621-.422m-.82 1.461-.621.422-.422-.621.62-.422m-.82 1.46-.62.423-.422-.621.62-.422m-.82 1.46-.625.423-.418-.621.621-.422m-.824 1.465-.62.418-.419-.622.621-.418m-.824 1.461-.621.418-.418-.62.621-.419m-.824 1.461-.621.422-.418-.621.62-.422m-.823 1.461-.621.422-.418-.621.62-.422m-.823 1.46-.622.423-.418-.621.622-.422m-.825 1.465-.62.418-.419-.621.621-.418m-.824 1.46-.621.418-.418-.62.621-.419m-.824 1.461-.621.418-.418-.62.621-.419m-.824 1.461-.621.422-.422-.621.62-.422m-.82 1.461-.62.422-.422-.621.62-.422m-.82 1.46-.62.423-.423-.621.621-.422m-.82 1.465-.62.418-.423-.622.621-.417m-.82 1.46-.621.418-.422-.62.621-.419m-.82 1.461-.621.422-.422-.625.62-.418m-.82 1.461-.62.422-.422-.621.62-.422m-.82 1.461-.62.422-.423-.621.622-.422m-.82 1.46-.622.423-.422-.621.621-.422m-.82 1.465-.621.418-.422-.622.621-.418m-.82 1.461-.621.418-.422-.62.621-.419m-.824 1.461-.621.422-.418-.62.62-.423m-.823 1.461-.621.422-.418-.621.62-.422m-.824 1.461-.62.422-.419-.621.621-.422m-.824 1.46-.62.423-.419-.621.621-.422m-.824 1.465-.621.418-.418-.622.621-.418m-.824 1.461-.621.418-.418-.62.62-.419m-.823 1.461-.621.422-.418-.621.62-.422m-.824 1.461-.62.422-.419-.621.621-.422m-.824 1.46-.62.423-.423-.621.625-.422m-.824 1.465-.621.418-.422-.621.621-.422m-.82 1.465-.621.418-.422-.622.621-.418m-.82 1.461-.621.418-.422-.62.62-.419m-.82 1.461-.62.422-.422-.621.62-.422m-.82 1.461-.62.422-.423-.621.621-.422m-.82 1.46-.62.423-.423-.621.621-.422m-.82 1.465-.621.418-.422-.621.621-.418m-.82 1.46-.621.418-.422-.62.62-.419m-.82 1.461-.62.418-.422-.62.62-.419m-.82 1.461-.62.422-.423-.621.622-.422m-.82 1.461-.622.422-.422-.621.621-.422m-.824 1.46-.621.423-.418-.621.621-.422m-.824 1.465-.621.418-.418-.621.621-.418m-.824 1.46-.621.418-.418-.62.62-.419m-.823 1.461-.622.422-.418-.625.622-.418m-.825 1.461-.62.422-.419-.621.621-.422m-.824 1.461-.62.422-.419-.621.621-.422m-.824 1.46-.621.423-.418-.621.621-.422m-.824 1.465-.621.418-.418-.622.62-.418m-.823 1.461-.621.418-.422-.62.62-.419m-.82 1.461-.62.422-.423-.62.622-.423m-.82 1.461-.622.422-.422-.621.621-.422m-.82 1.461-.621.422-.422-.621.621-.422m-.82 1.46-.621.423-.422-.621.621-.422m-.82 1.465-.621.418-.422-.622.62-.418m-.82 1.461-.62.418-.422-.62.62-.419m-.82 1.461-.62.422-.423-.621.621-.422m-.82 1.461-.621.422-.422-.621.621-.422m-.82 1.46-.621.423-.422-.621.621-.422m-.82 1.465-.621.418-.422-.621.62-.418m-.82 1.46-.624.418-.418-.62.62-.419m-.824 1.461-.62.418-.419-.62.621-.419m-.824 1.461-.62.422-.419-.621.621-.422m-.824 1.461-.621.422-.418-.621.621-.422m-.824 1.46-.621.423-.418-.621.62-.422m-.823 1.465-.621.418-.418-.621.62-.418m-.823 1.46-.622.418-.418-.62.622-.419m-.825 1.461-.62.418-.419-.62.621-.419m-.824 1.461-.62.422-.423-.621.625-.422m-.824 1.461-.621.422-.422-.621.621-.422m-.82 1.46-.621.423-.422-.621.62-.422m-.82 1.465-.62.418-.422-.621.62-.418m-.82 1.46-.62.418-.423-.62.622-.419m-.82 1.461-.622.422-.422-.62.621-.423m-.82 1.461-.621.422-.422-.621.621-.422m-.82 1.461-.621.422-.422-.621.621-.422m-.82 1.46-.621.423-.422-.621.62-.422m-.82 1.465-.62.418-.423-.622.622-.418m-.82 1.461-.622.418-.422-.62.621-.419m-.82 1.461-.621.422-.422-.62.621-.423m-.824 1.461-.621.422-.418-.621.621-.422" style="stroke:none;fill-rule:nonzero;fill:#bbb;fill-opacity:1"/><path d="m720.184 483.477.652.37-.371.653-.653-.371m1.676.09.653.37-.371.653-.653-.37m1.676.089.652.371-.37.652-.653-.37m1.672.09.652.37-.371.649-.652-.368m1.675.09.653.371-.371.649-.653-.371m1.676.09.652.37-.37.653-.653-.371m1.672.09.652.37-.37.653-.653-.37m1.676.089.652.371-.371.652-.653-.37m1.676.09.653.37-.371.653-.653-.372m1.672.09.652.371-.37.653-.653-.371m1.676.09.652.37-.371.653-.652-.371m1.675.09.653.37-.371.65-.653-.368m1.672.09.653.367-.372.652-.652-.37m1.676.09.652.37-.37.653-.653-.371m1.676.09.652.37-.371.653-.653-.371m1.672.09.653.37-.371.653-.653-.371m1.676.09.652.37-.37.653-.653-.37m1.676.089.652.371-.371.652-.652-.37m1.672.09.652.37-.371.653-.653-.372m1.676.09.653.371-.372.649-.652-.371m1.676.094.652.367-.37.652-.653-.371m1.672.09.652.37-.371.653-.649-.37m1.672.089.653.371-.371.652-.653-.37m1.676.09.652.37-.37.653-.653-.372m1.672.09.652.371-.37.653-.65-.371m1.673.09.652.37-.371.653-.653-.371m1.676.09.653.37-.372.653-.652-.37m1.672.089.652.371-.37.648-.65-.37m1.673.09.652.37-.371.653-.652-.371m1.675.09.653.37-.371.653-.653-.371m1.672.09.653.37-.372.653-.648-.371m1.672.09.652.37-.37.653-.653-.37m1.676.089.652.371-.371.652-.653-.37m1.672.09.653.37-.371.653-.649-.372m1.672.09.652.371-.37.649-.653-.367m1.676.09.652.37-.371.649-.652-.371m1.671.09.653.37-.371.653-.649-.37m1.672.089.653.371-.372.652-.652-.37m1.676.09.652.37-.37.653-.653-.371m1.672.09.652.37-.371.653-.649-.371m1.672.09.653.37-.371.653-.653-.371m1.676.09.652.37-.37.653-.653-.37m1.672.089.652.371-.371.648-.648-.367m1.671.09.653.371-.371.649-.653-.371m1.676.09.653.37-.372.653-.652-.371m1.676.09.648.37-.37.653-.65-.371m1.673.09.652.37-.371.653-.652-.37m1.675.089.653.371-.371.652-.653-.37m1.676.09.648.37-.37.653-.65-.372m1.673.09.652.371-.371.653-.652-.371m1.675.09.653.37-.371.649-.653-.371m1.676.094.649.367-.371.652-.649-.37m1.672.089.652.371-.37.652-.653-.37m1.676.09.652.37-.371.653-.652-.371m1.675.09.649.37-.371.653-.649-.371m1.672.09.652.37-.37.653-.653-.371m1.676.09.652.37-.371.653-.652-.37m1.675.089.649.371-.371.652-.649-.37m1.672.09.653.37-.371.649-.653-.371m1.676.093.652.367-.37.653-.653-.371m1.676.09.648.37-.371.653-.648-.371m1.671.09.653.37-.371.653-.653-.37m1.676.089.652.371-.37.652-.653-.37m1.676.09.648.37-.37.653-.65-.372m1.673.09.652.371-.371.653-.653-.371m1.676.09.653.37-.371.653-.653-.371m1.676.09.648.37-.37.65-.65-.372m1.673.09.652.371-.371.652-.652-.37m1.675.09.653.37-.371.653-.653-.371m1.676.09.649.37-.372.653-.648-.371m1.672.09.652.37-.37.653-.653-.371m1.676.09.652.37-.371.653-.653-.37m1.676.089.649.371-.371.652-.649-.37m1.672.09.652.37-.37.649-.653-.368m1.676.09.652.371-.371.649-.652-.371m1.675.09.649.37-.371.653-.649-.371m1.672.09.653.37-.372.653-.652-.37m1.676.089.652.371-.37.652-.653-.37m1.676.09.648.37-.367.653-.653-.372m1.672.09.653.371-.371.653-.653-.371m1.676.09.652.37-.37.653-.653-.371m1.676.09.648.37-.367.65-.652-.368m1.672.09.652.367-.371.652-.653-.37m1.676.09.653.37-.372.653-.652-.371m1.676.09.648.37-.367.653-.652-.371m1.672.09.652.37-.371.653-.652-.371m1.675.09.653.37-.371.653-.653-.37m1.676.089.648.371-.367.652-.652-.37m1.672.09.652.37-.37.653-.653-.372m1.676.09.652.371-.371.649-.653-.371m1.676.093.649.368-.368.652-.652-.371m1.672.09.652.37-.37.653-.653-.37m1.676.089.652.371-.371.652-.652-.37m1.675.09.649.37-.367.653-.653-.372m1.672.09.652.371-.37.653-.653-.371m1.676.09.652.37-.37.653-.653-.371m1.676.09.648.37-.367.653-.653-.371m1.672.09.653.371-.371.648-.653-.37m1.676.09.652.37-.37.653-.653-.371m1.676.09.652.37-.371.653-.652-.371" style="stroke:none;fill-rule:nonzero;fill:#bbb;fill-opacity:1"/><g clip-path="url(#x)"><g clip-path="url(#y)"><path d="M694.078 460.871h70.567v66.172h-70.567Zm0 0" style="stroke:none;fill-rule:nonzero;fill:#e2caf1;fill-opacity:1"/></g></g><path d="M593.988 447.719v-2.25h.75v2.25m-.75-3v-2.25h.75v2.25m-.75-3v-2.25h.75v2.25m-.75-3v-2.25h.75v2.25m-.75-3v-2.25h.75v2.25m-.75-3v-2.25h.75v2.25m-.75-3v-2.25h.75v2.25m-.75-3v-2.25h.75v2.25m-.75-3v-2.25h.75v2.25m-.75-3v-2.25h.75v2.25m-.75-3v-2.25h.75v2.25m-.75-3v-2.25h.75v2.25m-.75-3v-2.25h.75v2.25m-.75-3v-2.25h.75v2.25m-.75-3v-2.25h.75v2.25m-.75-3v-2.25h.75v2.25m-.75-3v-2.25h.75v2.25m-.75-3v-2.25h.75v2.25m-.75-3v-2.25h.75v2.25m-.75-3v-2.25h.75v2.25m-.75-3v-2.25h.75v2.25m-.75-3v-2.25h.75v2.25m-.75-3v-2.25h.75v2.25m-.75-3v-2.25h.75v2.25m-.75-3v-2.25h.75v2.25m-.75-3v-2.25h.75v2.25m-.75-3v-1.512h.75v1.512" style="stroke:none;fill-rule:nonzero;fill:#bbb;fill-opacity:1"/><path d="m559.992 436.926 1.735-1.438.476.578-1.734 1.434m1.836-2.488 1.73-1.434.48.578-1.734 1.434m1.832-2.492 1.735-1.434.476.578-1.73 1.434m1.832-2.488 1.734-1.438.477.578-1.735 1.434m1.832-2.489 1.735-1.433.48.578-1.734 1.434m1.832-2.493 1.734-1.433.477.578-1.73 1.433m1.831-2.488 1.735-1.437.476.578-1.734 1.433m1.832-2.488 1.734-1.433.48.578-1.734 1.433m1.832-2.492 1.735-1.433.476.578-1.73 1.433m1.832-2.488 1.73-1.438.48.579-1.733 1.433m1.832-2.488 1.734-1.434.48.578-1.734 1.434m1.832-2.492 1.734-1.434.477.578-1.734 1.434m1.836-2.488 1.73-1.438.48.578-1.734 1.434m1.832-2.488 1.735-1.434.476.578-1.73 1.434m1.832-2.492 1.734-1.434.477.578-1.735 1.434m1.836-2.489 1.73-1.437.481.578-1.734 1.434m1.832-2.489 1.734-1.433.477.578-1.73 1.433m1.831-2.492 1.735-1.433.476.578-1.734 1.433m1.836-2.488 1.73-1.437.48.578-1.734 1.433m1.832-2.488 1.735-1.434.476.579-1.73 1.433m1.832-2.492 1.734-1.434.477.579-1.735 1.433m1.836-2.488 1.73-1.438.481.578-1.734 1.434m1.832-2.488 1.734-1.434.477.578-1.73 1.434m1.831-2.492 1.735-1.434.476.578-1.734 1.434m1.832-2.488 1.734-1.438.48.578-1.734 1.434m1.833-2.489 1.734-1.433.476.578-1.73 1.434m1.832-2.493 1.734-1.433.477.578-1.734 1.434m1.832-2.489 1.734-1.437.48.578-1.734 1.433m1.832-2.488 1.735-1.433.476.578-1.73 1.433m1.832-2.492.89-.734.477.578-.89.734" style="stroke:none;fill-rule:nonzero;fill:#bbb;fill-opacity:1"/><path d="M544.52 407.672h2.25v.75h-2.25m3-.75h2.25v.75h-2.25m3-.75h2.25v.75h-2.25m3-.75h2.25v.75h-2.25m3-.75h2.25v.75h-2.25m3-.75h2.25v.75h-2.25m3-.75h2.25v.75h-2.25m3-.75h2.25v.75h-2.25m3-.75h2.25v.75h-2.25m3-.75h2.25v.75h-2.25m3-.75h2.25v.75h-2.25m3-.75h2.25v.75h-2.25m3-.75h2.25v.75h-2.25m3-.75h2.25v.75h-2.25m3-.75h2.25v.75h-2.25m3-.75h2.25v.75h-2.25m3-.75h2.25v.75h-2.25m3-.75h2.25v.75h-2.25m3-.75h2.25v.75h-2.25m3-.75h2.25v.75h-2.25m3-.75h2.25v.75h-2.25m3-.75h2.25v.75h-2.25m3-.75h2.25v.75h-2.25m3-.75h2.25v.75h-2.25m3-.75h2.25v.75h-2.25m3-.75h2.25v.75h-2.25m3-.75h2.25v.75h-2.25m3-.75h2.25v.75h-2.25m3-.75h2.25v.75h-2.25m3-.75h2.25v.75h-2.25m3-.75h2.25v.75h-2.25m3-.75h2.25v.75h-2.25m3-.75h2.25v.75h-2.25m3-.75h.703v.75h-.703" style="stroke:none;fill-rule:nonzero;fill:#bbb;fill-opacity:1"/><path d="m560.203 378.797 1.684 1.48-.496.563-1.684-1.48m2.738 1.413 1.684 1.48-.492.56-1.684-1.481m2.738 1.414 1.684 1.48-.492.563-1.684-1.48m2.739 1.414 1.683 1.48-.496.559-1.684-1.48m2.739 1.413 1.683 1.48-.492.563-1.683-1.48m2.738 1.414 1.683 1.48-.492.559-1.683-1.48m2.738 1.414 1.683 1.48-.496.563-1.683-1.481m2.742 1.414 1.684 1.48-.497.563-1.683-1.484m2.738 1.414 1.684 1.48-.492.563-1.684-1.48m2.738 1.413 1.684 1.48-.492.563-1.684-1.484m2.738 1.414 1.684 1.48-.496.563-1.684-1.48m2.739 1.414 1.683 1.48-.492.563-1.684-1.485m2.739 1.414 1.683 1.48-.492.563-1.684-1.48m2.739 1.414 1.683 1.48-.496.563-1.683-1.485m2.742 1.414 1.683 1.48-.496.563-1.683-1.48m2.738 1.414 1.684 1.48-.493.563-1.683-1.484m2.738 1.414 1.684 1.48-.492.563-1.684-1.48m2.738 1.413 1.684 1.48-.496.563-1.684-1.48m2.738 1.41 1.684 1.48-.492.563-1.684-1.48m2.738 1.413 1.684 1.48-.492.563-1.684-1.48m2.739 1.41 1.683 1.48-.496.563-1.684-1.48m2.739 1.414 1.683 1.48-.492.563-1.683-1.48m2.738 1.41 1.683 1.484-.492.558-1.683-1.48m2.738 1.414 1.684 1.48-.493.563-1.687-1.48m2.742 1.41 1.684 1.484-.496.558-1.684-1.48m2.738 1.414 1.684 1.48-.492.563-1.684-1.48m2.738 1.41 1.684 1.484-.492.559-1.684-1.48m2.738 1.413 1.684 1.48-.496.563-1.684-1.48m2.739 1.41 1.683 1.484-.492.559-1.684-1.48m2.739 1.413 1.683 1.481-.492.562-1.683-1.48m2.738 1.41 1.683 1.485-.496.558-1.683-1.48m2.742 1.414.238.21-.496.563-.238-.21" style="stroke:none;fill-rule:nonzero;fill:#bbb;fill-opacity:1"/><g clip-path="url(#z)"><g clip-path="url(#A)"><path d="M576.809 396.52h35.086v32.898h-35.086Zm0 0" style="stroke:none;fill-rule:nonzero;fill:#e2caf1;fill-opacity:1"/></g></g><g clip-path="url(#B)"><g clip-path="url(#C)"><path d="M526.965 555.55h17.539V572h-17.54Zm0 0" style="stroke:none;fill-rule:nonzero;fill:#e2caf1;fill-opacity:1"/></g></g><g clip-path="url(#D)"><g clip-path="url(#E)"><path d="M585.59 603.453h17.539v16.45h-17.54Zm0 0" style="stroke:none;fill-rule:nonzero;fill:#e2caf1;fill-opacity:1"/></g></g><g clip-path="url(#F)"><g clip-path="url(#G)"><path d="M644.223 555.55h17.539V572h-17.54Zm0 0" style="stroke:none;fill-rule:nonzero;fill:#e2caf1;fill-opacity:1"/></g></g><g clip-path="url(#H)"><g clip-path="url(#I)"><path d="M585.59 507.496h17.539v16.45h-17.54Zm0 0" style="stroke:none;fill-rule:nonzero;fill:#e2caf1;fill-opacity:1"/></g></g><g clip-path="url(#J)"><g clip-path="url(#K)"><path d="M626.664 523.945h17.543v16.446h-17.543Zm0 0" style="stroke:none;fill-rule:nonzero;fill:#e2caf1;fill-opacity:1"/></g></g><g clip-path="url(#L)"><g clip-path="url(#M)"><path d="M544.52 589.766h17.543v16.449H544.52Zm0 0" style="stroke:none;fill-rule:nonzero;fill:#e2caf1;fill-opacity:1"/></g></g><g clip-path="url(#N)"><g clip-path="url(#O)"><path d="M626.664 589.766h17.543v16.449h-17.543Zm0 0" style="stroke:none;fill-rule:nonzero;fill:#e2caf1;fill-opacity:1"/></g></g><g clip-path="url(#P)"><g clip-path="url(#Q)"><path d="M544.52 521.223h17.543v16.449H544.52Zm0 0" style="stroke:none;fill-rule:nonzero;fill:#e2caf1;fill-opacity:1"/></g></g><path d="M593.988 603.45v-2.25h.75v2.25m-.75-3v-2.25h.75v2.25m-.75-3v-2.25h.75v2.25m-.75-3v-2.25h.75v2.25m-.75-3v-2.25h.75v2.25m-.75-3v-2.25h.75v2.25m-.75-3v-2.25h.75v2.25m-.75-3v-2.25h.75v2.25m-.75-3v-2.25h.75v2.25m-.75-3v-2.25h.75v2.25m-.75-3v-2.25h.75v2.25m-.75-3v-2.25h.75v2.25m-.75-3v-2.25h.75v2.25m-.75-3v-2.25h.75v2.25m-.75-3v-2.25h.75v2.25m-.75-3v-2.25h.75v2.25m-.75-3v-2.25h.75v2.25m-.75-3v-2.25h.75v2.25m-.75-3v-2.25h.75v2.25m-.75-3v-2.25h.75v2.25m-.75-3v-2.25h.75v2.25m-.75-3v-2.25h.75v2.25m-.75-3v-2.25h.75v2.25m-.75-3v-2.25h.75v2.25m-.75-3v-2.25h.75v2.25m-.75-3v-2.25h.75v2.25m-.75-3v-1.513h.75v1.512" style="stroke:none;fill-rule:nonzero;fill:#bbb;fill-opacity:1"/><path d="m559.992 592.652 1.735-1.433.476.578-1.734 1.433m1.836-2.488 1.73-1.433.48.574-1.734 1.437m1.832-2.492 1.735-1.433.476.578-1.73 1.433m1.832-2.492 1.734-1.434.477.579-1.735 1.433m1.832-2.488 1.735-1.434.48.575-1.734 1.437m1.832-2.492 1.734-1.434.477.578-1.73 1.434m1.831-2.492 1.735-1.434.476.578-1.734 1.434m1.832-2.488 1.734-1.434.48.574-1.734 1.438m1.832-2.492 1.735-1.434.476.578-1.73 1.434m1.832-2.492 1.73-1.434.48.578-1.733 1.434m1.832-2.489 1.734-1.433.48.574-1.734 1.437m1.832-2.492 1.734-1.433.477.578-1.734 1.433m1.836-2.492 1.73-1.433.48.578-1.734 1.433m1.832-2.488 1.735-1.434.476.575-1.73 1.437m1.832-2.492 1.734-1.434.477.579-1.735 1.433m1.836-2.492 1.73-1.434.481.578-1.734 1.434m1.832-2.488 1.734-1.434.477.574-1.73 1.438m1.831-2.492 1.735-1.434.476.578-1.734 1.434m1.836-2.492 1.73-1.434.48.578-1.734 1.434m1.832-2.489 1.735-1.433.476.574-1.73 1.438m1.832-2.493 1.734-1.433.477.578-1.735 1.434m1.836-2.493 1.73-1.433.481.578-1.734 1.433m1.832-2.488 1.734-1.433.477.574-1.73 1.437m1.831-2.492 1.735-1.433.476.578-1.734 1.433m1.832-2.492 1.734-1.433.48.578-1.734 1.433m1.833-2.488 1.734-1.434.476.575-1.73 1.437m1.832-2.492 1.734-1.434.477.578-1.734 1.434m1.832-2.492 1.734-1.434.48.578-1.734 1.434m1.832-2.488 1.735-1.434.476.574-1.73 1.438m1.832-2.492.89-.735.477.574-.89.739" style="stroke:none;fill-rule:nonzero;fill:#bbb;fill-opacity:1"/><path d="M544.52 563.402h2.25v.75h-2.25m3-.75h2.25v.75h-2.25m3-.75h2.25v.75h-2.25m3-.75h2.25v.75h-2.25m3-.75h2.25v.75h-2.25m3-.75h2.25v.75h-2.25m3-.75h2.25v.75h-2.25m3-.75h2.25v.75h-2.25m3-.75h2.25v.75h-2.25m3-.75h2.25v.75h-2.25m3-.75h2.25v.75h-2.25m3-.75h2.25v.75h-2.25m3-.75h2.25v.75h-2.25m3-.75h2.25v.75h-2.25m3-.75h2.25v.75h-2.25m3-.75h2.25v.75h-2.25m3-.75h2.25v.75h-2.25m3-.75h2.25v.75h-2.25m3-.75h2.25v.75h-2.25m3-.75h2.25v.75h-2.25m3-.75h2.25v.75h-2.25m3-.75h2.25v.75h-2.25m3-.75h2.25v.75h-2.25m3-.75h2.25v.75h-2.25m3-.75h2.25v.75h-2.25m3-.75h2.25v.75h-2.25m3-.75h2.25v.75h-2.25m3-.75h2.25v.75h-2.25m3-.75h2.25v.75h-2.25m3-.75h2.25v.75h-2.25m3-.75h2.25v.75h-2.25m3-.75h2.25v.75h-2.25m3-.75h2.25v.75h-2.25m3-.75h.703v.75h-.703" style="stroke:none;fill-rule:nonzero;fill:#bbb;fill-opacity:1"/><path d="m560.191 534.52 1.746 1.41-.472.582-1.746-1.41m2.8 1.3 1.747 1.414-.473.582-1.746-1.414m2.8 1.301 1.747 1.414-.473.582-1.746-1.414m2.8 1.305 1.747 1.414-.473.582-1.746-1.414m2.8 1.3 1.747 1.415-.473.582-1.746-1.414m2.801 1.304 1.746 1.41-.473.583-1.746-1.41m2.801 1.3 1.746 1.414-.472.582-1.746-1.414m2.8 1.301 1.746 1.414-.472.582-1.746-1.414m2.8 1.305 1.746 1.414-.472.582-1.746-1.414m2.8 1.3 1.747 1.415-.473.582-1.746-1.414m2.8 1.304 1.747 1.41-.473.582-1.746-1.41m2.8 1.301 1.747 1.414-.473.582-1.746-1.414m2.8 1.3 1.747 1.415-.469.582-1.746-1.414m2.797 1.305 1.746 1.414-.469.582-1.746-1.414m2.797 1.3 1.746 1.414-.468.583-1.747-1.415m2.797 1.305 1.746 1.41-.468.582-1.746-1.41m2.796 1.301 1.746 1.414-.468.582-1.746-1.414m2.797 1.3 1.746 1.415-.47.582-1.745-1.414m2.797 1.304 1.746 1.415-.469.582-1.746-1.414m2.797 1.3 1.746 1.414-.469.582-1.746-1.414m2.797 1.305 1.746 1.41-.469.586-1.746-1.414m2.8 1.3 1.747 1.415-.473.582-1.746-1.414m2.801 1.305 1.746 1.41-.472.582-1.747-1.41m2.801 1.3 1.746 1.414-.472.582-1.746-1.414m2.8 1.301 1.746 1.414-.472.582-1.746-1.414m2.8 1.305 1.747 1.414-.473.582-1.746-1.414m2.8 1.3 1.747 1.415-.473.582-1.746-1.414m2.8 1.304 1.747 1.41-.473.583-1.746-1.41m2.8 1.3 1.747 1.414-.473.582-1.746-1.414m2.8 1.301 1.747 1.414-.473.582-1.746-1.414m2.801 1.305.113.09-.472.582-.114-.09" style="stroke:none;fill-rule:nonzero;fill:#bbb;fill-opacity:1"/><g clip-path="url(#R)"><g clip-path="url(#S)"><path d="M576.809 552.25h35.086v32.898h-35.086Zm0 0" style="stroke:none;fill-rule:nonzero;fill:#e2caf1;fill-opacity:1"/></g></g><g clip-path="url(#T)"><g clip-path="url(#U)"><path d="M788.195 412.969h17.543v16.449h-17.543Zm0 0" style="stroke:none;fill-rule:nonzero;fill:#e2caf1;fill-opacity:1"/></g></g><g clip-path="url(#V)"><g clip-path="url(#W)"><path d="M846.82 460.871h17.543v16.45H846.82Zm0 0" style="stroke:none;fill-rule:nonzero;fill:#e2caf1;fill-opacity:1"/></g></g><g clip-path="url(#X)"><g clip-path="url(#Y)"><path d="M905.453 412.969h17.543v16.449h-17.543Zm0 0" style="stroke:none;fill-rule:nonzero;fill:#e2caf1;fill-opacity:1"/></g></g><g clip-path="url(#Z)"><g clip-path="url(#aa)"><path d="M846.82 364.91h17.543v16.45H846.82Zm0 0" style="stroke:none;fill-rule:nonzero;fill:#e2caf1;fill-opacity:1"/></g></g><g clip-path="url(#ab)"><g clip-path="url(#ac)"><path d="M887.898 381.36h17.54v16.449h-17.54Zm0 0" style="stroke:none;fill-rule:nonzero;fill:#e2caf1;fill-opacity:1"/></g></g><g clip-path="url(#ad)"><g clip-path="url(#ae)"><path d="M805.754 447.184h17.539v16.449h-17.54Zm0 0" style="stroke:none;fill-rule:nonzero;fill:#e2caf1;fill-opacity:1"/></g></g><g clip-path="url(#af)"><g clip-path="url(#ag)"><path d="M887.898 447.184h17.54v16.449h-17.54Zm0 0" style="stroke:none;fill-rule:nonzero;fill:#e2caf1;fill-opacity:1"/></g></g><g clip-path="url(#ah)"><g clip-path="url(#ai)"><path d="M805.754 378.637h17.539v16.449h-17.54Zm0 0" style="stroke:none;fill-rule:nonzero;fill:#e2caf1;fill-opacity:1"/></g></g><path d="M855.219 460.867v-2.25h.75v2.25m-.75-3v-2.25h.75v2.25m-.75-3v-2.25h.75v2.25m-.75-3v-2.25h.75v2.25m-.75-3v-2.25h.75v2.25m-.75-3v-2.25h.75v2.25m-.75-3v-2.25h.75v2.25m-.75-3v-2.25h.75v2.25m-.75-3v-2.25h.75v2.25m-.75-3v-2.25h.75v2.25m-.75-3v-2.25h.75v2.25m-.75-3v-2.25h.75v2.25m-.75-3v-2.25h.75v2.25m-.75-3v-2.25h.75v2.25m-.75-3v-2.25h.75v2.25m-.75-3v-2.25h.75v2.25m-.75-3v-2.25h.75v2.25m-.75-3v-2.25h.75v2.25m-.75-3v-2.25h.75v2.25m-.75-3v-2.25h.75v2.25m-.75-3v-2.25h.75v2.25m-.75-3v-2.25h.75v2.25m-.75-3v-2.25h.75v2.25m-.75-3v-2.25h.75v2.25m-.75-3v-2.25h.75v2.25m-.75-3v-2.25h.75v2.25m-.75-3v-1.512h.75v1.512" style="stroke:none;fill-rule:nonzero;fill:#bbb;fill-opacity:1"/><path d="m821.223 450.07 1.734-1.433.48.578-1.734 1.433m1.832-2.492 1.735-1.433.476.578-1.734 1.433m1.836-2.488 1.73-1.433.48.574-1.734 1.437m1.832-2.492 1.735-1.434.476.579-1.73 1.433m1.832-2.492 1.734-1.434.477.579-1.735 1.433m1.836-2.488 1.73-1.434.481.574-1.734 1.438m1.832-2.492 1.734-1.434.477.578-1.73 1.434m1.831-2.492 1.735-1.434.476.578-1.734 1.434m1.836-2.488 1.73-1.434.48.574-1.734 1.438m1.832-2.493 1.735-1.433.476.578-1.73 1.434m1.832-2.493 1.734-1.433.477.578-1.735 1.434m1.836-2.489 1.73-1.433.481.574-1.734 1.437m1.832-2.492 1.734-1.433.477.578-1.73 1.433m1.832-2.492 1.734-1.433.476.578-1.734 1.433m1.832-2.488 1.735-1.434.48.575-1.734 1.437m1.832-2.492 1.734-1.434.477.578-1.73 1.434m1.831-2.492 1.735-1.434.476.578-1.734 1.434m1.832-2.488 1.734-1.434.48.574-1.734 1.438m1.832-2.492 1.735-1.434.476.578-1.734 1.434m1.836-2.492 1.73-1.434.48.578-1.734 1.434m1.832-2.489 1.735-1.433.48.574-1.734 1.438m1.832-2.493 1.734-1.433.477.578-1.735 1.433m1.836-2.492 1.73-1.433.481.578-1.734 1.433m1.832-2.488 1.734-1.433.477.574-1.73 1.437m1.831-2.492 1.735-1.434.476.579-1.734 1.433m1.836-2.492 1.73-1.434.48.579-1.734 1.433m1.832-2.488 1.735-1.434.476.574-1.73 1.438m1.832-2.492 1.734-1.434.477.578-1.734 1.434m1.836-2.492 1.73-1.434.48.578-1.734 1.434m1.832-2.488.89-.739.477.578-.886.739" style="stroke:none;fill-rule:nonzero;fill:#bbb;fill-opacity:1"/><path d="M805.754 420.816h2.25v.75h-2.25m3-.75h2.25v.75h-2.25m3-.75h2.25v.75h-2.25m3-.75h2.25v.75h-2.25m3-.75h2.25v.75h-2.25m3-.75h2.25v.75h-2.25m3-.75h2.25v.75h-2.25m3-.75h2.25v.75h-2.25m3-.75h2.25v.75h-2.25m3-.75h2.25v.75h-2.25m3-.75h2.25v.75h-2.25m3-.75h2.25v.75h-2.25m3-.75h2.25v.75h-2.25m3-.75h2.25v.75h-2.25m3-.75h2.25v.75h-2.25m3-.75h2.25v.75h-2.25m3-.75h2.25v.75h-2.25m3-.75h2.25v.75h-2.25m3-.75h2.25v.75h-2.25m3-.75h2.25v.75h-2.25m3-.75h2.25v.75h-2.25m3-.75h2.25v.75h-2.25m3-.75h2.25v.75h-2.25m3-.75h2.25v.75h-2.25m3-.75h2.25v.75h-2.25m3-.75h2.25v.75h-2.25m3-.75h2.25v.75h-2.25m3-.75h2.25v.75h-2.25m3-.75h2.25v.75h-2.25m3-.75h2.25v.75h-2.25m3-.75h2.25v.75h-2.25m3-.75h2.25v.75h-2.25m3-.75h2.25v.75h-2.25m3-.75h.7v.75h-.7" style="stroke:none;fill-rule:nonzero;fill:#bbb;fill-opacity:1"/><path d="m821.422 391.934 1.746 1.414-.469.582-1.746-1.414m2.797 1.304 1.746 1.41-.469.582-1.746-1.41m2.797 1.301 1.746 1.414-.469.582-1.746-1.414m2.797 1.3 1.746 1.415-.468.582-1.746-1.414m2.796 1.305 1.746 1.414-.468.582-1.746-1.414m2.797 1.3 1.746 1.415-.47.582-1.745-1.414m2.797 1.304 1.746 1.41-.469.586-1.746-1.414m2.797 1.301 1.746 1.414-.469.582-1.746-1.414m2.797 1.305 1.746 1.41-.469.582-1.746-1.41m2.797 1.3 1.75 1.415-.473.582-1.746-1.414m2.801 1.3 1.746 1.414-.473.582-1.746-1.414m2.801 1.305 1.746 1.414-.472.582-1.746-1.414m2.8 1.3 1.746 1.415-.472.582-1.746-1.414m2.8 1.305 1.746 1.41-.472.582-1.746-1.41m2.8 1.3 1.747 1.414-.473.582-1.746-1.414m2.8 1.301 1.747 1.414-.473.582-1.746-1.414m2.8 1.305 1.747 1.414-.473.582-1.746-1.414m2.8 1.3 1.747 1.415-.473.582-1.746-1.414m2.801 1.304 1.746 1.41-.473.583-1.746-1.41m2.801 1.3 1.746 1.414-.472.582-1.746-1.414m2.8 1.301 1.746 1.414-.472.582-1.746-1.414m2.8 1.305 1.746 1.414-.472.582-1.746-1.414m2.8 1.3 1.747 1.415-.473.582-1.746-1.414m2.8 1.304 1.747 1.41-.469.583-1.75-1.41m2.8 1.3 1.747 1.414-.469.582-1.746-1.414m2.797 1.301 1.746 1.414-.469.582-1.746-1.414m2.797 1.305 1.746 1.414-.469.582-1.746-1.414m2.797 1.3 1.746 1.415-.468.582-1.747-1.414m2.797 1.304 1.746 1.41-.468.582-1.746-1.41m2.796 1.301 1.746 1.414-.468.582-1.746-1.414m2.797 1.3.113.095-.469.582-.113-.094" style="stroke:none;fill-rule:nonzero;fill:#bbb;fill-opacity:1"/><g clip-path="url(#aj)"><g clip-path="url(#ak)"><path d="M838.043 404.742h35.082v32.899h-35.082Zm0 0" style="stroke:none;fill-rule:nonzero;fill:#e2caf1;fill-opacity:1"/></g></g><g clip-path="url(#al)"><g clip-path="url(#am)"><path d="M788.195 550.629h17.543v16.45h-17.543Zm0 0" style="stroke:none;fill-rule:nonzero;fill:#e2caf1;fill-opacity:1"/></g></g><g clip-path="url(#an)"><g clip-path="url(#ao)"><path d="M846.82 603.453h17.543v16.45H846.82Zm0 0" style="stroke:none;fill-rule:nonzero;fill:#e2caf1;fill-opacity:1"/></g></g><g clip-path="url(#ap)"><g clip-path="url(#aq)"><path d="M905.453 550.629h17.543v16.45h-17.543Zm0 0" style="stroke:none;fill-rule:nonzero;fill:#e2caf1;fill-opacity:1"/></g></g><g clip-path="url(#ar)"><g clip-path="url(#as)"><path d="M846.82 502.574h17.543v16.446H846.82Zm0 0" style="stroke:none;fill-rule:nonzero;fill:#e2caf1;fill-opacity:1"/></g></g><g clip-path="url(#at)"><g clip-path="url(#au)"><path d="M887.898 519.02h17.54v16.449h-17.54Zm0 0" style="stroke:none;fill-rule:nonzero;fill:#e2caf1;fill-opacity:1"/></g></g><g clip-path="url(#av)"><g clip-path="url(#aw)"><path d="M805.754 589.766h17.539v16.449h-17.54Zm0 0" style="stroke:none;fill-rule:nonzero;fill:#e2caf1;fill-opacity:1"/></g></g><g clip-path="url(#ax)"><g clip-path="url(#ay)"><path d="M887.898 589.766h17.54v16.449h-17.54Zm0 0" style="stroke:none;fill-rule:nonzero;fill:#e2caf1;fill-opacity:1"/></g></g><g clip-path="url(#az)"><g clip-path="url(#aA)"><path d="M805.754 516.297h17.539v16.45h-17.54Zm0 0" style="stroke:none;fill-rule:nonzero;fill:#e2caf1;fill-opacity:1"/></g></g><path d="M855.219 603.45v-2.25h.75v2.25m-.75-3v-2.25h.75v2.25m-.75-3v-2.25h.75v2.25m-.75-3v-2.25h.75v2.25m-.75-3v-2.25h.75v2.25m-.75-3v-2.25h.75v2.25m-.75-3v-2.25h.75v2.25m-.75-3v-2.25h.75v2.25m-.75-3v-2.25h.75v2.25m-.75-3v-2.25h.75v2.25m-.75-3v-2.25h.75v2.25m-.75-3v-2.25h.75v2.25m-.75-3v-2.25h.75v2.25m-.75-3v-2.25h.75v2.25m-.75-3v-2.25h.75v2.25m-.75-3v-2.25h.75v2.25m-.75-3v-2.25h.75v2.25m-.75-3v-2.25h.75v2.25m-.75-3v-2.25h.75v2.25m-.75-3v-2.25h.75v2.25m-.75-3v-2.25h.75v2.25m-.75-3v-2.25h.75v2.25m-.75-3v-2.25h.75v2.25m-.75-3v-2.25h.75v2.25m-.75-3v-2.25h.75v2.25m-.75-3v-2.25h.75v2.25m-.75-3v-2.25h.75v2.25m-.75-3v-2.25h.75v2.25m-.75-3v-.434h.75v.433" style="stroke:none;fill-rule:nonzero;fill:#bbb;fill-opacity:1"/><path d="m821.215 592.668 1.672-1.508.5.559-1.672 1.504m1.726-2.563 1.672-1.508.504.559-1.672 1.504m1.727-2.563 1.672-1.504.504.555-1.672 1.508m1.726-2.566 1.672-1.504.504.554-1.676 1.508m1.73-2.566 1.673-1.504.5.558-1.672 1.504m1.73-2.562 1.672-1.508.5.559-1.672 1.504m1.727-2.563 1.676-1.508.5.559-1.672 1.504m1.726-2.563 1.672-1.504.504.555-1.672 1.508m1.727-2.567 1.672-1.504.504.555-1.672 1.508m1.726-2.566 1.672-1.504.5.558-1.672 1.504m1.73-2.562 1.673-1.508.5.558-1.672 1.504m1.73-2.562 1.672-1.508.5.559-1.672 1.504m1.727-2.563 1.672-1.504.504.555-1.672 1.508m1.726-2.567 1.672-1.504.504.555-1.672 1.508m1.727-2.567 1.672-1.504.503.56-1.675 1.503m1.73-2.562 1.672-1.508.5.558-1.672 1.504m1.73-2.562 1.673-1.508.5.558-1.672 1.504m1.726-2.562 1.676-1.504.5.555-1.672 1.507m1.727-2.566 1.672-1.504.503.559-1.671 1.504m1.726-2.567 1.672-1.504.504.559-1.672 1.504m1.727-2.563 1.671-1.507.5.558-1.671 1.504m1.73-2.562 1.672-1.508.5.558-1.672 1.504m1.73-2.562 1.672-1.504.5.554-1.671 1.508m1.726-2.566 1.672-1.504.504.559-1.672 1.504m1.727-2.567 1.671-1.504.504.559-1.672 1.504m1.727-2.563 1.672-1.508.504.559-1.676 1.504m1.73-2.563 1.672-1.507.5.558-1.672 1.504m1.731-2.562 1.672-1.504.5.554-1.672 1.508m1.727-2.566 1.675-1.504.5.558-1.672 1.504m1.727-2.566 1.672-1.504.504.559-1.672 1.504m1.726-2.563 1.02-.922.504.559-1.02.918" style="stroke:none;fill-rule:nonzero;fill:#bbb;fill-opacity:1"/><path d="M805.754 558.477h2.25v.75h-2.25m3-.75h2.25v.75h-2.25m3-.75h2.25v.75h-2.25m3-.75h2.25v.75h-2.25m3-.75h2.25v.75h-2.25m3-.75h2.25v.75h-2.25m3-.75h2.25v.75h-2.25m3-.75h2.25v.75h-2.25m3-.75h2.25v.75h-2.25m3-.75h2.25v.75h-2.25m3-.75h2.25v.75h-2.25m3-.75h2.25v.75h-2.25m3-.75h2.25v.75h-2.25m3-.75h2.25v.75h-2.25m3-.75h2.25v.75h-2.25m3-.75h2.25v.75h-2.25m3-.75h2.25v.75h-2.25m3-.75h2.25v.75h-2.25m3-.75h2.25v.75h-2.25m3-.75h2.25v.75h-2.25m3-.75h2.25v.75h-2.25m3-.75h2.25v.75h-2.25m3-.75h2.25v.75h-2.25m3-.75h2.25v.75h-2.25m3-.75h2.25v.75h-2.25m3-.75h2.25v.75h-2.25m3-.75h2.25v.75h-2.25m3-.75h2.25v.75h-2.25m3-.75h2.25v.75h-2.25m3-.75h2.25v.75h-2.25m3-.75h2.25v.75h-2.25m3-.75h2.25v.75h-2.25m3-.75h2.25v.75h-2.25m3-.75h.7v.75h-.7" style="stroke:none;fill-rule:nonzero;fill:#bbb;fill-opacity:1"/><path d="m821.434 529.605 1.683 1.48-.492.563-1.684-1.48m2.739 1.41 1.683 1.485-.496.558-1.683-1.48m2.742 1.414 1.683 1.48-.496.563-1.683-1.48m2.738 1.41 1.684 1.484-.493.558-1.683-1.48m2.738 1.414 1.684 1.48-.493.563-1.683-1.48m2.738 1.41 1.684 1.484-.496.559-1.684-1.48m2.738 1.413 1.684 1.48-.492.563-1.684-1.48m2.738 1.414 1.684 1.48-.492.559-1.684-1.48m2.739 1.413 1.683 1.48-.496.563-1.684-1.48m2.739 1.414 1.687 1.48-.496.559-1.683-1.48m2.738 1.414 1.683 1.48-.492.563-1.683-1.48m2.738 1.413 1.683 1.48-.492.56-1.683-1.481m2.738 1.414 1.684 1.48-.496.563-1.684-1.48m2.738 1.413 1.684 1.48-.492.56-1.684-1.481m2.738 1.414 1.684 1.48-.492.563-1.684-1.48m2.738 1.414 1.684 1.48-.496.559-1.684-1.48m2.739 1.413 1.683 1.48-.492.563-1.684-1.48m2.739 1.414 1.683 1.48-.492.559-1.684-1.48m2.739 1.413 1.683 1.48-.492.563-1.687-1.48m2.742 1.414 1.683 1.48-.496.56-1.683-1.481m2.738 1.414 1.684 1.48-.493.563-1.683-1.48m2.738 1.413 1.684 1.48-.492.563-1.684-1.484m2.738 1.414 1.684 1.48-.496.563-1.684-1.48m2.738 1.413 1.684 1.48-.492.563-1.684-1.484m2.739 1.414 1.683 1.48-.492.563-1.684-1.48m2.739 1.414 1.683 1.48-.496.563-1.683-1.485m2.742 1.414 1.683 1.48-.496.563-1.683-1.48m2.738 1.414 1.683 1.48-.492.563-1.683-1.485m2.738 1.415 1.684 1.48-.493.563-1.683-1.481m2.738 1.414 1.684 1.48-.496.563-1.684-1.484m2.738 1.414 1.684 1.48-.492.563-1.684-1.48m2.738 1.413.239.211-.493.559-.238-.211" style="stroke:none;fill-rule:nonzero;fill:#bbb;fill-opacity:1"/><g clip-path="url(#aB)"><g clip-path="url(#aC)"><path d="M838.043 547.328h35.082v32.895h-35.082Zm0 0" style="stroke:none;fill-rule:nonzero;fill:#e2caf1;fill-opacity:1"/></g></g><g style="fill:#fff;fill-opacity:1"><path d="M28.36-23.5V0h-4.704v-10.86q-.002-5.576.078-8.03a112 112 0 0 1-2.187 8L18.25 0h-5.11L9.767-10.922a130 130 0 0 1-2.11-7.937q.077 2.455.078 8V0H3.031v-23.5h7.422l5.313 19.172L21.078-23.5Zm0 0" style="stroke:none" transform="translate(584.952 677.68)"/></g><g style="fill:#fff;fill-opacity:1"><path d="m12.672 0-.344-2.656-.89 1.937C10.258.082 8.766.484 6.953.484q-2.501 0-4.172-1.39-1.657-1.407-1.656-3.89 0-3 2.531-4.61 2.545-1.624 7.438-1.625h1.156v-.375a19 19 0 0 0-.062-1.703q-.236-2.17-2.797-2.172-2.814.002-3.032 3.062l-4.562.031c.07-2 .828-3.566 2.266-4.703 1.445-1.132 3.28-1.703 5.5-1.703q6.78 0 7.25 5.344c.07.867.109 1.797.109 2.797v5.86Q16.92-2.515 17.266 0ZM8.75-2.828c1 0 1.832-.336 2.5-1.016.664-.687 1-1.629 1-2.828V-8.14Q5.999-8.575 6-5.17c0 1.562.914 2.343 2.75 2.343m0 0" style="stroke:none" transform="translate(615.49 677.68)"/></g><g style="fill:#fff;fill-opacity:1"><path d="M19.031-13.516q.14 1.221.14 3.297V0H14.47v-9.562c0-1.07-.024-1.915-.063-2.532q-.251-3.187-3.484-3.187-1.828 0-2.953 1.719-1.125 1.723-1.125 5.296V0H2.14v-18.11h4.703v2.922l1.39-2.14q1.782-1.266 4.36-1.266c1.906 0 3.41.446 4.515 1.328q1.653 1.33 1.922 3.75m0 0" style="stroke:none" transform="translate(634.624 677.68)"/></g><g style="fill:#fff;fill-opacity:1"><path d="m12.672 0-.344-2.656-.89 1.937C10.258.082 8.766.484 6.953.484q-2.501 0-4.172-1.39-1.657-1.407-1.656-3.89 0-3 2.531-4.61 2.545-1.624 7.438-1.625h1.156v-.375a19 19 0 0 0-.062-1.703q-.236-2.17-2.797-2.172-2.814.002-3.032 3.062l-4.562.031c.07-2 .828-3.566 2.266-4.703 1.445-1.132 3.28-1.703 5.5-1.703q6.78 0 7.25 5.344c.07.867.109 1.797.109 2.797v5.86Q16.92-2.515 17.266 0ZM8.75-2.828c1 0 1.832-.336 2.5-1.016.664-.687 1-1.629 1-2.828V-8.14Q5.999-8.575 6-5.17c0 1.562.914 2.343 2.75 2.343m0 0" style="stroke:none" transform="translate(655.765 677.68)"/></g><g style="fill:#fff;fill-opacity:1"><path d="M19.75-18.11V-4.53q-.001 2.52-.031 3.515c-.094 2.758-.992 4.844-2.688 6.25-1.687 1.414-3.996 2.125-6.922 2.125Q6.153 7.357 3.938 5.75q-2.206-1.593-2.5-4.594L1.39.813h4.562L6 1.125q.152 1.265 1.266 1.984 1.105.734 2.922.735 2.201 0 3.437-1.11 1.25-1.094 1.39-3.25.031-.668.032-2.203v-.453l-1.36 2.016Q12.048.109 9.188.109c-2.523 0-4.53-.82-6.03-2.468C1.663-4.004.921-6.172.921-8.86q0-4.686 2.484-7.203 2.484-2.532 6.188-2.532 2.795 0 4.265 1.032l1.188 1.859v-2.406ZM7-4.827c.82 1.086 1.938 1.625 3.344 1.625q2.122.002 3.406-1.438 1.296-1.453 1.297-4.593v-.5c0-1.883-.445-3.282-1.328-4.188q-1.33-1.36-3.203-1.36c-1.43 0-2.575.509-3.438 1.516q-1.299 1.518-1.297 4.5c0 1.868.407 3.344 1.219 4.438m0 0" style="stroke:none" transform="translate(674.899 677.68)"/></g><g style="fill:#fff;fill-opacity:1"><path d="M18.594-9.437q-.002 1-.078 1.609H5.656c.27 3.336 1.664 5 4.188 5q1.53 0 2.531-.813.997-.808 1.25-2.25h4.688q-.673 3.094-2.97 4.735Q13.047.484 9.735.484q-3.908 0-6.359-2.437Q.921-4.391.922-8.984q0-4.218 2.531-6.907 2.543-2.701 6.656-2.703 3.985 0 6.235 2.625c1.5 1.75 2.25 3.93 2.25 6.531m-8.688-5.844q-3.503.001-4.125 4.39h7.969q-.468-4.389-3.844-4.39m0 0" style="stroke:none" transform="translate(696.857 677.68)"/></g><g style="fill:#fff;fill-opacity:1"><path d="M19.75-18.11V-4.53q-.001 2.52-.031 3.515c-.094 2.758-.992 4.844-2.688 6.25-1.687 1.414-3.996 2.125-6.922 2.125Q6.153 7.357 3.938 5.75q-2.206-1.593-2.5-4.594L1.39.813h4.562L6 1.125q.152 1.265 1.266 1.984 1.105.734 2.922.735 2.201 0 3.437-1.11 1.25-1.094 1.39-3.25.031-.668.032-2.203v-.453l-1.36 2.016Q12.048.109 9.188.109c-2.523 0-4.53-.82-6.03-2.468C1.663-4.004.921-6.172.921-8.86q0-4.686 2.484-7.203 2.484-2.532 6.188-2.532 2.795 0 4.265 1.032l1.188 1.859v-2.406ZM7-4.827c.82 1.086 1.938 1.625 3.344 1.625q2.122.002 3.406-1.438 1.296-1.453 1.297-4.593v-.5c0-1.883-.445-3.282-1.328-4.188q-1.33-1.36-3.203-1.36c-1.43 0-2.575.509-3.438 1.516q-1.299 1.518-1.297 4.5c0 1.868.407 3.344 1.219 4.438m0 0" style="stroke:none" transform="translate(716.535 677.68)"/></g><g style="fill:#fff;fill-opacity:1"><path d="M18.594-9.437q-.002 1-.078 1.609H5.656c.27 3.336 1.664 5 4.188 5q1.53 0 2.531-.813.997-.808 1.25-2.25h4.688q-.673 3.094-2.97 4.735Q13.047.484 9.735.484q-3.908 0-6.359-2.437Q.921-4.391.922-8.984q0-4.218 2.531-6.907 2.543-2.701 6.656-2.703 3.985 0 6.235 2.625c1.5 1.75 2.25 3.93 2.25 6.531m-8.688-5.844q-3.503.001-4.125 4.39h7.969q-.468-4.389-3.844-4.39m0 0" style="stroke:none" transform="translate(738.494 677.68)"/></g><g style="fill:#fff;fill-opacity:1"><path d="M29.047-14.094q.17 1.16.172 3.297V0h-4.703v-9.437q0-1.735-.141-2.954-.377-2.889-3.062-2.89-3.299.001-3.297 5.984V0h-4.672v-9.437q0-1.735-.14-2.954-.375-2.889-3.095-2.89c-2.18 0-3.265 1.996-3.265 5.984V0H2.14v-18.11h4.703v2.75l1.328-2.171q1.5-1.062 3.844-1.063 2.139 0 3.547.938a5.05 5.05 0 0 1 2 2.5l1.78-2.375q1.499-1.062 3.876-1.063 2.484 0 3.984 1.266t1.844 3.234m0 0" style="stroke:none" transform="translate(758.172 677.68)"/></g><g style="fill:#fff;fill-opacity:1"><path d="M18.594-9.437q-.002 1-.078 1.609H5.656c.27 3.336 1.664 5 4.188 5q1.53 0 2.531-.813.997-.808 1.25-2.25h4.688q-.673 3.094-2.97 4.735Q13.047.484 9.735.484q-3.908 0-6.359-2.437Q.921-4.391.922-8.984q0-4.218 2.531-6.907 2.543-2.701 6.656-2.703 3.985 0 6.235 2.625c1.5 1.75 2.25 3.93 2.25 6.531m-8.688-5.844q-3.503.001-4.125 4.39h7.969q-.468-4.389-3.844-4.39m0 0" style="stroke:none" transform="translate(789.357 677.68)"/></g><g style="fill:#fff;fill-opacity:1"><path d="M19.031-13.516q.14 1.221.14 3.297V0H14.47v-9.562c0-1.07-.024-1.915-.063-2.532q-.251-3.187-3.484-3.187-1.828 0-2.953 1.719-1.125 1.723-1.125 5.296V0H2.14v-18.11h4.703v2.922l1.39-2.14q1.782-1.266 4.36-1.266c1.906 0 3.41.446 4.515 1.328q1.653 1.33 1.922 3.75m0 0" style="stroke:none" transform="translate(809.035 677.68)"/></g><g style="fill:#fff;fill-opacity:1"><path d="M7.766-14.875V-6.5c0 .75.007 1.281.03 1.594q.108 1.33.782 1.718.686.394 2.625.266V.141A19.7 19.7 0 0 1 8.11.375c-1.73 0-2.964-.29-3.703-.86q-1.112-.872-1.281-2.859-.063-.81-.062-2.61v-8.921H.406v-3.11h2.657v-4.453h4.703v4.454h3.75v3.109Zm0 0" style="stroke:none" transform="translate(830.177 677.68)"/></g><g style="fill:#fff;fill-opacity:1"><path d="M20.688-23.437c.632 0 1.14.195 1.515.578q.563.58.563 1.547v19.359c0 .648-.196 1.168-.578 1.562q-.58.593-1.5.594-.954-.002-1.516-.594-.563-.59-.563-1.562v-8.14H6.703v8.14q-.002.972-.578 1.562-.581.593-1.531.594c-.625 0-1.133-.2-1.516-.594q-.562-.59-.562-1.562v-19.36q-.002-.966.547-1.546.56-.576 1.53-.578.951.002 1.532.578.576.58.578 1.547v7.78H18.61v-7.78q0-.967.563-1.547.562-.576 1.515-.578m0 0" style="stroke:none" transform="translate(394.608 183.032)"/></g><g style="fill:#fff;fill-opacity:1"><path d="M9.14-16.531q3.36 0 5 1.672 1.641 1.658 1.641 5.062v8.047c0 .594-.18 1.063-.531 1.406q-.533.516-1.453.516-.861 0-1.406-.531c-.368-.352-.547-.817-.547-1.391v-.719a4.36 4.36 0 0 1-1.766 2.016c-.805.476-1.73.719-2.781.719q-1.629 0-2.953-.657-1.314-.668-2.078-1.812a4.63 4.63 0 0 1-.75-2.578c0-1.188.3-2.117.906-2.797.601-.688 1.586-1.18 2.953-1.484q2.044-.47 5.64-.47h.829v-.765q0-1.605-.688-2.344-.69-.75-2.25-.75-.955 0-1.953.282-.985.27-2.328.797-.861.438-1.266.437c-.398 0-.718-.14-.968-.422-.25-.289-.375-.672-.375-1.14q0-.544.28-.954.282-.42.938-.796 1.156-.622 2.75-.985 1.607-.358 3.157-.36M8.126-2.703c1.094 0 1.984-.367 2.672-1.11.695-.738 1.047-1.69 1.047-2.859v-.687h-.594q-2.205.002-3.437.203-1.221.188-1.75.687-.516.505-.516 1.36c0 .699.242 1.277.734 1.734q.75.674 1.844.672m0 0" style="stroke:none" transform="translate(419.886 183.032)"/></g><g style="fill:#fff;fill-opacity:1"><path d="M11.156-16.469q.857-.059 1.344.375.499.424.5 1.282c0 .593-.148 1.039-.437 1.328q-.423.421-1.547.547l-.985.093q-1.957.204-2.86 1.328-.906 1.126-.905 2.797v6.938q-.002.954-.594 1.469c-.399.343-.89.515-1.484.515q-.893 0-1.47-.516-.578-.514-.577-1.468v-12.766q-.001-.937.578-1.422.575-.499 1.437-.5.856.002 1.39.485.53.468.532 1.359v1.328c.414-.969 1.035-1.71 1.86-2.234a5.75 5.75 0 0 1 2.75-.906Zm0 0" style="stroke:none" transform="translate(437.706 183.032)"/></g><g style="fill:#fff;fill-opacity:1"><path d="M15.61-23.437c.613 0 1.117.18 1.515.53q.593.535.594 1.391V-1.78c0 .593-.188 1.07-.563 1.422q-.563.531-1.484.53-.924.001-1.485-.53-.562-.53-.562-1.422v-.828a5.15 5.15 0 0 1-2.094 2.125q-1.376.75-3.11.75-2.078 0-3.718-1.047-1.642-1.061-2.547-2.985-.907-1.933-.906-4.453c0-1.664.3-3.125.906-4.375Q3.06-14.48 4.672-15.5q1.623-1.03 3.75-1.031 1.734.001 3.094.734a4.96 4.96 0 0 1 2.078 2.031v-7.812q-.002-.827.547-1.344.543-.516 1.468-.515M9.5-2.937q1.98.002 3.047-1.344 1.078-1.359 1.078-3.875 0-2.497-1.078-3.828-1.065-1.343-3.016-1.344c-1.312 0-2.336.445-3.062 1.328q-1.094 1.314-1.094 3.781Q5.374-5.7 6.469-4.313 7.559-2.936 9.5-2.937m0 0" style="stroke:none" transform="translate(450.345 183.032)"/></g><g style="fill:#fff;fill-opacity:1"><path d="M10.531-2.875q1.64.112 1.64 1.484 0 .798-.64 1.22-.645.403-1.828.343l-.89-.078Q3.265-.294 3.266-5.844v-7.187H1.609c-.593 0-1.054-.13-1.375-.39q-.468-.405-.468-1.173 0-.75.468-1.14c.32-.27.782-.407 1.375-.407h1.657v-3.03q0-.89.562-1.423c.375-.351.879-.531 1.516-.531.613 0 1.11.18 1.484.531q.563.532.563 1.422v3.031h2.812q.89.001 1.36.407.482.39.484 1.14-.002.768-.485 1.172-.468.392-1.359.39H7.391v7.485q0 2.438 2.25 2.61Zm0 0" style="stroke:none" transform="translate(479.12 183.032)"/></g><g style="fill:#fff;fill-opacity:1"><path d="M9.5.266C7.852.266 6.406-.07 5.156-.75a7.17 7.17 0 0 1-2.89-2.937c-.68-1.282-1.016-2.77-1.016-4.47 0-1.687.336-3.16 1.016-4.421q1.029-1.904 2.89-2.922Q7.03-16.53 9.5-16.531q2.483 0 4.344 1.031a6.95 6.95 0 0 1 2.86 2.922q1.014 1.892 1.015 4.422-.001 2.547-1.016 4.469a7 7 0 0 1-2.86 2.937C12.603-.07 11.157.266 9.5.266m-.031-3.203q2.015 0 3.062-1.313 1.062-1.326 1.063-3.906-.001-2.53-1.063-3.86-1.049-1.342-3.031-1.343-1.968.001-3.047 1.343-1.078 1.33-1.078 3.86 0 2.58 1.047 3.906 1.06 1.313 3.047 1.313m0 0" style="stroke:none" transform="translate(491.298 183.032)"/></g><g style="fill:#fff;fill-opacity:1"><path d="M9.313.266C7.695.266 6.28-.07 5.063-.75a7.1 7.1 0 0 1-2.829-2.906q-.984-1.888-.984-4.39 0-2.516 1.031-4.438a7.34 7.34 0 0 1 2.922-2.985q1.889-1.061 4.328-1.062 1.295 0 2.594.36 1.312.363 2.297.983 1.061.706 1.062 1.75 0 .738-.359 1.188-.344.439-.906.438-.362.001-.766-.157a6.5 6.5 0 0 1-.781-.406 9 9 0 0 0-1.39-.672 4.3 4.3 0 0 0-1.516-.25q-2.05.001-3.157 1.344-1.094 1.331-1.093 3.828-.001 2.486 1.093 3.828 1.107 1.33 3.157 1.328.825.001 1.468-.25.64-.248 1.438-.672a6 6 0 0 1 .86-.437 1.8 1.8 0 0 1 .718-.156q.527 0 .89.468.376.457.376 1.141c0 .375-.086.703-.25.984-.168.274-.438.516-.813.735-.68.437-1.469.789-2.375 1.047q-1.36.375-2.765.375m0 0" style="stroke:none" transform="translate(519.216 183.032)"/></g><g style="fill:#fff;fill-opacity:1"><path d="M9.5.266C7.852.266 6.406-.07 5.156-.75a7.17 7.17 0 0 1-2.89-2.937c-.68-1.282-1.016-2.77-1.016-4.47 0-1.687.336-3.16 1.016-4.421q1.029-1.904 2.89-2.922Q7.03-16.53 9.5-16.531q2.483 0 4.344 1.031a6.95 6.95 0 0 1 2.86 2.922q1.014 1.892 1.015 4.422-.001 2.547-1.016 4.469a7 7 0 0 1-2.86 2.937C12.603-.07 11.157.266 9.5.266m-.031-3.203q2.015 0 3.062-1.313 1.062-1.326 1.063-3.906-.001-2.53-1.063-3.86-1.049-1.342-3.031-1.343-1.968.001-3.047 1.343-1.078 1.33-1.078 3.86 0 2.58 1.047 3.906 1.06 1.313 3.047 1.313m0 0" style="stroke:none" transform="translate(535.32 183.032)"/></g><g style="fill:#fff;fill-opacity:1"><path d="M13.39-15.281q.264-.593.704-.89.45-.296.984-.298c.508 0 .969.172 1.375.516q.61.515.61 1.265-.002.411-.204.797L10.766-1.125q-.299.628-.844.969a2.3 2.3 0 0 1-1.203.328q-.645 0-1.219-.328a2.2 2.2 0 0 1-.86-.969L.5-13.891a1.6 1.6 0 0 1-.172-.765q-.002-.75.64-1.281a2.24 2.24 0 0 1 1.47-.532q1.185.001 1.75 1.157L8.813-5.11Zm0 0" style="stroke:none" transform="translate(554.295 183.032)"/></g><g style="fill:#fff;fill-opacity:1"><path d="M14.922-4.422c.375 0 .676.149.906.438.227.28.344.664.344 1.14q0 1.033-1.219 1.719-1.126.628-2.547 1.016-1.424.375-2.703.375Q5.812.267 3.531-1.97 1.248-4.217 1.25-8.125q0-2.466.984-4.375.997-1.921 2.797-2.969Q6.825-16.53 9.11-16.53q2.17.002 3.782.953 1.624.956 2.515 2.703.89 1.752.89 4.125 0 1.423-1.25 1.422H5.314c.132 1.523.562 2.64 1.28 3.36q1.092 1.063 3.173 1.062c.707 0 1.328-.086 1.859-.266q.811-.263 1.844-.719.984-.528 1.453-.53m-5.719-9.203q-1.675 0-2.687 1.063-1.003 1.05-1.203 3.03h7.453q-.064-2.015-.985-3.046c-.617-.695-1.476-1.047-2.578-1.047m0 0" style="stroke:none" transform="translate(571.653 183.032)"/></g><g style="fill:#fff;fill-opacity:1"><path d="M11.156-16.469q.857-.059 1.344.375.499.424.5 1.282c0 .593-.148 1.039-.437 1.328q-.423.421-1.547.547l-.985.093q-1.957.204-2.86 1.328-.906 1.126-.905 2.797v6.938q-.002.954-.594 1.469c-.399.343-.89.515-1.484.515q-.893 0-1.47-.516-.578-.514-.577-1.468v-12.766q-.001-.937.578-1.422.575-.499 1.437-.5.856.002 1.39.485.53.468.532 1.359v1.328c.414-.969 1.035-1.71 1.86-2.234a5.75 5.75 0 0 1 2.75-.906Zm0 0" style="stroke:none" transform="translate(589.176 183.032)"/></g><g style="fill:#fff;fill-opacity:1"><path d="M9.14-16.531q3.36 0 5 1.672 1.641 1.658 1.641 5.062v8.047c0 .594-.18 1.063-.531 1.406q-.533.516-1.453.516-.861 0-1.406-.531c-.368-.352-.547-.817-.547-1.391v-.719a4.36 4.36 0 0 1-1.766 2.016c-.805.476-1.73.719-2.781.719q-1.629 0-2.953-.657-1.314-.668-2.078-1.812a4.63 4.63 0 0 1-.75-2.578c0-1.188.3-2.117.906-2.797.601-.688 1.586-1.18 2.953-1.484q2.044-.47 5.64-.47h.829v-.765q0-1.605-.688-2.344-.69-.75-2.25-.75-.955 0-1.953.282-.985.27-2.328.797-.861.438-1.266.437c-.398 0-.718-.14-.968-.422-.25-.289-.375-.672-.375-1.14q0-.544.28-.954.282-.42.938-.796 1.156-.622 2.75-.985 1.607-.358 3.157-.36M8.126-2.703c1.094 0 1.984-.367 2.672-1.11.695-.738 1.047-1.69 1.047-2.859v-.687h-.594q-2.205.002-3.437.203-1.221.188-1.75.687-.516.505-.516 1.36c0 .699.242 1.277.734 1.734q.75.674 1.844.672m0 0" style="stroke:none" transform="translate(610.758 183.032)"/></g><g style="fill:#fff;fill-opacity:1"><path d="M4.188.203q-.893 0-1.47-.516-.578-.514-.577-1.468v-19.703q-.001-.95.578-1.453.576-.5 1.469-.5c.593 0 1.085.167 1.484.5q.593.503.594 1.453v19.703q-.002.954-.594 1.469c-.399.343-.89.515-1.484.515m0 0" style="stroke:none" transform="translate(628.578 183.032)"/></g><g style="fill:#fff;fill-opacity:1"><path d="M4.188.203q-.893 0-1.47-.516-.578-.514-.577-1.468v-19.703q-.001-.95.578-1.453.576-.5 1.469-.5c.593 0 1.085.167 1.484.5q.593.503.594 1.453v19.703q-.002.954-.594 1.469c-.399.343-.89.515-1.484.515m0 0" style="stroke:none" transform="translate(636.96 183.032)"/></g><g style="fill:#fff;fill-opacity:1"><path d="M10.531-2.875q1.64.112 1.64 1.484 0 .798-.64 1.22-.645.403-1.828.343l-.89-.078Q3.265-.294 3.266-5.844v-7.187H1.609c-.593 0-1.054-.13-1.375-.39q-.468-.405-.468-1.173 0-.75.468-1.14c.32-.27.782-.407 1.375-.407h1.657v-3.03q0-.89.562-1.423c.375-.351.879-.531 1.516-.531.613 0 1.11.18 1.484.531q.563.532.563 1.422v3.031h2.812q.89.001 1.36.407.482.39.484 1.14-.002.768-.485 1.172-.468.392-1.359.39H7.391v7.485q0 2.438 2.25 2.61Zm0 0" style="stroke:none" transform="translate(654.285 183.032)"/></g><g style="fill:#fff;fill-opacity:1"><path d="M11.578-16.531q5.686.001 5.688 6.625v8.125q-.001.925-.547 1.453c-.367.351-.867.531-1.5.531-.649 0-1.156-.18-1.531-.531-.368-.352-.547-.836-.547-1.453v-8.125c0-1.164-.243-2.016-.72-2.547-.468-.54-1.21-.813-2.218-.813q-1.78 0-2.86 1.125-1.077 1.125-1.077 3v7.36q0 .925-.563 1.453c-.375.351-.883.531-1.516.531-.636 0-1.136-.18-1.5-.531-.367-.352-.546-.836-.546-1.453v-19.735q-.001-.856.578-1.39c.383-.352.883-.532 1.5-.532q.921.001 1.484.5.563.505.563 1.36v7.687a5.4 5.4 0 0 1 2.187-1.968q1.372-.67 3.125-.672m0 0" style="stroke:none" transform="translate(666.462 183.032)"/></g><g style="fill:#fff;fill-opacity:1"><path d="M4.188.203q-.893 0-1.47-.516-.578-.514-.577-1.468v-12.735q-.001-.966.578-1.453.576-.499 1.469-.5c.593 0 1.085.168 1.484.5q.593.486.594 1.453V-1.78q-.002.954-.594 1.469c-.399.343-.89.515-1.484.515m0-19.61q-1.125 0-1.782-.609-.656-.609-.656-1.593 0-.997.656-1.594.657-.593 1.781-.594 1.092.002 1.766.594c.445.398.672.93.672 1.594q0 .984-.656 1.593-.657.61-1.782.61m0 0" style="stroke:none" transform="translate(685.766 183.032)"/></g><g style="fill:#fff;fill-opacity:1"><path d="M11.516-16.531q2.905.002 4.328 1.656c.945 1.094 1.422 2.75 1.422 4.969v8.125q-.001.925-.547 1.453c-.367.351-.867.531-1.5.531-.649 0-1.156-.18-1.531-.531-.368-.352-.547-.836-.547-1.453v-7.89c0-1.25-.243-2.161-.72-2.735-.468-.57-1.21-.86-2.218-.86q-1.78 0-2.86 1.125-1.077 1.125-1.077 3v7.36q0 .925-.563 1.453c-.375.351-.883.531-1.516.531-.636 0-1.136-.18-1.5-.531-.367-.352-.546-.836-.546-1.453v-12.766q0-.856.562-1.39c.375-.352.879-.532 1.516-.532q.855 0 1.406.516.546.518.547 1.328v.89a5.6 5.6 0 0 1 2.203-2.062q1.39-.733 3.14-.734m0 0" style="stroke:none" transform="translate(694.148 183.032)"/></g><g style="fill:#fff;fill-opacity:1"><path d="M15.813-16.469q.92.002 1.484.532.562.532.562 1.421v13.032q-.001 3.795-2.125 5.734Q13.625 6.202 9.5 6.203q-3.597 0-6-1.36-1.219-.72-1.219-1.734 0-.738.344-1.171.342-.423.906-.422.296 0 .719.14.435.154.89.36 1.203.498 2.141.75.938.264 2.157.265c2.882 0 4.328-1.406 4.328-4.219v-2.109a5.15 5.15 0 0 1-2.125 2.094c-.918.492-1.97.734-3.157.734q-2.109.001-3.75-1C3.648-2.133 2.797-3.07 2.172-4.28 1.555-5.5 1.25-6.898 1.25-8.484q-.002-2.375.906-4.203c.602-1.22 1.457-2.16 2.563-2.829 1.101-.675 2.36-1.015 3.765-1.015q1.781 0 3.157.75a5.06 5.06 0 0 1 2.125 2.094v-.86q0-.856.562-1.39c.375-.352.867-.532 1.485-.532M9.563-3.656q1.98 0 3.093-1.281 1.11-1.296 1.11-3.547 0-2.28-1.11-3.563c-.742-.851-1.773-1.281-3.094-1.281-1.292 0-2.312.43-3.062 1.281q-1.125 1.283-1.125 3.563 0 2.25 1.125 3.547 1.124 1.281 3.063 1.28m0 0" style="stroke:none" transform="translate(713.453 183.032)"/></g><g style="fill:#fff;fill-opacity:1"><path d="M7.984.266q-3.597 0-5.812-1.422-1.048-.621-1.047-1.781c0-.438.117-.79.36-1.063a1.12 1.12 0 0 1 .89-.422c.375 0 .89.18 1.547.531q1.06.488 1.937.75c.582.18 1.32.266 2.22.266.925 0 1.644-.148 2.155-.453.52-.313.782-.742.782-1.297q-.001-.563-.313-.89-.316-.33-1.125-.61-.798-.279-2.453-.64-2.94-.593-4.203-1.673c-.844-.726-1.266-1.734-1.266-3.015q0-1.453.844-2.625c.57-.781 1.36-1.383 2.36-1.813q1.511-.639 3.421-.64 1.39.002 2.672.343 1.294.345 2.313 1 1.061.674 1.062 1.75 0 .675-.375 1.126-.363.438-.89.437-.364 0-.704-.14-.346-.154-.875-.454a14 14 0 0 0-1.656-.75c-.46-.164-1.027-.25-1.703-.25q-1.235.001-1.937.5-.704.505-.704 1.36 0 .815.72 1.25c.487.28 1.425.57 2.812.859q2.2.456 3.453 1.047c.844.398 1.441.89 1.797 1.484q.546.892.547 2.282-.002 2.25-1.86 3.609Q11.09.268 7.984.266m0 0" style="stroke:none" transform="translate(733.418 183.032)"/></g><g style="fill:#fff;fill-opacity:1"><path d="M9.14-16.531q3.36 0 5 1.672 1.641 1.658 1.641 5.062v8.047c0 .594-.18 1.063-.531 1.406q-.533.516-1.453.516-.861 0-1.406-.531c-.368-.352-.547-.817-.547-1.391v-.719a4.36 4.36 0 0 1-1.766 2.016c-.805.476-1.73.719-2.781.719q-1.629 0-2.953-.657-1.314-.668-2.078-1.812a4.63 4.63 0 0 1-.75-2.578c0-1.188.3-2.117.906-2.797.601-.688 1.586-1.18 2.953-1.484q2.044-.47 5.64-.47h.829v-.765q0-1.605-.688-2.344-.69-.75-2.25-.75-.955 0-1.953.282-.985.27-2.328.797-.861.438-1.266.437c-.398 0-.718-.14-.968-.422-.25-.289-.375-.672-.375-1.14q0-.544.28-.954.282-.42.938-.796 1.156-.622 2.75-.985 1.607-.358 3.157-.36M8.126-2.703c1.094 0 1.984-.367 2.672-1.11.695-.738 1.047-1.69 1.047-2.859v-.687h-.594q-2.205.002-3.437.203-1.221.188-1.75.687-.516.505-.516 1.36c0 .699.242 1.277.734 1.734q.75.674 1.844.672m0 0" style="stroke:none" transform="translate(758.366 183.032)"/></g><g style="fill:#fff;fill-opacity:1"><path d="M11.516-16.531q2.905.002 4.328 1.656c.945 1.094 1.422 2.75 1.422 4.969v8.125q-.001.925-.547 1.453c-.367.351-.867.531-1.5.531-.649 0-1.156-.18-1.531-.531-.368-.352-.547-.836-.547-1.453v-7.89c0-1.25-.243-2.161-.72-2.735-.468-.57-1.21-.86-2.218-.86q-1.78 0-2.86 1.125-1.077 1.125-1.077 3v7.36q0 .925-.563 1.453c-.375.351-.883.531-1.516.531-.636 0-1.136-.18-1.5-.531-.367-.352-.546-.836-.546-1.453v-12.766q0-.856.562-1.39c.375-.352.879-.532 1.516-.532q.855 0 1.406.516.546.518.547 1.328v.89a5.6 5.6 0 0 1 2.203-2.062q1.39-.733 3.14-.734m0 0" style="stroke:none" transform="translate(776.186 183.032)"/></g><g style="fill:#fff;fill-opacity:1"><path d="M15.61-23.437c.613 0 1.117.18 1.515.53q.593.535.594 1.391V-1.78c0 .593-.188 1.07-.563 1.422q-.563.531-1.484.53-.924.001-1.485-.53-.562-.53-.562-1.422v-.828a5.15 5.15 0 0 1-2.094 2.125q-1.376.75-3.11.75-2.078 0-3.718-1.047-1.642-1.061-2.547-2.985-.907-1.933-.906-4.453c0-1.664.3-3.125.906-4.375Q3.06-14.48 4.672-15.5q1.623-1.03 3.75-1.031 1.734.001 3.094.734a4.96 4.96 0 0 1 2.078 2.031v-7.812q-.002-.827.547-1.344.543-.516 1.468-.515M9.5-2.937q1.98.002 3.047-1.344 1.078-1.359 1.078-3.875 0-2.497-1.078-3.828-1.065-1.343-3.016-1.344c-1.312 0-2.336.445-3.062 1.328q-1.094 1.314-1.094 3.781Q5.374-5.7 6.469-4.313 7.559-2.936 9.5-2.937m0 0" style="stroke:none" transform="translate(795.491 183.032)"/></g><g style="fill:#fff;fill-opacity:1"><path d="M16.5-3.203q.656.626.656 1.422 0 .767-.547 1.36c-.355.398-.777.593-1.265.593-.48 0-.934-.195-1.36-.594l-7.718-7v5.64q-.002.956-.594 1.454c-.399.332-.89.5-1.484.5q-.893-.001-1.47-.5-.578-.498-.577-1.453v-19.703q-.001-.95.578-1.453.576-.5 1.469-.5c.593 0 1.085.167 1.484.5q.593.503.594 1.453v12.406l7.062-6.766q.592-.593 1.36-.594.75 0 1.312.563.563.564.563 1.328c0 .5-.211.961-.625 1.375l-5.172 4.828Zm0 0" style="stroke:none" transform="translate(824.267 183.032)"/></g><g style="fill:#fff;fill-opacity:1"><path d="M14.922-4.422c.375 0 .676.149.906.438.227.28.344.664.344 1.14q0 1.033-1.219 1.719-1.126.628-2.547 1.016-1.424.375-2.703.375Q5.812.267 3.531-1.97 1.248-4.217 1.25-8.125q0-2.466.984-4.375.997-1.921 2.797-2.969Q6.825-16.53 9.11-16.53q2.17.002 3.782.953 1.624.956 2.515 2.703.89 1.752.89 4.125 0 1.423-1.25 1.422H5.314c.132 1.523.562 2.64 1.28 3.36q1.092 1.063 3.173 1.062c.707 0 1.328-.086 1.859-.266q.811-.263 1.844-.719.984-.528 1.453-.53m-5.719-9.203q-1.675 0-2.687 1.063-1.003 1.05-1.203 3.03h7.453q-.064-2.015-.985-3.046c-.617-.695-1.476-1.047-2.578-1.047m0 0" style="stroke:none" transform="translate(841.955 183.032)"/></g><g style="fill:#fff;fill-opacity:1"><path d="M14.922-4.422c.375 0 .676.149.906.438.227.28.344.664.344 1.14q0 1.033-1.219 1.719-1.126.628-2.547 1.016-1.424.375-2.703.375Q5.812.267 3.531-1.97 1.248-4.217 1.25-8.125q0-2.466.984-4.375.997-1.921 2.797-2.969Q6.825-16.53 9.11-16.53q2.17.002 3.782.953 1.624.956 2.515 2.703.89 1.752.89 4.125 0 1.423-1.25 1.422H5.314c.132 1.523.562 2.64 1.28 3.36q1.092 1.063 3.173 1.062c.707 0 1.328-.086 1.859-.266q.811-.263 1.844-.719.984-.528 1.453-.53m-5.719-9.203q-1.675 0-2.687 1.063-1.003 1.05-1.203 3.03h7.453q-.064-2.015-.985-3.046c-.617-.695-1.476-1.047-2.578-1.047m0 0" style="stroke:none" transform="translate(859.478 183.032)"/></g><g style="fill:#fff;fill-opacity:1"><path d="M11.422-16.531q2.074 0 3.703 1.062 1.64 1.05 2.547 2.985c.601 1.28.906 2.761.906 4.437 0 1.668-.305 3.133-.906 4.39Q16.762-1.78 15.14-.75C14.066-.07 12.828.266 11.42.266c-1.148 0-2.171-.243-3.077-.72a5.2 5.2 0 0 1-2.078-2.015V4.25q0 .855-.563 1.36-.564.498-1.484.5-.925-.002-1.5-.532-.58-.534-.578-1.39v-18.704q-.002-.889.547-1.421c.363-.352.851-.532 1.468-.532q.922.002 1.485.532.562.532.562 1.421v.829a5.1 5.1 0 0 1 2.094-2.094q1.372-.75 3.125-.75M10.328-2.938c1.3 0 2.313-.44 3.031-1.328q1.092-1.343 1.094-3.78-.002-2.515-1.094-3.892-1.078-1.389-3.03-1.39-1.987 0-3.063 1.36Q6.2-10.622 6.203-8.126 6.201-5.64 7.266-4.281c.718.898 1.738 1.343 3.062 1.343m0 0" style="stroke:none" transform="translate(877.001 183.032)"/></g><g style="fill:#fff;fill-opacity:1"><path d="M14.89-16.469q.951.002 1.516.532.563.532.563 1.421v12.797c0 .574-.196 1.04-.578 1.39-.387.352-.887.532-1.5.532q-.91-.001-1.438-.5-.515-.498-.515-1.36v-.812A5.4 5.4 0 0 1 10.89-.438Q9.607.266 7.984.266q-5.938 0-5.937-6.672v-8.11q0-.889.562-1.421c.375-.352.868-.532 1.485-.532q.951.002 1.515.532.563.532.563 1.421v8.141c0 1.148.226 1.996.687 2.547.47.555 1.196.828 2.188.828q1.717 0 2.75-1.14c.695-.758 1.047-1.766 1.047-3.016v-7.36q-.002-.889.547-1.421c.375-.352.875-.532 1.5-.532m0 0" style="stroke:none" transform="translate(905.777 183.032)"/></g><g style="fill:#fff;fill-opacity:1"><path d="M11.422-16.531q2.074 0 3.703 1.062 1.64 1.05 2.547 2.985c.601 1.28.906 2.761.906 4.437 0 1.668-.305 3.133-.906 4.39Q16.762-1.78 15.14-.75C14.066-.07 12.828.266 11.42.266c-1.148 0-2.171-.243-3.077-.72a5.2 5.2 0 0 1-2.078-2.015V4.25q0 .855-.563 1.36-.564.498-1.484.5-.925-.002-1.5-.532-.58-.534-.578-1.39v-18.704q-.002-.889.547-1.421c.363-.352.851-.532 1.468-.532q.922.002 1.485.532.562.532.562 1.421v.829a5.1 5.1 0 0 1 2.094-2.094q1.372-.75 3.125-.75M10.328-2.938c1.3 0 2.313-.44 3.031-1.328q1.092-1.343 1.094-3.78-.002-2.515-1.094-3.892-1.078-1.389-3.03-1.39-1.987 0-3.063 1.36Q6.2-10.622 6.203-8.126 6.201-5.64 7.266-4.281c.718.898 1.738 1.343 3.062 1.343m0 0" style="stroke:none" transform="translate(924.884 183.032)"/></g><g style="fill:#fff;fill-opacity:1"><path d="M15.61-23.437c.613 0 1.117.18 1.515.53q.593.535.594 1.391V-1.78c0 .593-.188 1.07-.563 1.422q-.563.531-1.484.53-.924.001-1.485-.53-.562-.53-.562-1.422v-.828a5.15 5.15 0 0 1-2.094 2.125q-1.376.75-3.11.75-2.078 0-3.718-1.047-1.642-1.061-2.547-2.985-.907-1.933-.906-4.453c0-1.664.3-3.125.906-4.375Q3.06-14.48 4.672-15.5q1.623-1.03 3.75-1.031 1.734.001 3.094.734a4.96 4.96 0 0 1 2.078 2.031v-7.812q-.002-.827.547-1.344.543-.516 1.468-.515M9.5-2.937q1.98.002 3.047-1.344 1.078-1.359 1.078-3.875 0-2.497-1.078-3.828-1.065-1.343-3.016-1.344c-1.312 0-2.336.445-3.062 1.328q-1.094 1.314-1.094 3.781Q5.374-5.7 6.469-4.313 7.559-2.936 9.5-2.937m0 0" style="stroke:none" transform="translate(944.717 183.032)"/></g><g style="fill:#fff;fill-opacity:1"><path d="M9.14-16.531q3.36 0 5 1.672 1.641 1.658 1.641 5.062v8.047c0 .594-.18 1.063-.531 1.406q-.533.516-1.453.516-.861 0-1.406-.531c-.368-.352-.547-.817-.547-1.391v-.719a4.36 4.36 0 0 1-1.766 2.016c-.805.476-1.73.719-2.781.719q-1.629 0-2.953-.657-1.314-.668-2.078-1.812a4.63 4.63 0 0 1-.75-2.578c0-1.188.3-2.117.906-2.797.601-.688 1.586-1.18 2.953-1.484q2.044-.47 5.64-.47h.829v-.765q0-1.605-.688-2.344-.69-.75-2.25-.75-.955 0-1.953.282-.985.27-2.328.797-.861.438-1.266.437c-.398 0-.718-.14-.968-.422-.25-.289-.375-.672-.375-1.14q0-.544.28-.954.282-.42.938-.796 1.156-.622 2.75-.985 1.607-.358 3.157-.36M8.126-2.703c1.094 0 1.984-.367 2.672-1.11.695-.738 1.047-1.69 1.047-2.859v-.687h-.594q-2.205.002-3.437.203-1.221.188-1.75.687-.516.505-.516 1.36c0 .699.242 1.277.734 1.734q.75.674 1.844.672m0 0" style="stroke:none" transform="translate(964.55 183.032)"/></g><g style="fill:#fff;fill-opacity:1"><path d="M10.531-2.875q1.64.112 1.64 1.484 0 .798-.64 1.22-.645.403-1.828.343l-.89-.078Q3.265-.294 3.266-5.844v-7.187H1.609c-.593 0-1.054-.13-1.375-.39q-.468-.405-.468-1.173 0-.75.468-1.14c.32-.27.782-.407 1.375-.407h1.657v-3.03q0-.89.562-1.423c.375-.351.879-.531 1.516-.531.613 0 1.11.18 1.484.531q.563.532.563 1.422v3.031h2.812q.89.001 1.36.407.482.39.484 1.14-.002.768-.485 1.172-.468.392-1.359.39H7.391v7.485q0 2.438 2.25 2.61Zm0 0" style="stroke:none" transform="translate(982.37 183.032)"/></g><g style="fill:#fff;fill-opacity:1"><path d="M14.922-4.422c.375 0 .676.149.906.438.227.28.344.664.344 1.14q0 1.033-1.219 1.719-1.126.628-2.547 1.016-1.424.375-2.703.375Q5.812.267 3.531-1.97 1.248-4.217 1.25-8.125q0-2.466.984-4.375.997-1.921 2.797-2.969Q6.825-16.53 9.11-16.53q2.17.002 3.782.953 1.624.956 2.515 2.703.89 1.752.89 4.125 0 1.423-1.25 1.422H5.314c.132 1.523.562 2.64 1.28 3.36q1.092 1.063 3.173 1.062c.707 0 1.328-.086 1.859-.266q.811-.263 1.844-.719.984-.528 1.453-.53m-5.719-9.203q-1.675 0-2.687 1.063-1.003 1.05-1.203 3.03h7.453q-.064-2.015-.985-3.046c-.617-.695-1.476-1.047-2.578-1.047m0 0" style="stroke:none" transform="translate(994.547 183.032)"/></g><g style="fill:#fff;fill-opacity:1"><path d="M9.14-16.531q3.36 0 5 1.672 1.641 1.658 1.641 5.062v8.047c0 .594-.18 1.063-.531 1.406q-.533.516-1.453.516-.861 0-1.406-.531c-.368-.352-.547-.817-.547-1.391v-.719a4.36 4.36 0 0 1-1.766 2.016c-.805.476-1.73.719-2.781.719q-1.629 0-2.953-.657-1.314-.668-2.078-1.812a4.63 4.63 0 0 1-.75-2.578c0-1.188.3-2.117.906-2.797.601-.688 1.586-1.18 2.953-1.484q2.044-.47 5.64-.47h.829v-.765q0-1.605-.688-2.344-.69-.75-2.25-.75-.955 0-1.953.282-.985.27-2.328.797-.861.438-1.266.437c-.398 0-.718-.14-.968-.422-.25-.289-.375-.672-.375-1.14q0-.544.28-.954.282-.42.938-.796 1.156-.622 2.75-.985 1.607-.358 3.157-.36M8.126-2.703c1.094 0 1.984-.367 2.672-1.11.695-.738 1.047-1.69 1.047-2.859v-.687h-.594q-2.205.002-3.437.203-1.221.188-1.75.687-.516.505-.516 1.36c0 .699.242 1.277.734 1.734q.75.674 1.844.672m0 0" style="stroke:none" transform="translate(1021.013 183.032)"/></g><g style="fill:#fff;fill-opacity:1"><path d="M10.531-2.875q1.64.112 1.64 1.484 0 .798-.64 1.22-.645.403-1.828.343l-.89-.078Q3.265-.294 3.266-5.844v-7.187H1.609c-.593 0-1.054-.13-1.375-.39q-.468-.405-.468-1.173 0-.75.468-1.14c.32-.27.782-.407 1.375-.407h1.657v-3.03q0-.89.562-1.423c.375-.351.879-.531 1.516-.531.613 0 1.11.18 1.484.531q.563.532.563 1.422v3.031h2.812q.89.001 1.36.407.482.39.484 1.14-.002.768-.485 1.172-.468.392-1.359.39H7.391v7.485q0 2.438 2.25 2.61Zm0 0" style="stroke:none" transform="translate(1038.833 183.032)"/></g><g style="fill:#fff;fill-opacity:1"><path d="M9.5.266C7.852.266 6.406-.07 5.156-.75a7.17 7.17 0 0 1-2.89-2.937c-.68-1.282-1.016-2.77-1.016-4.47 0-1.687.336-3.16 1.016-4.421q1.029-1.904 2.89-2.922Q7.03-16.53 9.5-16.531q2.483 0 4.344 1.031a6.95 6.95 0 0 1 2.86 2.922q1.014 1.892 1.015 4.422-.001 2.547-1.016 4.469a7 7 0 0 1-2.86 2.937C12.603-.07 11.157.266 9.5.266m-.031-3.203q2.015 0 3.062-1.313 1.062-1.326 1.063-3.906-.001-2.53-1.063-3.86-1.049-1.342-3.031-1.343-1.968.001-3.047 1.343-1.078 1.33-1.078 3.86 0 2.58 1.047 3.906 1.06 1.313 3.047 1.313m0 0" style="stroke:none" transform="translate(1059.953 183.032)"/></g><g style="fill:#fff;fill-opacity:1"><path d="M11.516-16.531q2.905.002 4.328 1.656c.945 1.094 1.422 2.75 1.422 4.969v8.125q-.001.925-.547 1.453c-.367.351-.867.531-1.5.531-.649 0-1.156-.18-1.531-.531-.368-.352-.547-.836-.547-1.453v-7.89c0-1.25-.243-2.161-.72-2.735-.468-.57-1.21-.86-2.218-.86q-1.78 0-2.86 1.125-1.077 1.125-1.077 3v7.36q0 .925-.563 1.453c-.375.351-.883.531-1.516.531-.636 0-1.136-.18-1.5-.531-.367-.352-.546-.836-.546-1.453v-12.766q0-.856.562-1.39c.375-.352.879-.532 1.516-.532q.855 0 1.406.516.546.518.547 1.328v.89a5.6 5.6 0 0 1 2.203-2.062q1.39-.733 3.14-.734m0 0" style="stroke:none" transform="translate(1078.928 183.032)"/></g><g style="fill:#fff;fill-opacity:1"><path d="M9.313.266C7.695.266 6.28-.07 5.063-.75a7.1 7.1 0 0 1-2.829-2.906q-.984-1.888-.984-4.39 0-2.516 1.031-4.438a7.34 7.34 0 0 1 2.922-2.985q1.889-1.061 4.328-1.062 1.295 0 2.594.36 1.312.363 2.297.983 1.061.706 1.062 1.75 0 .738-.359 1.188-.344.439-.906.438-.362.001-.766-.157a6.5 6.5 0 0 1-.781-.406 9 9 0 0 0-1.39-.672 4.3 4.3 0 0 0-1.516-.25q-2.05.001-3.157 1.344-1.094 1.331-1.093 3.828-.001 2.486 1.093 3.828 1.107 1.33 3.157 1.328.825.001 1.468-.25.64-.248 1.438-.672a6 6 0 0 1 .86-.437 1.8 1.8 0 0 1 .718-.156q.527 0 .89.468.376.457.376 1.141c0 .375-.086.703-.25.984-.168.274-.438.516-.813.735-.68.437-1.469.789-2.375 1.047q-1.36.375-2.765.375m0 0" style="stroke:none" transform="translate(1098.233 183.032)"/></g><g style="fill:#fff;fill-opacity:1"><path d="M14.922-4.422c.375 0 .676.149.906.438.227.28.344.664.344 1.14q0 1.033-1.219 1.719-1.126.628-2.547 1.016-1.424.375-2.703.375Q5.812.267 3.531-1.97 1.248-4.217 1.25-8.125q0-2.466.984-4.375.997-1.921 2.797-2.969Q6.825-16.53 9.11-16.53q2.17.002 3.782.953 1.624.956 2.515 2.703.89 1.752.89 4.125 0 1.423-1.25 1.422H5.314c.132 1.523.562 2.64 1.28 3.36q1.092 1.063 3.173 1.062c.707 0 1.328-.086 1.859-.266q.811-.263 1.844-.719.984-.528 1.453-.53m-5.719-9.203q-1.675 0-2.687 1.063-1.003 1.05-1.203 3.03h7.453q-.064-2.015-.985-3.046c-.617-.695-1.476-1.047-2.578-1.047m0 0" style="stroke:none" transform="translate(1114.337 183.032)"/></g><g clip-path="url(#aD)"><g clip-path="url(#aE)"><path d="M161.813 111.668H353.75v124.395H161.813Zm0 0" style="stroke:none;fill-rule:nonzero;fill:#fff;fill-opacity:1"/></g></g><g style="fill:#000;fill-opacity:1"><path d="M7.719 0H3.03v-23.453H7.72Zm0 0" style="stroke:none" transform="translate(215.575 184.982)"/></g><g style="fill:#000;fill-opacity:1"><path d="M8.61-18.562q3.121.002 4.984 1.562c1.25 1.043 1.976 2.422 2.187 4.14h-4.703c-.312-1.738-1.242-2.609-2.781-2.609-.68 0-1.203.18-1.578.531q-.563.516-.563 1.407-.001 1.02.907 1.64.919.612 3.203 1.188 2.951.739 4.422 2.062 1.466 1.33 1.468 3.704-.001 2.626-2.093 4.015-2.097 1.39-5.36 1.39c-2.273 0-4.11-.491-5.515-1.484q-2.097-1.5-2.47-4.5h4.688q.264 1.44 1.172 2.172.903.72 2.188.719 1.2.002 1.922-.5.733-.515.734-1.469 0-1.044-.985-1.703-.984-.668-3.328-1.25Q4.355-8.234 2.891-9.5q-1.47-1.28-1.47-3.484-.001-2.59 1.954-4.078c1.313-1 3.055-1.5 5.234-1.5m0 0" style="stroke:none" transform="translate(225.501 184.982)"/></g><g style="fill:#000;fill-opacity:1"><path d="M8.61-18.562q3.121.002 4.984 1.562c1.25 1.043 1.976 2.422 2.187 4.14h-4.703c-.312-1.738-1.242-2.609-2.781-2.609-.68 0-1.203.18-1.578.531q-.563.516-.563 1.407-.001 1.02.907 1.64.919.612 3.203 1.188 2.951.739 4.422 2.062 1.466 1.33 1.468 3.704-.001 2.626-2.093 4.015-2.097 1.39-5.36 1.39c-2.273 0-4.11-.491-5.515-1.484q-2.097-1.5-2.47-4.5h4.688q.264 1.44 1.172 2.172.903.72 2.188.719 1.2.002 1.922-.5.733-.515.734-1.469 0-1.044-.985-1.703-.984-.668-3.328-1.25Q4.355-8.234 2.891-9.5q-1.47-1.28-1.47-3.484-.001-2.59 1.954-4.078c1.313-1 3.055-1.5 5.234-1.5m0 0" style="stroke:none" transform="translate(242.398 184.982)"/></g><g style="fill:#000;fill-opacity:1"><path d="M18.844-18.094V0H14.14v-3.062L12.75-.75Q10.904.47 8.39.469 5.72.468 4.032-.828 2.342-2.141 2-4.11q-.157-1.154-.156-3.297v-10.688H6.53v9.703q-.001 1.252.125 2.47.375 3.063 3.516 3.062 1.827.002 2.89-1.532 1.08-1.53 1.079-4.484v-9.219Zm0 0" style="stroke:none" transform="translate(259.294 184.982)"/></g><g style="fill:#000;fill-opacity:1"><path d="M18.563-9.422c0 .656-.024 1.195-.063 1.61H5.64q.404 4.985 4.188 4.984 1.53 0 2.531-.813c.664-.539 1.079-1.285 1.235-2.234h4.703c-.461 2.063-1.453 3.637-2.985 4.719C13.783-.07 11.915.469 9.72.469q-3.91.002-6.36-2.422Q.922-4.39.922-8.97q0-4.217 2.531-6.906 2.53-2.686 6.64-2.687c2.657 0 4.727.875 6.22 2.625q2.25 2.613 2.25 6.515M9.89-15.266c-2.336 0-3.703 1.465-4.11 4.391h7.953q-.468-4.39-3.843-4.39m0 0" style="stroke:none" transform="translate(280.303 184.982)"/></g></svg>